<?xml version="1.0" encoding="UTF-8"?><svg id="b" xmlns="http://www.w3.org/2000/svg" viewBox="0 0 1600 900"><g id="c"><rect width="1600" height="900" fill="none"/><path d="M641.75,593.37c41.06,44.22,99.7,71.9,164.8,71.9,49.35,0,94.99-15.9,132.07-42.86" fill="none" stroke="#d1d3d4" stroke-miterlimit="10" stroke-width="7"/><path d="M970.32,594.48c-10.21,18.58-20.63,44.24-23.47,64.32l-12.68-33.05-30.88-17.29c20.28.08,47.17-6.54,67.02-13.98Z" fill="#d1d3d4"/><path d="M850.62,569.4v-50.26h12.05v50.26h-12.05ZM857.94,547.97v-6.8h14.27c3.35,0,5.75-.49,7.21-1.48,1.45-.99,2.18-2.46,2.18-4.44s-.7-3.36-2.11-4.32-3.83-1.44-7.28-1.44h-14.27v-10.35h15c7.05,0,12.37,1.31,15.96,3.92,3.6,2.61,5.4,6.33,5.4,11.16,0,3.3-.84,5.95-2.51,7.95-1.68,2-4.1,3.46-7.28,4.4-3.18.94-7.03,1.4-11.57,1.4h-15ZM881.3,569.4c-.59-1.28-.97-2.72-1.15-4.32-.17-1.6-.31-3.23-.41-4.88-.1-1.65-.35-3.17-.74-4.55-.39-1.38-1.11-2.49-2.14-3.33-1.03-.84-2.56-1.26-4.58-1.26h-11.53v-6.13h17.52c3.2,0,5.74.35,7.61,1.04,1.87.69,3.25,1.65,4.14,2.88.89,1.23,1.49,2.66,1.81,4.29.32,1.63.55,3.35.7,5.17.15,1.82.37,3.68.67,5.58.3,1.9.89,3.73,1.77,5.51h-13.67Z" fill="#95caa6"/><path d="M918.55,570.29c-6.55,0-11.56-1.63-15-4.88s-5.17-7.83-5.17-13.75c0-4.09.81-7.64,2.44-10.64,1.63-3,3.93-5.33,6.91-6.99,2.98-1.65,6.47-2.48,10.46-2.48,3.6,0,6.63.6,9.09,1.81,2.46,1.21,4.34,2.8,5.62,4.77,1.28,1.97,1.92,4.12,1.92,6.43s-.55,4.07-1.66,5.54c-1.11,1.48-2.62,2.61-4.54,3.4-1.92.79-4.1,1.27-6.54,1.44-2.44.17-5.01.09-7.72-.26-2.71-.34-5.4-.91-8.06-1.7v-6.65c2.56.64,4.89,1.08,6.98,1.33,2.09.25,3.92.27,5.47.07,1.55-.2,2.75-.62,3.58-1.26.84-.64,1.26-1.5,1.26-2.59,0-1.18-.48-2.19-1.44-3.03s-2.33-1.26-4.1-1.26c-1.58,0-2.99.41-4.25,1.22-1.26.81-2.25,2.07-2.99,3.77s-1.11,3.88-1.11,6.54c0,2.46.37,4.51,1.11,6.13s1.87,2.82,3.4,3.58c1.53.76,3.57,1.15,6.14,1.15,2.32,0,4.57-.26,6.76-.78,2.19-.52,4.3-1.27,6.32-2.25v7.69c-1.77,1.03-3.93,1.9-6.47,2.59-2.54.69-5.33,1.03-8.39,1.03Z" fill="#95caa6"/><path d="M940.72,569.4v-36.96h11.09v36.96h-11.09ZM965.41,569.4v-20.03c0-1.67-.27-3.05-.81-4.14-.54-1.08-1.29-1.88-2.25-2.4s-2.03-.78-3.21-.78c-1.28,0-2.48.28-3.58.85-1.11.57-2.01,1.43-2.7,2.59-.69,1.16-1.03,2.62-1.03,4.4l-1.55-9.02c.74-2.12,1.75-3.87,3.03-5.25,1.28-1.38,2.77-2.4,4.47-3.07,1.7-.67,3.49-1,5.36-1,2.41,0,4.64.53,6.69,1.59,2.04,1.06,3.68,2.76,4.92,5.1,1.23,2.34,1.85,5.43,1.85,9.28v21.88h-11.16Z" fill="#95caa6"/><path d="M1010.72,560.98c-1.13,2.96-2.82,5.25-5.06,6.87-2.24,1.63-4.89,2.44-7.95,2.44s-5.64-.78-8.06-2.33c-2.42-1.55-4.31-3.77-5.69-6.65-1.38-2.88-2.07-6.32-2.07-10.31s.69-7.37,2.07-10.27c1.38-2.91,3.3-5.16,5.76-6.76,2.46-1.6,5.3-2.4,8.5-2.4s5.68.73,7.72,2.18c2.04,1.45,3.44,3.49,4.18,6.1l-1.04,9.02c0-1.58-.32-2.96-.96-4.14s-1.5-2.11-2.59-2.77-2.37-1-3.84-1c-1.58,0-2.97.42-4.18,1.26-1.21.84-2.16,1.98-2.85,3.44-.69,1.45-1.03,3.19-1.03,5.21s.34,3.61,1.03,5.06c.69,1.45,1.63,2.58,2.81,3.36,1.18.79,2.59,1.18,4.21,1.18,2.22,0,4-.74,5.36-2.22,1.35-1.48,2.03-3.4,2.03-5.76l1.63,8.5ZM1020.25,516.18v53.22h-11.16v-53.22h11.16Z" fill="#95caa6"/><path d="M1045.97,570.29c-6.55,0-11.56-1.63-15-4.88s-5.17-7.83-5.17-13.75c0-4.09.81-7.64,2.44-10.64,1.63-3,3.93-5.33,6.91-6.99,2.98-1.65,6.47-2.48,10.46-2.48,3.6,0,6.63.6,9.09,1.81,2.46,1.21,4.34,2.8,5.62,4.77,1.28,1.97,1.92,4.12,1.92,6.43s-.55,4.07-1.66,5.54c-1.11,1.48-2.62,2.61-4.54,3.4-1.92.79-4.1,1.27-6.54,1.44-2.44.17-5.01.09-7.72-.26-2.71-.34-5.4-.91-8.06-1.7v-6.65c2.56.64,4.89,1.08,6.98,1.33,2.09.25,3.92.27,5.47.07,1.55-.2,2.75-.62,3.58-1.26.84-.64,1.26-1.5,1.26-2.59,0-1.18-.48-2.19-1.44-3.03s-2.33-1.26-4.1-1.26c-1.58,0-2.99.41-4.25,1.22-1.26.81-2.25,2.07-2.99,3.77s-1.11,3.88-1.11,6.54c0,2.46.37,4.51,1.11,6.13s1.87,2.82,3.4,3.58c1.53.76,3.57,1.15,6.14,1.15,2.32,0,4.57-.26,6.76-.78,2.19-.52,4.3-1.27,6.32-2.25v7.69c-1.77,1.03-3.93,1.9-6.47,2.59-2.54.69-5.33,1.03-8.39,1.03Z" fill="#95caa6"/><path d="M1068.15,569.4v-36.96h11.09v36.96h-11.09ZM1079.23,552.77l-1.18-11.9c.89-2.96,2.19-5.25,3.92-6.87,1.72-1.63,3.72-2.44,5.99-2.44,1.18,0,2.28.25,3.29.74,1.01.49,1.82,1.23,2.44,2.22.62.99.92,2.27.92,3.84,0,2.12-.52,3.67-1.55,4.66-1.03.99-2.29,1.48-3.77,1.48-.94,0-1.76-.13-2.48-.41-.71-.27-1.47-.41-2.25-.41-1.63,0-2.92.79-3.88,2.37s-1.44,3.82-1.44,6.73Z" fill="#95caa6"/><path d="M196.07,499.46c-5.1-18.81-7.83-38.6-7.83-59.02,0-68.05,30.23-129.03,77.99-170.26" fill="none" stroke="#d1d3d4" stroke-miterlimit="10" stroke-width="7"/><path d="M300.66,245.68c-11.75,17.65-24.3,42.33-28.84,62.1l-9.83-34.01-29.31-19.85c20.2,1.8,47.56-2.52,67.97-8.24Z" fill="#d1d3d4"/><path d="M577.88,593.37c-41.06,44.22-99.7,71.9-164.8,71.9-49.35,0-94.99-15.9-132.07-42.86" fill="none" stroke="#d1d3d4" stroke-miterlimit="10" stroke-width="7"/><path d="M249.31,594.48c19.86,7.43,46.75,14.05,67.03,13.97l-30.89,17.3-12.67,33.05c-2.84-20.08-13.26-45.74-23.47-64.32Z" fill="#d1d3d4"/><path d="M520.25,242.74c70.09,38.07,117.66,112.33,117.66,197.7,0,4.86-.15,9.68-.46,14.46" fill="none" stroke="#d1d3d4" stroke-miterlimit="10" stroke-width="7"/><path d="M630.83,496.63c-4.39-20.74-13.22-46.99-24.17-64.06l31.17,16.79,34.69-7.04c-15.43,13.17-31.49,35.73-41.69,54.31Z" fill="#d1d3d4"/><path d="M348.65,238.37v-50.26h12.05v50.26h-12.05ZM353.89,217.23v-10.27h24.24c1.72,0,3.1.43,4.14,1.29,1.04.86,1.55,2.16,1.55,3.88,0,1.63-.52,2.88-1.55,3.77-1.04.89-2.42,1.33-4.14,1.33h-24.24ZM358.18,198.46v-10.35h28.6v10.35h-28.6ZM358.18,238.37v-10.35h28.6v10.35h-28.6Z" fill="#d7433b"/><path d="M418.64,229.95c-1.13,2.96-2.82,5.25-5.06,6.87-2.24,1.63-4.89,2.44-7.95,2.44s-5.64-.78-8.06-2.33c-2.42-1.55-4.31-3.77-5.69-6.65-1.38-2.88-2.07-6.32-2.07-10.31s.69-7.37,2.07-10.27c1.38-2.91,3.3-5.16,5.76-6.76,2.46-1.6,5.3-2.4,8.5-2.4s5.68.73,7.72,2.18c2.04,1.45,3.44,3.49,4.18,6.1l-1.04,9.02c0-1.58-.32-2.96-.96-4.14s-1.5-2.11-2.59-2.77-2.37-1-3.84-1c-1.58,0-2.97.42-4.18,1.26-1.21.84-2.16,1.98-2.85,3.44-.69,1.45-1.03,3.19-1.03,5.21s.34,3.61,1.03,5.06c.69,1.45,1.63,2.58,2.81,3.36,1.18.79,2.59,1.18,4.21,1.18,2.22,0,4-.74,5.36-2.22,1.35-1.48,2.03-3.4,2.03-5.77l1.63,8.5ZM428.18,185.15v53.22h-11.16v-53.22h11.16Z" fill="#d7433b"/><path d="M442.3,196.98c-2.17,0-3.79-.53-4.88-1.59-1.08-1.06-1.63-2.45-1.63-4.18s.54-3.04,1.63-4.1c1.08-1.06,2.71-1.59,4.88-1.59s3.73.53,4.84,1.59c1.11,1.06,1.66,2.43,1.66,4.1s-.55,3.12-1.66,4.18c-1.11,1.06-2.72,1.59-4.84,1.59ZM436.75,238.37v-37.18c3.7.89,7.39.89,11.09,0v37.18h-11.09Z" fill="#d7433b"/><path d="M478.96,237.71c-1.18.44-2.46.81-3.84,1.11-1.38.3-2.81.44-4.29.44-3.89,0-6.85-1.11-8.87-3.33-2.02-2.22-3.03-5.32-3.03-9.31v-15.37h-1.55c-1.33,0-2.48-.41-3.44-1.22-.96-.81-1.44-1.98-1.44-3.51,0-1.33.37-2.45,1.11-3.36.74-.91,1.82-1.69,3.25-2.33l13.16-6.36v6.95h10.42v9.83h-10.42v13.38c0,1.82.39,3.1,1.18,3.84.79.74,1.9,1.11,3.33,1.11.74,0,1.48-.07,2.22-.22s1.48-.34,2.22-.59v8.94Z" fill="#d7433b"/><path d="M547.69,570.29c-3.99,0-7.63-.46-10.9-1.37-3.28-.91-6.07-2.06-8.39-3.44v-11.38c3.45,2.27,6.9,4,10.35,5.21,3.45,1.21,6.65,1.81,9.61,1.81,2.76,0,4.78-.47,6.06-1.4,1.28-.94,1.92-2.12,1.92-3.55,0-1.28-.51-2.32-1.52-3.1-1.01-.79-2.37-1.44-4.06-1.96-1.7-.52-3.55-1.02-5.54-1.51-2-.49-4-1.07-6.02-1.74-2.02-.67-3.87-1.55-5.54-2.66-1.68-1.11-3.03-2.54-4.07-4.29-1.03-1.75-1.55-3.95-1.55-6.62,0-3.15.81-5.94,2.44-8.35,1.63-2.41,4-4.3,7.13-5.65,3.13-1.36,6.91-2.03,11.35-2.03,3.4,0,6.41.4,9.02,1.18,2.61.79,4.78,1.9,6.5,3.33.98.79,1.75,1.63,2.29,2.51.54.89.81,1.9.81,3.03,0,1.48-.44,2.67-1.33,3.58s-2.12,1.37-3.7,1.37c-1.28,0-2.44-.3-3.47-.89-1.03-.59-2.06-1.28-3.07-2.07-1.01-.79-2.17-1.49-3.47-2.11-1.31-.62-2.9-.92-4.77-.92-2.37,0-4.15.49-5.36,1.48-1.21.99-1.81,2.19-1.81,3.62,0,1.28.52,2.32,1.55,3.1,1.04.79,2.39,1.45,4.07,2,1.67.54,3.51,1.06,5.51,1.55,2,.49,4,1.08,6.02,1.77,2.02.69,3.87,1.59,5.54,2.7,1.67,1.11,3.03,2.53,4.07,4.25,1.03,1.72,1.55,3.92,1.55,6.58,0,3.15-.79,5.94-2.37,8.35-1.58,2.42-3.93,4.29-7.06,5.62-3.13,1.33-7.06,2-11.79,2Z" fill="#ff8e5e"/><path d="M584.8,570.29c-3.7,0-6.6-.99-8.72-2.96-2.12-1.97-3.18-4.58-3.18-7.83,0-3.05.99-5.46,2.96-7.21,1.97-1.75,4.88-2.92,8.72-3.51l7.54-1.18c1.67-.3,2.8-.64,3.36-1.03.57-.39.85-1.01.85-1.85v7.32c-.3.25-.68.48-1.15.7-.47.22-1.22.46-2.25.7l-3.77.74c-1.33.25-2.4.68-3.21,1.29-.81.62-1.22,1.56-1.22,2.85s.41,2.28,1.22,2.99c.81.71,1.91,1.07,3.29,1.07s2.52-.32,3.58-.96c1.06-.64,1.91-1.55,2.55-2.74.64-1.18.96-2.54.96-4.07l1.33,6.95c-1.08,2.91-2.76,5.09-5.03,6.54-2.27,1.45-4.88,2.18-7.83,2.18ZM608.96,569.4h-11.24c-.35-.69-.6-1.7-.78-3.03-.17-1.33-.26-2.88-.26-4.66l-.37-2.14v-14.93c0-1.53-.48-2.59-1.44-3.18-.96-.59-2.28-.89-3.95-.89s-3.15.21-4.29.63c-1.13.42-2.12.91-2.96,1.48-.84.57-1.64,1.05-2.4,1.44-.76.39-1.66.59-2.7.59-1.43,0-2.56-.38-3.4-1.15-.84-.76-1.26-1.81-1.26-3.14,0-.93.22-1.83.67-2.7.44-.86,1.21-1.66,2.29-2.4,3.1-2.51,7.76-3.77,13.97-3.77,3.65,0,6.7.47,9.17,1.4,2.46.94,4.31,2.48,5.54,4.62,1.23,2.14,1.85,5.01,1.85,8.61v11.16c0,2.71.15,5.06.44,7.06.3,2,.67,3.66,1.11,4.99Z" fill="#ff8e5e"/><path d="M623.89,569.4l-14.63-36.96h12.64l11.75,36.96h-9.76ZM636.24,569.4h-8.94l11.16-36.96h12.42l-14.63,36.96Z" fill="#ff8e5e"/><path d="M671.2,570.29c-6.55,0-11.56-1.63-15-4.88s-5.17-7.83-5.17-13.75c0-4.09.81-7.64,2.44-10.64,1.63-3,3.93-5.33,6.91-6.99,2.98-1.65,6.47-2.48,10.46-2.48,3.6,0,6.63.6,9.09,1.81,2.46,1.21,4.34,2.8,5.62,4.77,1.28,1.97,1.92,4.12,1.92,6.43s-.55,4.07-1.66,5.54c-1.11,1.48-2.62,2.61-4.54,3.4-1.92.79-4.1,1.27-6.54,1.44-2.44.17-5.01.09-7.72-.26-2.71-.34-5.4-.91-8.06-1.7v-6.65c2.56.64,4.89,1.08,6.98,1.33,2.09.25,3.92.27,5.47.07,1.55-.2,2.75-.62,3.58-1.26.84-.64,1.26-1.5,1.26-2.59,0-1.18-.48-2.19-1.44-3.03s-2.33-1.26-4.1-1.26c-1.58,0-2.99.41-4.25,1.22-1.26.81-2.25,2.07-2.99,3.77s-1.11,3.88-1.11,6.54c0,2.46.37,4.51,1.11,6.13s1.87,2.82,3.4,3.58c1.53.76,3.57,1.15,6.14,1.15,2.32,0,4.57-.26,6.76-.78,2.19-.52,4.3-1.27,6.32-2.25v7.69c-1.77,1.03-3.93,1.9-6.47,2.59-2.54.69-5.33,1.03-8.39,1.03Z" fill="#ff8e5e"/><path d="M84.41,569.4v-50.26h12.05v50.26h-12.05ZM91.65,552.4v-10.27h14.12c3.35,0,5.79-.55,7.32-1.66,1.53-1.11,2.29-2.72,2.29-4.84s-.73-3.61-2.18-4.62c-1.45-1.01-3.93-1.51-7.43-1.51h-14.12v-10.35h15c7.14,0,12.5,1.43,16.08,4.29,3.57,2.86,5.36,6.8,5.36,11.83,0,3.45-.83,6.47-2.48,9.05-1.65,2.59-4.07,4.58-7.24,5.99-3.18,1.4-7.04,2.11-11.57,2.11h-15.15Z" fill="#f06a63"/><path d="M132.97,569.4v-36.96h11.09v36.96h-11.09ZM144.06,552.77l-1.18-11.9c.89-2.96,2.19-5.25,3.92-6.87,1.72-1.63,3.72-2.44,5.99-2.44,1.18,0,2.28.25,3.29.74,1.01.49,1.82,1.23,2.44,2.22.62.99.92,2.27.92,3.84,0,2.12-.52,3.67-1.55,4.66-1.03.99-2.29,1.48-3.77,1.48-.94,0-1.76-.13-2.48-.41-.71-.27-1.47-.41-2.25-.41-1.63,0-2.92.79-3.88,2.37s-1.44,3.82-1.44,6.73Z" fill="#f06a63"/><path d="M180.87,570.29c-6.55,0-11.56-1.63-15-4.88s-5.17-7.83-5.17-13.75c0-4.09.81-7.64,2.44-10.64,1.63-3,3.93-5.33,6.91-6.99,2.98-1.65,6.47-2.48,10.46-2.48,3.6,0,6.63.6,9.09,1.81,2.46,1.21,4.34,2.8,5.62,4.77,1.28,1.97,1.92,4.12,1.92,6.43s-.55,4.07-1.66,5.54c-1.11,1.48-2.62,2.61-4.54,3.4-1.92.79-4.1,1.27-6.54,1.44-2.44.17-5.01.09-7.72-.26-2.71-.34-5.4-.91-8.06-1.7v-6.65c2.56.64,4.89,1.08,6.98,1.33,2.09.25,3.92.27,5.47.07,1.55-.2,2.75-.62,3.58-1.26.84-.64,1.26-1.5,1.26-2.59,0-1.18-.48-2.19-1.44-3.03s-2.33-1.26-4.1-1.26c-1.58,0-2.99.41-4.25,1.22-1.26.81-2.25,2.07-2.99,3.77s-1.11,3.88-1.11,6.54c0,2.46.37,4.51,1.11,6.13s1.87,2.82,3.4,3.58c1.53.76,3.57,1.15,6.14,1.15,2.32,0,4.57-.26,6.76-.78,2.19-.52,4.3-1.27,6.32-2.25v7.69c-1.77,1.03-3.93,1.9-6.47,2.59-2.54.69-5.33,1.03-8.39,1.03Z" fill="#f06a63"/><path d="M212.57,569.4l-14.63-36.96h12.64l11.75,36.96h-9.76ZM224.92,569.4h-8.94l11.16-36.96h12.42l-14.63,36.96Z" fill="#f06a63"/><path d="M249.24,528.01c-2.17,0-3.79-.53-4.88-1.59-1.08-1.06-1.63-2.45-1.63-4.18s.54-3.04,1.63-4.1c1.08-1.06,2.71-1.59,4.88-1.59s3.73.53,4.84,1.59c1.11,1.06,1.66,2.43,1.66,4.1s-.55,3.12-1.66,4.18c-1.11,1.06-2.72,1.59-4.84,1.59ZM243.69,569.4v-37.18c3.7.89,7.39.89,11.09,0v37.18h-11.09Z" fill="#f06a63"/><path d="M280.5,570.29c-6.55,0-11.56-1.63-15-4.88s-5.17-7.83-5.17-13.75c0-4.09.81-7.64,2.44-10.64,1.63-3,3.93-5.33,6.91-6.99,2.98-1.65,6.47-2.48,10.46-2.48,3.6,0,6.63.6,9.09,1.81,2.46,1.21,4.34,2.8,5.62,4.77,1.28,1.97,1.92,4.12,1.92,6.43s-.55,4.07-1.66,5.54c-1.11,1.48-2.62,2.61-4.54,3.4-1.92.79-4.1,1.27-6.54,1.44-2.44.17-5.01.09-7.72-.26-2.71-.34-5.4-.91-8.06-1.7v-6.65c2.56.64,4.89,1.08,6.98,1.33,2.09.25,3.92.27,5.47.07,1.55-.2,2.75-.62,3.58-1.26.84-.64,1.26-1.5,1.26-2.59,0-1.18-.48-2.19-1.44-3.03s-2.33-1.26-4.1-1.26c-1.58,0-2.99.41-4.25,1.22-1.26.81-2.25,2.07-2.99,3.77s-1.11,3.88-1.11,6.54c0,2.46.37,4.51,1.11,6.13s1.87,2.82,3.4,3.58c1.53.76,3.57,1.15,6.14,1.15,2.32,0,4.57-.26,6.76-.78,2.19-.52,4.3-1.27,6.32-2.25v7.69c-1.77,1.03-3.93,1.9-6.47,2.59-2.54.69-5.33,1.03-8.39,1.03Z" fill="#f06a63"/><path d="M308.96,569.4l-10.57-36.96h12.05l7.02,36.96h-8.5ZM311.32,569.4l9.98-32c.59-2.02,1.42-3.5,2.48-4.43,1.06-.94,2.43-1.4,4.1-1.4s3.02.47,4.03,1.4c1.01.94,1.81,2.42,2.4,4.43l9.98,32h-9.46l-8.2-26.17h2.37l-8.2,26.17h-9.46ZM338.15,569.4l7.02-36.96h12.05l-10.57,36.96h-8.5Z" fill="#f06a63"/><path d="M1288.47,569.4v-50.26h12.05v50.26h-12.05ZM1295.71,552.4v-10.27h14.12c3.35,0,5.79-.55,7.32-1.66,1.53-1.11,2.29-2.72,2.29-4.84s-.73-3.61-2.18-4.62c-1.45-1.01-3.93-1.51-7.43-1.51h-14.12v-10.35h15c7.14,0,12.5,1.43,16.08,4.29,3.57,2.86,5.36,6.8,5.36,11.83,0,3.45-.83,6.47-2.48,9.05-1.65,2.59-4.07,4.58-7.24,5.99-3.18,1.4-7.04,2.11-11.57,2.11h-15.15Z" fill="#008d98"/><path d="M1354.47,570.29c-5.86,0-10.27-1.46-13.23-4.4-2.96-2.93-4.43-7.18-4.43-12.75v-20.7h11.09v20.62c0,2.46.58,4.3,1.74,5.51,1.16,1.21,2.77,1.81,4.84,1.81s3.82-.6,4.95-1.81c1.13-1.21,1.7-3.04,1.7-5.51v-20.62h11.09v20.7c0,5.57-1.48,9.82-4.43,12.75-2.96,2.93-7.39,4.4-13.3,4.4Z" fill="#008d98"/><path d="M1390.25,555.65l-11.09-3.77v-35.7h11.09v39.47ZM1397.79,570.29c-5.86,0-10.43-1.64-13.71-4.92-3.28-3.28-4.92-7.77-4.92-13.49l11.09.67c0,2.51.7,4.53,2.11,6.06s3.21,2.29,5.43,2.29c2.41,0,4.35-.9,5.8-2.7,1.45-1.8,2.18-4.2,2.18-7.21,0-1.97-.33-3.67-1-5.1-.67-1.43-1.61-2.54-2.85-3.33-1.23-.79-2.66-1.18-4.29-1.18-2.17,0-3.94.73-5.32,2.18-1.38,1.45-2.07,3.39-2.07,5.8l-1.55-8.5c1.13-3.01,2.82-5.31,5.06-6.91,2.24-1.6,4.87-2.4,7.87-2.4s5.7.76,8.09,2.29c2.39,1.53,4.29,3.71,5.69,6.54,1.4,2.83,2.11,6.17,2.11,10.01s-.76,7.33-2.29,10.31-3.76,5.32-6.69,7.02-6.52,2.55-10.75,2.55Z" fill="#008d98"/><path d="M1434.15,516.18v39.99c0,1.63.23,2.75.7,3.36.47.62,1.27.92,2.4.92.44,0,.9-.05,1.37-.15.47-.1.92-.2,1.37-.29v8.79c-2.02.99-4.24,1.48-6.65,1.48-3.75,0-6.39-1.07-7.95-3.21-1.55-2.14-2.33-5.06-2.33-8.76v-42.13h11.09Z" fill="#008d98"/><path d="M1450.78,528.01c-2.17,0-3.79-.53-4.88-1.59-1.08-1.06-1.63-2.45-1.63-4.18s.54-3.04,1.63-4.1c1.08-1.06,2.71-1.59,4.88-1.59s3.73.53,4.84,1.59c1.11,1.06,1.66,2.43,1.66,4.1s-.55,3.12-1.66,4.18c-1.11,1.06-2.72,1.59-4.84,1.59ZM1445.24,569.4v-37.18c3.7.89,7.39.89,11.09,0v37.18h-11.09Z" fill="#008d98"/><path d="M1477.39,570.29c-2.91,0-5.57-.31-7.98-.92-2.42-.62-4.66-1.42-6.73-2.4v-9.39c2.66,1.73,5.33,3.08,8.02,4.07,2.68.99,5.06,1.48,7.13,1.48,1.82,0,3.15-.32,3.99-.96.84-.64,1.26-1.43,1.26-2.37,0-.99-.49-1.77-1.48-2.37-.99-.59-2.24-1.1-3.77-1.52-1.53-.42-3.15-.87-4.88-1.37-1.72-.49-3.35-1.13-4.88-1.92-1.53-.79-2.78-1.87-3.77-3.25-.99-1.38-1.48-3.18-1.48-5.4,0-2.37.65-4.5,1.96-6.39,1.3-1.9,3.23-3.37,5.76-4.43,2.54-1.06,5.68-1.59,9.42-1.59,2.96,0,5.49.33,7.61,1,2.12.67,3.76,1.58,4.92,2.73,1.16,1.16,1.74,2.53,1.74,4.1,0,1.23-.36,2.19-1.07,2.88-.71.69-1.66,1.03-2.85,1.03-.94,0-1.79-.23-2.55-.7-.76-.47-1.53-1-2.29-1.59-.76-.59-1.63-1.12-2.59-1.59-.96-.47-2.11-.7-3.44-.7-1.63,0-2.83.34-3.62,1.03-.79.69-1.18,1.5-1.18,2.44,0,1.04.49,1.86,1.48,2.48.99.62,2.24,1.13,3.77,1.55,1.53.42,3.15.88,4.88,1.37,1.72.49,3.35,1.16,4.88,2,1.53.84,2.78,1.93,3.77,3.29.99,1.36,1.48,3.14,1.48,5.36,0,2.37-.67,4.46-2,6.28s-3.3,3.24-5.91,4.25c-2.61,1.01-5.82,1.51-9.61,1.51Z" fill="#008d98"/><path d="M1500.67,569.4v-53.22h11.09v53.22h-11.09ZM1525.36,569.4v-20.03c0-1.67-.27-3.05-.81-4.14-.54-1.08-1.29-1.88-2.25-2.4s-2.03-.78-3.21-.78c-1.28,0-2.48.28-3.58.85-1.11.57-2.01,1.43-2.7,2.59-.69,1.16-1.03,2.62-1.03,4.4l-1.55-9.02c.79-2.12,1.82-3.87,3.1-5.25,1.28-1.38,2.76-2.4,4.43-3.07,1.67-.67,3.45-1,5.32-1,2.41,0,4.64.53,6.69,1.59,2.04,1.06,3.68,2.76,4.92,5.1,1.23,2.34,1.85,5.43,1.85,9.28v21.88h-11.16Z" fill="#008d98"/><line x1="1117.93" y1="548" x2="1214.41" y2="548" fill="none" stroke="#d1d3d4" stroke-miterlimit="10" stroke-width="7"/><path d="M1256.65,548c-19.88,7.38-44.54,19.96-59.83,33.29l12.04-33.29-12.04-33.28c15.29,13.33,39.95,25.92,59.83,33.28Z" fill="#d1d3d4"/></g></svg>