<?xml version="1.0" encoding="UTF-8"?><svg id="b" xmlns="http://www.w3.org/2000/svg" xmlns:xlink="http://www.w3.org/1999/xlink" viewBox="0 0 628.77 353.68"><defs><linearGradient id="d" x1="488.53" y1="69.82" x2="533.64" y2="69.82" gradientUnits="userSpaceOnUse"><stop offset="0" stop-color="#5b9ed1"/><stop offset="1" stop-color="#306a98"/></linearGradient><linearGradient id="g" x1="422.72" y1="69.82" x2="467.84" y2="69.82" gradientUnits="userSpaceOnUse"><stop offset="0" stop-color="#326db4"/><stop offset="1" stop-color="#1a5da9"/></linearGradient></defs><g id="c"><rect width="628.77" height="353.68" fill="none"/><path d="M96.64,108.49v-9.52h1.75v9.52h-1.75Z" fill="#231f20"/><path d="M100.45,108.49v-7h1.62v7h-1.62ZM105.04,108.49v-3.99c0-.6-.13-1.02-.38-1.27s-.57-.38-.94-.38c-.28,0-.54.07-.79.2-.25.13-.45.33-.61.59-.16.26-.24.59-.24.99l-.31-1.47c.15-.43.35-.78.62-1.04.26-.27.55-.46.88-.59.33-.13.67-.2,1.02-.2.45,0,.85.1,1.22.3.36.2.65.51.85.92.21.42.31.94.31,1.58v4.37h-1.62ZM109.65,108.49v-3.99c0-.6-.13-1.02-.39-1.27-.26-.25-.58-.38-.95-.38-.27,0-.53.07-.78.2-.25.13-.46.33-.62.59-.16.26-.24.59-.24.99l-.55-1.47c.18-.43.42-.78.71-1.04.3-.27.63-.46.98-.59s.71-.2,1.05-.2c.45,0,.85.1,1.22.31.36.21.65.52.87.95s.32.97.32,1.65v4.27h-1.62Z" fill="#231f20"/><path d="M114.76,108.66c-.67,0-1.21-.18-1.61-.54s-.6-.85-.6-1.48c0-.56.18-1,.54-1.33.36-.33.89-.56,1.6-.69l1.34-.24c.39-.08.65-.16.77-.25.12-.09.18-.23.18-.42v1.27c-.06.06-.14.11-.26.17-.12.06-.3.11-.54.17l-.87.18c-.31.06-.56.16-.76.31-.2.15-.29.38-.29.69s.1.54.29.71c.2.17.45.26.77.26.3,0,.57-.07.83-.21.25-.14.45-.34.6-.61.15-.27.22-.58.22-.93l.25,1.22c-.21.59-.53,1.02-.97,1.3s-.95.42-1.5.42ZM118.93,108.49h-1.64c-.07-.14-.12-.34-.15-.6-.04-.26-.06-.55-.07-.87l-.08-.36v-2.98c0-.38-.11-.65-.34-.79-.23-.14-.53-.22-.92-.22-.35,0-.64.04-.87.13-.22.09-.41.19-.56.32s-.29.22-.41.31-.27.13-.44.13c-.21,0-.37-.06-.5-.17-.13-.11-.19-.27-.19-.46,0-.14.04-.28.1-.43.07-.14.19-.29.37-.43.55-.5,1.38-.74,2.49-.74.61,0,1.12.08,1.55.24.43.16.76.42.99.8s.35.87.35,1.5v2.49c0,.47.03.88.08,1.25.06.36.13.66.22.9Z" fill="#231f20"/><path d="M123.48,111.46c-.62,0-1.16-.05-1.59-.14-.43-.09-.77-.22-1.01-.38-.17-.09-.3-.2-.39-.32s-.13-.26-.13-.41c0-.18.06-.32.17-.42s.27-.15.46-.15c.16,0,.32.03.47.09.15.06.32.13.51.22.19.08.42.16.69.22s.62.09,1.03.09c.57,0,1.03-.08,1.37-.25.34-.16.52-.42.52-.76,0-.22-.09-.41-.27-.55-.18-.14-.53-.21-1.04-.21h-1.95c-.52,0-.94-.07-1.26-.2-.32-.13-.55-.31-.69-.52-.14-.22-.21-.47-.21-.75,0-.44.15-.8.45-1.07s.72-.44,1.26-.5l1.48.41c-.46,0-.81.03-1.05.1-.24.07-.41.15-.5.26-.09.11-.14.22-.14.34,0,.17.08.29.22.36.15.08.4.11.74.11h1.92c.83,0,1.48.16,1.95.48.47.32.7.84.7,1.55,0,.78-.3,1.38-.9,1.79-.6.41-1.54.61-2.81.61ZM123.35,105.86c-.93,0-1.68-.19-2.23-.57-.55-.38-.83-.93-.83-1.66,0-.49.13-.91.4-1.26.27-.34.64-.61,1.13-.78.49-.18,1.05-.27,1.71-.27l1.88.66c.23.1.43.24.6.41.16.17.29.36.38.58.09.22.13.46.13.72,0,.46-.12.85-.37,1.18-.25.33-.61.57-1.08.74s-1.04.25-1.71.25ZM123.42,104.84c.45,0,.81-.11,1.08-.33.27-.22.41-.53.41-.94s-.13-.71-.4-.92-.62-.32-1.06-.32-.8.11-1.07.33c-.28.22-.41.53-.41.95s.13.71.4.92c.27.21.61.31,1.04.31ZM127.47,102.88c-.39,0-.75-.02-1.08-.06-.33-.04-.7-.08-1.12-.14l-1.74-1.36c.67,0,1.33.03,1.97.08.64.06,1.3.08,1.96.08v1.39Z" fill="#231f20"/><path d="M131.71,108.66c-1.18,0-2.08-.31-2.72-.93-.64-.62-.95-1.49-.95-2.6,0-.77.15-1.45.45-2.02s.72-1.01,1.27-1.32c.55-.31,1.17-.47,1.88-.47.62,0,1.14.11,1.58.32s.77.5,1,.85c.23.36.34.74.34,1.16s-.1.75-.31,1.02-.49.48-.84.63c-.36.15-.76.24-1.23.28-.46.04-.95.03-1.48-.03s-1.05-.16-1.57-.3v-1.04c.5.13.98.22,1.43.26.45.04.85.04,1.2,0,.36-.05.63-.14.83-.29.2-.14.3-.35.3-.62s-.11-.51-.34-.71c-.22-.21-.54-.31-.95-.31-.37,0-.71.1-.99.29-.29.19-.52.47-.69.84-.17.37-.25.83-.25,1.38,0,.51.08.95.25,1.29.16.35.41.61.74.78.33.17.75.26,1.26.26.41,0,.82-.05,1.22-.15.41-.1.8-.25,1.18-.44v1.19c-.31.19-.68.35-1.13.48-.44.13-.95.2-1.5.2Z" fill="#231f20"/><path d="M138.32,108.66c-.54,0-1.03-.06-1.48-.19-.44-.13-.83-.29-1.15-.48v-1.41c.46.31.92.55,1.39.72.47.17.91.26,1.32.26.44,0,.76-.08.96-.25.2-.17.3-.37.3-.6s-.1-.42-.29-.56c-.19-.14-.44-.25-.74-.34-.3-.09-.61-.18-.94-.28-.33-.1-.65-.22-.95-.36s-.54-.35-.73-.6c-.19-.26-.28-.59-.28-1s.11-.8.33-1.13c.22-.34.55-.6.98-.8.43-.2.97-.29,1.62-.29.51,0,.96.06,1.34.19.38.13.67.29.88.5s.31.45.31.72c0,.19-.05.33-.15.44-.1.11-.24.16-.42.16s-.31-.05-.43-.14c-.12-.09-.25-.2-.38-.32-.13-.12-.29-.22-.48-.31-.19-.09-.43-.14-.73-.14-.4,0-.7.09-.88.27s-.28.38-.28.6.1.42.29.56c.19.14.43.25.73.34s.61.18.94.28c.34.1.65.22.95.38s.54.36.73.62c.19.26.29.59.29,1.01s-.11.78-.34,1.11c-.22.33-.56.59-1,.78s-1.01.28-1.69.28Z" fill="#231f20"/><circle cx="118.66" cy="69.05" r="22.56" fill="#008d98"/><path d="M110.15,60.05c0-1.71,1.39-3.09,3.09-3.09h15.47c1.71,0,3.09,1.39,3.09,3.09v12.37c0,1.71-1.39,3.09-3.09,3.09h-15.47c-1.71,0-3.09-1.39-3.09-3.09v-12.37ZM106.67,61.6c.64,0,1.16.52,1.16,1.16v14.31c0,.43.35.77.77.77h17.4c.64,0,1.16.52,1.16,1.16s-.52,1.16-1.16,1.16h-17.4c-1.71,0-3.09-1.39-3.09-3.09v-14.31c0-.64.52-1.16,1.16-1.16ZM114.79,63.14c.86,0,1.55-.69,1.55-1.55s-.69-1.55-1.55-1.55-1.55.69-1.55,1.55.69,1.55,1.55,1.55ZM124.29,63.7c-.21-.34-.58-.56-.99-.56s-.78.21-.99.56l-2.72,4.45-1.18-1.48c-.22-.28-.55-.44-.9-.44s-.69.16-.9.44l-3.09,3.87c-.28.35-.33.83-.14,1.23.19.4.6.66,1.04.66h13.15c.42,0,.81-.23,1.01-.59.2-.37.2-.81-.02-1.17l-4.25-6.96h0Z" fill="#fff"/><path d="M39.35,100.53v-1.55h8.51v1.55h-8.51ZM42.73,108.49v-9.52h1.76v9.52h-1.76Z" fill="#231f20"/><path d="M50.62,108.66c-1.18,0-2.08-.31-2.72-.93-.63-.62-.95-1.49-.95-2.6,0-.77.15-1.45.45-2.02s.72-1.01,1.27-1.32c.55-.31,1.17-.47,1.88-.47.62,0,1.14.11,1.58.32.44.21.77.5,1,.85.23.36.34.74.34,1.16s-.1.75-.31,1.02-.49.48-.84.63-.76.24-1.22.28c-.46.04-.95.03-1.48-.03-.52-.06-1.04-.16-1.57-.3v-1.04c.5.13.98.22,1.43.26s.85.04,1.2,0,.63-.14.83-.29c.2-.14.3-.35.3-.62s-.11-.51-.34-.71c-.22-.21-.54-.31-.95-.31-.37,0-.71.1-.99.29s-.52.47-.69.84c-.17.37-.25.83-.25,1.38,0,.51.08.95.25,1.29.16.35.41.61.73.78.33.17.75.26,1.26.26.41,0,.82-.05,1.22-.15s.8-.25,1.18-.44v1.19c-.31.19-.68.35-1.13.48-.44.13-.94.2-1.5.2Z" fill="#231f20"/><path d="M54.08,101.49h1.81l1.89,2.86h-.53l1.88-2.86h1.78l-2.67,4.06v-1.06s2.66,4,2.66,4h-1.79l-1.85-2.79h.46l-1.85,2.79h-1.76l2.63-3.99.04,1.04-2.69-4.05Z" fill="#231f20"/><path d="M66.12,108.37c-.21.09-.44.17-.67.22-.23.05-.49.08-.76.08-.65,0-1.16-.19-1.51-.57s-.53-.94-.53-1.69v-3.47h-.45c-.21,0-.39-.06-.53-.18-.13-.12-.2-.29-.2-.5,0-.19.06-.35.17-.49.11-.14.28-.27.49-.38l2.14-1.15v1.26h2.13v1.44h-2.13v3.22c0,.39.08.67.23.83s.38.25.68.25c.16,0,.31-.02.46-.06.15-.04.31-.08.48-.14v1.33Z" fill="#231f20"/><circle cx="52.86" cy="69.05" r="22.56" fill="#d7433b"/><path d="M65.96,59.62h-26.21c-1.22,0-2.21.99-2.21,2.21v14.43c0,1.22.99,2.21,2.21,2.21h26.22c1.22,0,2.21-.99,2.21-2.21v-14.44c0-1.22-.99-2.21-2.21-2.21ZM53.74,74.06h-2.94v-5.74l-2.94,3.68-2.94-3.68v5.74h-2.95v-10.01h2.94l2.94,3.68,2.94-3.68h2.94v10.01h0ZM60.22,74.21l-4.42-5.16h2.94v-5.01h2.94v5.01h2.94l-4.41,5.16Z" fill="#fff"/><path d="M170.58,108.49v-9.52h1.75v9.52h-1.75ZM171.21,100.48v-1.51h6.34v1.51h-6.34ZM171.41,104.33v-1.51h4.79c.25,0,.46.06.61.19.15.13.23.32.23.57s-.08.43-.23.56c-.15.13-.36.2-.61.2h-4.79Z" fill="#231f20"/><path d="M179.65,100.41c-.33,0-.57-.08-.74-.25s-.25-.39-.25-.66.08-.48.25-.64.42-.25.74-.25.59.08.76.25.25.38.25.64-.08.49-.25.66-.42.25-.76.25ZM178.84,108.49v-7.03c.54.12,1.08.12,1.62,0v7.03h-1.62Z" fill="#231f20"/><path d="M183.94,98.41v7.91c0,.34.05.57.15.69s.26.19.5.19c.09,0,.19,0,.28-.03.09-.02.19-.04.29-.07v1.3c-.34.17-.71.25-1.11.25-.63,0-1.08-.19-1.34-.56-.26-.37-.39-.87-.39-1.48v-8.2h1.62Z" fill="#231f20"/><path d="M189.38,108.66c-1.18,0-2.08-.31-2.71-.93-.64-.62-.95-1.49-.95-2.6,0-.77.15-1.45.45-2.02s.72-1.01,1.27-1.32c.55-.31,1.17-.47,1.88-.47.62,0,1.14.11,1.58.32s.77.5,1,.85c.23.36.34.74.34,1.16s-.1.75-.31,1.02-.49.48-.84.63c-.36.15-.76.24-1.23.28-.46.04-.95.03-1.48-.03-.52-.06-1.04-.16-1.57-.3v-1.04c.5.13.98.22,1.43.26.45.04.85.04,1.2,0,.36-.05.63-.14.83-.29s.3-.35.3-.62-.11-.51-.34-.71c-.22-.21-.54-.31-.95-.31-.37,0-.71.1-.99.29s-.52.47-.69.84c-.17.37-.25.83-.25,1.38,0,.51.08.95.25,1.29.16.35.41.61.74.78.33.17.75.26,1.26.26.41,0,.82-.05,1.22-.15s.8-.25,1.18-.44v1.19c-.31.19-.68.35-1.13.48-.44.13-.95.2-1.51.2Z" fill="#231f20"/><path d="M195.99,108.66c-.54,0-1.03-.06-1.48-.19-.44-.13-.83-.29-1.15-.48v-1.41c.46.31.92.55,1.38.72.47.17.91.26,1.32.26.44,0,.76-.08.96-.25s.3-.37.3-.6-.1-.42-.29-.56c-.19-.14-.44-.25-.73-.34-.3-.09-.61-.18-.95-.28-.33-.1-.65-.22-.95-.36s-.54-.35-.73-.6c-.19-.26-.28-.59-.28-1s.11-.8.33-1.13c.22-.34.54-.6.98-.8s.97-.29,1.62-.29c.51,0,.96.06,1.34.19.38.13.67.29.88.5s.31.45.31.72c0,.19-.05.33-.15.44-.1.11-.24.16-.42.16s-.31-.05-.43-.14c-.12-.09-.25-.2-.38-.32-.13-.12-.29-.22-.48-.31-.19-.09-.43-.14-.73-.14-.4,0-.7.09-.88.27-.19.18-.28.38-.28.6s.1.42.29.56c.19.14.43.25.73.34.29.09.61.18.95.28.34.1.65.22.95.38s.54.36.73.62c.19.26.29.59.29,1.01s-.11.78-.34,1.11-.56.59-1,.78-1.01.28-1.69.28Z" fill="#231f20"/><circle cx="184.47" cy="69.05" r="22.56" fill="#ff8e5e"/><path d="M177.79,55.69c-1.84,0-3.34,1.5-3.34,3.34v20.04c0,1.84,1.5,3.34,3.34,3.34h13.36c1.84,0,3.34-1.5,3.34-3.34v-14.49c0-.89-.35-1.74-.98-2.36l-5.56-5.56c-.63-.63-1.47-.98-2.36-.98h-7.8ZM191.44,64.87h-4.88c-.69,0-1.25-.56-1.25-1.25v-4.88l6.13,6.13Z" fill="#fff"/><rect x="12.72" y="9.46" width="213.07" height="107.8" fill="none" stroke="#d0d2d3" stroke-width="4.13"/><rect x="11.54" y="9.03" width="214.25" height="27.68" fill="#d0d2d3"/><path d="M90.53,27.44c-1.43,0-2.63-.26-3.61-.77-.98-.52-1.71-1.24-2.21-2.16-.49-.92-.74-2-.74-3.22s.24-2.31.72-3.29c.48-.98,1.2-1.77,2.15-2.35.95-.58,2.13-.87,3.52-.87.88,0,1.69.12,2.45.37s1.34.61,1.76,1.09c.19.22.34.45.43.69.1.25.14.51.14.8,0,.52-.15.92-.45,1.21-.3.29-.69.43-1.17.43-.35,0-.64-.07-.88-.21-.24-.14-.47-.29-.68-.47-.22-.17-.46-.33-.73-.47s-.61-.21-1.02-.21c-.53,0-.98.13-1.35.4-.37.26-.65.62-.84,1.07s-.28.96-.28,1.54c0,.67.13,1.25.4,1.73.26.48.65.84,1.16,1.09.51.25,1.14.37,1.9.37.56,0,1.13-.07,1.71-.21.58-.14,1.18-.32,1.82-.55v3.01c-.54.28-1.15.51-1.83.7-.68.19-1.47.29-2.39.29Z" fill="#fff"/><path d="M95.87,22.76c0-.96.2-1.79.6-2.5.4-.71.98-1.26,1.73-1.66.75-.4,1.65-.59,2.69-.59s1.9.19,2.65.57,1.33.92,1.75,1.61c.42.7.63,1.54.63,2.52s-.2,1.76-.59,2.47c-.4.71-.97,1.27-1.72,1.67-.75.4-1.65.59-2.71.59-1,0-1.87-.19-2.63-.57s-1.34-.92-1.76-1.62-.63-1.53-.63-2.49ZM99.38,22.74c0,.38.06.71.19.99.12.28.3.49.53.63.23.14.48.22.76.22.3,0,.56-.07.79-.22.23-.15.41-.36.55-.64.14-.28.21-.62.21-1.03,0-.38-.06-.71-.19-.98-.13-.27-.3-.48-.53-.62-.23-.14-.49-.22-.77-.22s-.55.07-.78.22c-.23.15-.42.36-.55.64-.13.28-.2.61-.2,1.01Z" fill="#fff"/><path d="M107.32,27.22v-9h3.33v9h-3.33ZM113.22,27.22v-4.64c0-.32-.05-.59-.15-.8-.1-.21-.24-.37-.41-.48-.17-.11-.38-.16-.62-.16s-.48.06-.69.18c-.21.12-.38.29-.5.51-.13.22-.19.51-.19.85l-.38-2.48c.18-.49.41-.9.69-1.22s.62-.57,1.01-.73.83-.24,1.31-.24c.59,0,1.13.13,1.63.39s.9.68,1.2,1.26c.3.58.45,1.35.45,2.31v5.26h-3.33Z" fill="#fff"/><path d="M124.44,27.04c-.31.12-.65.22-1.02.29-.37.07-.74.11-1.12.11-1.04,0-1.83-.29-2.37-.88-.54-.59-.8-1.39-.8-2.39v-3.01h-.2c-.36,0-.69-.12-.98-.36-.29-.24-.44-.6-.44-1.08,0-.38.11-.71.33-.98.22-.27.54-.5.94-.67l3.67-1.6v1.76h2.34v2.93h-2.34v2.38c0,.4.09.67.28.82.19.15.43.22.73.22.16,0,.31-.01.48-.04.16-.03.33-.07.49-.12v2.63Z" fill="#fff"/><path d="M130.85,27.44c-1.67,0-2.94-.4-3.81-1.19-.87-.79-1.3-1.91-1.3-3.35,0-1.01.2-1.88.61-2.61.41-.73.99-1.3,1.74-1.69.75-.4,1.64-.59,2.67-.59.96,0,1.76.15,2.4.46.64.31,1.12.71,1.45,1.22.32.51.49,1.06.49,1.65s-.14,1.03-.41,1.4c-.28.37-.65.65-1.13.84-.48.19-1.02.3-1.61.33-.59.04-1.21,0-1.86-.08-.65-.09-1.28-.23-1.91-.42v-1.94c.6.17,1.12.28,1.57.34.44.06.82.07,1.12.04.3-.04.53-.11.68-.23.15-.12.22-.28.22-.47,0-.22-.09-.4-.27-.56-.18-.16-.43-.23-.76-.23s-.59.08-.83.23c-.24.16-.43.41-.57.76-.14.35-.21.83-.21,1.43,0,.54.07.98.22,1.31.14.34.38.58.72.73.34.15.8.23,1.39.23s1.16-.06,1.71-.18c.55-.12,1.07-.3,1.55-.54v2.21c-.46.28-1.02.49-1.69.66s-1.39.24-2.16.24Z" fill="#fff"/><path d="M136.61,27.22v-9h3.33v9h-3.33ZM142.51,27.22v-4.64c0-.32-.05-.59-.15-.8s-.24-.37-.41-.48c-.17-.11-.38-.16-.62-.16s-.48.06-.69.18c-.21.12-.38.29-.5.51-.12.22-.19.51-.19.85l-.38-2.48c.18-.49.41-.9.69-1.22.28-.32.62-.57,1.01-.73.39-.16.82-.24,1.3-.24.59,0,1.13.13,1.63.39s.9.68,1.2,1.26c.3.58.45,1.35.45,2.31v5.26h-3.33Z" fill="#fff"/><path d="M153.72,27.04c-.31.12-.65.22-1.02.29-.37.07-.74.11-1.12.11-1.04,0-1.83-.29-2.37-.88-.53-.59-.8-1.39-.8-2.39v-3.01h-.2c-.36,0-.69-.12-.98-.36s-.44-.6-.44-1.08c0-.38.11-.71.33-.98.22-.27.54-.5.95-.67l3.67-1.6v1.76h2.34v2.93h-2.34v2.38c0,.4.09.67.28.82.19.15.43.22.73.22.16,0,.32-.01.48-.04.16-.03.33-.07.5-.12v2.63Z" fill="#fff"/><path d="M329,108.74v-9.52h1.75v9.52h-1.75ZM329.63,104.41v-1.55h6.62v1.55h-6.62ZM335.38,108.74v-9.52h1.76v9.52h-1.76Z" fill="#231f20"/><path d="M338.33,100.77v-1.55h8.51v1.55h-8.51ZM341.71,108.74v-9.52h1.76v9.52h-1.76Z" fill="#231f20"/><path d="M355.76,99.86c.22-.29.43-.5.62-.62s.4-.19.64-.19c.34,0,.61.12.8.36s.29.59.29,1.04v8.29h-1.67v-7.7h.46s-3.89,5.6-3.89,5.6l-3.88-5.59h.46s0,7.69,0,7.69h-1.67v-8.29c0-.46.1-.8.29-1.04s.47-.36.83-.36c.25,0,.47.06.65.19.18.13.39.33.61.62l3.05,4.38h-.67l3.07-4.38Z" fill="#231f20"/><path d="M360.41,108.74v-9.52h1.75v9.52h-1.75ZM361.08,108.74v-1.55h6.34v1.55h-6.34Z" fill="#231f20"/><circle cx="347.78" cy="69.3" r="22.56" fill="#95caa6"/><path d="M337.75,59.27c0-1.84,1.5-3.34,3.34-3.34h7.8c.89,0,1.74.35,2.36.98l5.56,5.56c.63.63.98,1.48.98,2.36v14.48c0,1.84-1.5,3.34-3.34,3.34h-13.36c-1.84,0-3.34-1.5-3.34-3.34v-20.04ZM348.61,58.99v4.88c0,.69.56,1.25,1.25,1.25h4.88l-6.13-6.13ZM345.8,71.36c.45-.53.39-1.32-.14-1.76-.53-.45-1.32-.39-1.76.14l-2.51,2.92c-.4.47-.4,1.16,0,1.63l2.51,2.92c.45.53,1.24.58,1.76.14.52-.45.58-1.24.14-1.76l-1.81-2.11,1.81-2.11ZM351.65,69.73c-.45-.53-1.24-.58-1.76-.14-.52.45-.58,1.24-.14,1.76l1.81,2.11-1.81,2.11c-.45.53-.39,1.32.14,1.76.53.45,1.32.39,1.76-.14l2.51-2.92c.4-.47.4-1.16,0-1.63l-2.51-2.92Z" fill="#fff"/><path d="M274.29,108.73c-1.05,0-1.95-.2-2.69-.59s-1.29-.96-1.67-1.68c-.38-.72-.57-1.57-.57-2.53s.19-1.82.56-2.58c.37-.76.92-1.36,1.65-1.81.72-.44,1.6-.67,2.64-.67.71,0,1.32.1,1.84.3.52.2.92.46,1.21.76.14.14.25.28.32.43.07.15.1.3.1.47,0,.25-.07.45-.21.59-.14.14-.33.21-.56.21-.2,0-.37-.06-.53-.19-.16-.13-.33-.27-.5-.42-.18-.15-.4-.29-.67-.41-.27-.12-.62-.18-1.06-.18-.63,0-1.17.14-1.61.43-.44.29-.77.69-.99,1.2-.22.51-.34,1.09-.34,1.74s.12,1.26.38,1.77c.25.51.63.9,1.12,1.18.49.28,1.11.42,1.85.42.5,0,.99-.07,1.47-.2s.95-.31,1.41-.53v1.5c-.37.21-.82.4-1.34.55-.52.15-1.12.23-1.81.23Z" fill="#231f20"/><path d="M282.38,108.73c-.71,0-1.36-.08-1.95-.25-.59-.16-1.1-.38-1.53-.65v-1.64c.62.39,1.22.69,1.83.88.6.2,1.18.29,1.73.29.68,0,1.18-.12,1.49-.37.31-.25.47-.55.47-.9,0-.3-.1-.54-.3-.72-.2-.18-.47-.33-.8-.45-.33-.12-.7-.22-1.09-.32s-.79-.21-1.19-.34-.76-.29-1.08-.49c-.33-.2-.59-.46-.8-.78-.21-.32-.31-.73-.31-1.22,0-.57.14-1.07.43-1.5.29-.43.71-.77,1.27-1.02.56-.25,1.24-.37,2.03-.37.65,0,1.22.08,1.69.24.47.16.86.37,1.15.64.16.13.28.27.36.41s.13.31.13.5c0,.21-.06.39-.19.53-.12.14-.3.21-.54.21-.21,0-.39-.06-.55-.17-.16-.12-.33-.25-.51-.41-.18-.16-.4-.3-.66-.42-.26-.12-.6-.18-1.02-.18-.58,0-1.02.13-1.33.38s-.46.56-.46.92c0,.3.1.54.31.71.21.18.47.32.8.44.33.12.69.22,1.09.32.4.1.79.21,1.19.34.4.13.76.29,1.09.5.33.21.6.47.8.8.2.33.3.74.3,1.23,0,.58-.15,1.08-.43,1.52-.29.43-.72.77-1.29,1-.57.23-1.27.35-2.11.35Z" fill="#231f20"/><path d="M290.9,108.73c-.71,0-1.36-.08-1.95-.25s-1.1-.38-1.53-.65v-1.64c.62.39,1.22.69,1.83.88.6.2,1.18.29,1.73.29.68,0,1.18-.12,1.49-.37.31-.25.47-.55.47-.9,0-.3-.1-.54-.3-.72-.2-.18-.47-.33-.8-.45-.33-.12-.7-.22-1.09-.32s-.79-.21-1.19-.34-.76-.29-1.08-.49c-.33-.2-.59-.46-.8-.78-.21-.32-.31-.73-.31-1.22,0-.57.14-1.07.43-1.5.29-.43.71-.77,1.27-1.02.56-.25,1.24-.37,2.03-.37.65,0,1.22.08,1.69.24.47.16.86.37,1.16.64.16.13.28.27.36.41s.12.31.12.5c0,.21-.06.39-.19.53-.13.14-.31.21-.54.21-.21,0-.39-.06-.55-.17-.16-.12-.33-.25-.51-.41-.18-.16-.4-.3-.66-.42s-.6-.18-1.02-.18c-.58,0-1.02.13-1.33.38-.31.25-.46.56-.46.92,0,.3.1.54.31.71.21.18.47.32.8.44.33.12.69.22,1.08.32.4.1.79.21,1.19.34.4.13.76.29,1.09.5.33.21.6.47.8.8.2.33.3.74.3,1.23,0,.58-.14,1.08-.43,1.52-.29.43-.72.77-1.29,1-.57.23-1.27.35-2.11.35Z" fill="#231f20"/><circle cx="281.97" cy="69.3" r="22.56" fill="#ffcc3d"/><path d="M275.88,64.58c0,.58-.03,1.18-.09,1.83s-.22,1.24-.48,1.79c-.26.55-.68,1-1.25,1.34-.58.35-1.38.52-2.43.52v-.52c1.05,0,1.85.17,2.43.52.57.35.99.8,1.25,1.34.26.55.42,1.15.48,1.79s.09,1.25.09,1.83v2.35c0,.33.11.63.34.9.23.27.53.41.91.41h.91v3.92h-2.87c-.91,0-1.74-.13-2.51-.38-.77-.25-1.38-.65-1.84-1.19-.46-.54-.69-1.24-.69-2.09v-4.44c0-.99-.13-1.69-.39-2.09-.26-.4-.72-.66-1.38-.78v-3.66c.66-.14,1.12-.41,1.38-.8s.39-1.08.39-2.08v-4.44c0-.87.23-1.57.69-2.1.46-.53,1.08-.92,1.84-1.18.77-.25,1.6-.38,2.51-.38h2.87v3.92h-.91c-.38,0-.69.13-.91.39-.23.26-.34.57-.34.91v2.35Z" fill="#fff"/><path d="M288.06,75.03c0-.58.03-1.18.09-1.83s.22-1.24.48-1.79c.26-.55.68-1,1.25-1.34.57-.35,1.38-.52,2.43-.52v.52c-1.04,0-1.85-.17-2.43-.52-.58-.35-.99-.8-1.25-1.34-.26-.55-.42-1.15-.48-1.79s-.09-1.25-.09-1.83v-2.35c0-.35-.11-.65-.33-.91-.22-.26-.53-.39-.93-.39h-.91v-3.92h2.87c.91,0,1.74.13,2.51.38.77.25,1.38.64,1.84,1.18s.69,1.23.69,2.1v4.44c0,.99.13,1.69.41,2.08.27.39.73.66,1.37.8v3.66c-.64.12-1.1.38-1.37.78-.27.4-.41,1.1-.41,2.09v4.44c0,.85-.23,1.55-.69,2.09-.46.54-1.08.94-1.84,1.19-.77.25-1.6.38-2.51.38h-2.87v-3.92h.91c.4,0,.71-.14.93-.41.22-.27.33-.57.33-.9v-2.35Z" fill="#fff"/><rect x="243.25" y="9.46" width="144.04" height="107.8" fill="none" stroke="#d0d2d3" stroke-width="4.13"/><rect x="242.45" y="9.03" width="144.84" height="27.68" fill="#d0d2d3"/><path d="M297.45,27.44c-1.03,0-1.96-.11-2.79-.34s-1.54-.52-2.12-.86v-3.42c.91.61,1.82,1.09,2.72,1.42.9.34,1.72.5,2.45.5.46,0,.8-.07,1.03-.21.23-.14.34-.33.34-.57s-.12-.45-.36-.6c-.24-.15-.55-.28-.95-.38-.39-.1-.82-.21-1.3-.32-.47-.11-.95-.25-1.42-.41-.47-.16-.91-.38-1.3-.67-.39-.28-.71-.64-.95-1.07-.24-.43-.36-.98-.36-1.64,0-.82.21-1.53.63-2.15s1.03-1.1,1.84-1.44c.8-.34,1.78-.51,2.92-.51.82,0,1.56.09,2.22.27.67.18,1.23.44,1.68.79.28.2.49.43.65.67s.23.54.23.87c0,.42-.13.77-.4,1.04s-.64.41-1.13.41c-.36,0-.68-.07-.97-.21-.29-.14-.56-.3-.83-.5-.26-.19-.55-.36-.85-.5-.3-.14-.64-.21-1.03-.21s-.67.08-.87.23c-.2.16-.3.35-.3.58,0,.25.12.45.36.6.24.15.56.28.95.4.39.11.82.23,1.3.35s.95.26,1.42.43.91.39,1.3.67c.39.28.71.63.95,1.05.24.43.36.96.36,1.59,0,.8-.2,1.51-.59,2.13-.4.62-.99,1.1-1.79,1.45-.8.35-1.81.52-3.03.52Z" fill="#fff"/><path d="M310.28,27.04c-.31.12-.65.22-1.02.29-.37.07-.74.11-1.12.11-1.04,0-1.83-.29-2.37-.88-.53-.59-.8-1.39-.8-2.39v-3.01h-.2c-.36,0-.69-.12-.98-.36s-.44-.6-.44-1.08c0-.38.11-.71.33-.98.22-.27.54-.5.95-.67l3.67-1.6v1.76h2.34v2.93h-2.34v2.38c0,.4.09.67.28.82.19.15.43.22.73.22.16,0,.32-.01.48-.04.16-.03.33-.07.5-.12v2.63Z" fill="#fff"/><path d="M315.1,27.22l-3.49-9h3.82l2.57,9h-2.9ZM314.54,31.04c-.44,0-.85-.06-1.22-.19-.37-.13-.67-.32-.9-.58s-.34-.58-.34-.98c0-.42.12-.74.36-.96.24-.22.53-.33.88-.33.17,0,.32.02.46.06.14.04.28.06.42.06.12,0,.23-.03.34-.08.11-.05.21-.15.3-.28s.18-.31.26-.54l7.24-9-3.64,9.36c-.49,1.25-1.08,2.14-1.77,2.66-.69.53-1.48.79-2.38.79ZM318.85,27.22h-2.61l2.34-9h3.76l-3.49,9Z" fill="#fff"/><path d="M326.75,14.26v9.29c0,.37.05.63.14.76.1.14.27.21.52.21.1,0,.2-.01.31-.04.11-.02.21-.05.31-.07v2.63c-.56.26-1.18.4-1.84.4-1.01,0-1.72-.28-2.14-.85s-.63-1.35-.63-2.36v-9.97h3.33Z" fill="#fff"/><path d="M333.97,27.44c-1.67,0-2.94-.4-3.81-1.19-.87-.79-1.3-1.91-1.3-3.35,0-1.01.2-1.88.61-2.61.41-.73.99-1.3,1.74-1.69.75-.4,1.64-.59,2.67-.59.96,0,1.76.15,2.4.46.64.31,1.12.71,1.45,1.22.32.51.49,1.06.49,1.65s-.14,1.03-.41,1.4c-.28.37-.65.65-1.13.84-.48.19-1.02.3-1.61.33-.59.04-1.22,0-1.86-.08-.65-.09-1.29-.23-1.91-.42v-1.94c.6.17,1.12.28,1.57.34.44.06.82.07,1.12.04s.53-.11.68-.23c.15-.12.22-.28.22-.47,0-.22-.09-.4-.27-.56-.18-.16-.43-.23-.76-.23s-.59.08-.83.23c-.24.16-.43.41-.57.76-.14.35-.21.83-.21,1.43,0,.54.07.98.22,1.31s.38.58.72.73c.34.15.8.23,1.39.23s1.16-.06,1.71-.18c.55-.12,1.07-.3,1.55-.54v2.21c-.46.28-1.02.49-1.69.66s-1.39.24-2.16.24Z" fill="#fff"/><circle cx="511.08" cy="69.82" r="22.56" fill="url(#d)"/><path id="e" d="M510.84,54.19c-1.25,0-2.45.11-3.5.3-3.1.55-3.66,1.69-3.66,3.81v2.79h7.32v.93h-10.07c-2.13,0-3.99,1.28-4.57,3.71-.67,2.79-.7,4.53,0,7.44.52,2.17,1.76,3.71,3.89,3.71h2.52v-3.35c0-2.42,2.09-4.55,4.57-4.55h7.31c2.04,0,3.66-1.68,3.66-3.72v-6.97c0-1.98-1.67-3.47-3.66-3.81-1.26-.21-2.56-.3-3.81-.3ZM506.88,56.43c.76,0,1.37.63,1.37,1.4,0,.77-.62,1.39-1.37,1.39-.76,0-1.37-.62-1.37-1.39s.61-1.4,1.37-1.4Z" fill="#d0d2d3"/><path id="f" d="M519.23,62.01v3.25c0,2.52-2.14,4.64-4.57,4.64h-7.31c-2,0-3.66,1.71-3.66,3.72v6.97c0,1.98,1.73,3.15,3.66,3.72,2.32.68,4.54.8,7.31,0,1.84-.53,3.66-1.61,3.66-3.72v-2.79h-7.31v-.93h10.97c2.13,0,2.92-1.48,3.66-3.71.76-2.29.73-4.5,0-7.44-.53-2.12-1.53-3.71-3.66-3.71h-2.75ZM515.11,79.67c.76,0,1.37.62,1.37,1.39s-.61,1.4-1.37,1.4-1.37-.63-1.37-1.4.62-1.39,1.37-1.39Z" fill="#fff"/><path d="M488.64,108.49v-9.52h1.75v9.52h-1.75ZM489.64,104.91v-1.5h2.87c.76,0,1.31-.13,1.65-.39.34-.26.52-.63.52-1.12s-.17-.83-.5-1.06-.89-.35-1.67-.35h-2.87v-1.51h2.98c1.32,0,2.3.25,2.95.76s.97,1.21.97,2.13c0,.62-.15,1.15-.44,1.62-.29.46-.73.82-1.31,1.06s-1.29.37-2.14.37h-3.01Z" fill="#231f20"/><path d="M500.06,108.49l-2.84-7h1.83l2.46,7h-1.46ZM498.84,111.46c-.24,0-.47-.03-.69-.1s-.39-.17-.53-.3c-.13-.14-.2-.31-.2-.51s.06-.36.18-.47.27-.16.45-.16c.12,0,.24.02.34.06.11.04.22.06.34.06.13,0,.26-.04.4-.12s.28-.23.43-.46c.15-.22.31-.55.49-.97l4.61-7-2.98,7.34c-.38.94-.8,1.62-1.25,2.02-.45.41-.98.61-1.59.61ZM501.82,108.49h-1.36l2.39-7h1.81l-2.84,7Z" fill="#231f20"/><path d="M509.75,108.37c-.21.09-.44.17-.67.22-.23.05-.49.08-.76.08-.65,0-1.16-.19-1.51-.57-.35-.38-.53-.94-.53-1.69v-3.47h-.45c-.21,0-.39-.06-.52-.18-.14-.12-.2-.29-.2-.5,0-.19.06-.35.17-.49.11-.14.28-.27.49-.38l2.14-1.15v1.26h2.13v1.44h-2.13v3.22c0,.39.08.67.23.83.15.16.38.25.68.25.16,0,.31-.02.46-.06.15-.04.31-.08.48-.14v1.33Z" fill="#231f20"/><path d="M511.25,108.49v-10.08h1.62v10.08h-1.62ZM516.02,108.49v-3.96c0-.39-.07-.71-.2-.96-.13-.25-.31-.43-.53-.55-.22-.12-.47-.17-.74-.17-.29,0-.56.07-.82.2-.26.13-.46.33-.62.59-.16.26-.24.59-.24.99l-.31-1.47c.16-.43.37-.78.63-1.04.26-.27.56-.46.89-.59.33-.13.67-.2,1.03-.2.45,0,.87.1,1.25.31.39.21.7.53.93.96.23.43.35,1,.35,1.7v4.2h-1.62Z" fill="#231f20"/><path d="M518.93,105.05c0-.75.15-1.4.44-1.95.29-.55.71-.99,1.25-1.3.54-.31,1.18-.47,1.92-.47s1.33.15,1.86.44c.53.29.95.71,1.25,1.25.3.54.45,1.18.45,1.93s-.15,1.39-.44,1.95c-.29.56-.71,1-1.25,1.31s-1.18.47-1.92.47c-.7,0-1.32-.15-1.85-.44-.54-.29-.96-.71-1.25-1.25-.3-.54-.45-1.18-.45-1.92ZM520.63,105.02c0,.47.08.87.25,1.2s.38.59.67.77c.28.18.6.27.95.27s.69-.09.98-.28.52-.45.69-.8c.17-.35.25-.75.25-1.22s-.08-.87-.25-1.2c-.16-.34-.38-.59-.66-.77-.28-.18-.59-.27-.96-.27s-.69.09-.98.28c-.29.19-.52.45-.69.79-.17.34-.25.75-.25,1.23Z" fill="#231f20"/><path d="M527.44,108.49v-7h1.62v7h-1.62ZM532.22,108.49v-3.96c0-.39-.06-.71-.2-.96s-.31-.43-.53-.55c-.22-.12-.47-.17-.74-.17-.29,0-.56.07-.82.2-.26.13-.46.33-.62.59-.16.26-.24.59-.24.99l-.31-1.47c.15-.43.35-.78.62-1.04s.56-.46.9-.59.68-.2,1.04-.2c.45,0,.87.1,1.25.31.39.21.7.53.93.96.23.43.35,1,.35,1.7v4.2h-1.62Z" fill="#231f20"/><circle cx="576.89" cy="69.82" r="22.56" fill="#1b1c1c"/><path d="M576.89,78.22c-1.12,0-2.09-.24-2.91-.73-.82-.49-1.47-1.17-1.88-1.98-.44-.84-.76-1.74-.96-2.66-.21-1-.31-2.01-.3-3.03,0-.8.05-1.57.16-2.31.1-.73.3-1.48.58-2.24.28-.76.65-1.41,1.09-1.97.46-.57,1.06-1.04,1.75-1.36.72-.35,1.54-.52,2.47-.52,1.12,0,2.09.24,2.91.73.82.49,1.47,1.17,1.88,1.98.44.84.76,1.72.96,2.66.2.93.3,1.94.3,3.03,0,.8-.05,1.57-.16,2.31-.11.76-.31,1.51-.6,2.24-.29.76-.66,1.41-1.09,1.97-.44.56-1.02,1.01-1.74,1.36-.72.35-1.54.52-2.47.52ZM579.03,72.04c.58-.58.9-1.39.89-2.22,0-.86-.29-1.61-.87-2.22-.58-.62-1.3-.93-2.16-.93s-1.58.31-2.16.93c-.57.59-.88,1.39-.87,2.22,0,.86.29,1.61.87,2.22.58.62,1.3.93,2.16.93s1.57-.31,2.14-.93ZM576.89,82.41c6.69,0,12.11-5.64,12.11-12.6s-5.42-12.6-12.11-12.6-12.11,5.64-12.11,12.6,5.42,12.6,12.11,12.6Z" fill="#fff"/><path d="M564.6,103.63c0-.98.19-1.85.58-2.61.39-.76.95-1.36,1.68-1.79.73-.43,1.61-.65,2.62-.65s1.87.2,2.58.61,1.26.97,1.64,1.69.57,1.56.57,2.51-.2,1.84-.59,2.6c-.39.76-.95,1.36-1.67,1.79-.72.43-1.6.65-2.62.65s-1.86-.2-2.58-.61c-.72-.41-1.27-.97-1.65-1.69s-.57-1.56-.57-2.5ZM566.45,103.57c0,.67.12,1.26.36,1.75.24.5.58.88,1.03,1.15s.97.41,1.58.41,1.16-.14,1.61-.43c.45-.29.79-.69,1.04-1.21.24-.52.36-1.12.36-1.8s-.12-1.25-.36-1.75c-.24-.49-.59-.88-1.03-1.15-.44-.27-.97-.41-1.58-.41s-1.16.14-1.61.43c-.45.29-.79.69-1.04,1.21-.24.52-.36,1.12-.36,1.8Z" fill="#231f20"/><path d="M577.35,108.43c-.33,0-.63-.03-.92-.09-.28-.06-.53-.14-.75-.23-.59-.24-.88-.58-.88-1.02,0-.21.06-.37.19-.5s.29-.19.5-.19c.16,0,.32.04.48.12.16.08.34.16.54.24.2.08.45.12.74.12.26,0,.49-.05.7-.15.21-.1.37-.26.48-.5.12-.23.17-.55.17-.97v-6.52h1.75v6.71c0,.7-.13,1.27-.4,1.72-.27.44-.63.76-1.08.97-.45.2-.96.3-1.52.3ZM575.11,100.29v-1.55h5.24v1.55h-5.24Z" fill="#231f20"/><path d="M585.5,108.43c-.71,0-1.36-.08-1.95-.25s-1.1-.38-1.53-.65v-1.64c.62.39,1.22.69,1.83.88.6.2,1.18.29,1.73.29.68,0,1.18-.12,1.49-.37.31-.25.47-.55.47-.9,0-.3-.1-.54-.3-.72-.2-.18-.47-.33-.8-.45-.33-.12-.7-.22-1.09-.32s-.79-.21-1.19-.34-.76-.29-1.08-.49c-.33-.2-.59-.46-.8-.78-.21-.32-.31-.73-.31-1.22,0-.57.14-1.07.43-1.5s.71-.77,1.27-1.02c.56-.25,1.24-.37,2.03-.37.65,0,1.22.08,1.69.24.47.16.86.37,1.16.64.16.13.28.27.36.41s.13.31.13.5c0,.21-.06.39-.19.53-.13.14-.31.21-.54.21-.21,0-.39-.06-.55-.17-.16-.12-.33-.25-.51-.41-.18-.16-.4-.3-.66-.42-.26-.12-.6-.18-1.02-.18-.58,0-1.02.13-1.33.38-.31.25-.46.56-.46.92,0,.3.1.54.31.71.21.18.47.32.8.44.33.12.69.22,1.08.32.4.1.79.21,1.19.34.4.13.76.29,1.09.5.33.21.6.47.8.8.2.33.3.74.3,1.23,0,.58-.15,1.08-.43,1.52-.29.43-.72.77-1.29,1-.57.23-1.27.35-2.11.35Z" fill="#231f20"/><circle cx="445.28" cy="69.82" r="22.56" fill="url(#g)"/><path d="M445.28,78.8c-9.2,0-16.65-4.99-16.65-11.15s7.46-11.15,16.65-11.15,16.65,4.99,16.65,11.15-7.46,11.15-16.65,11.15ZM447.83,60.85c-6.99,0-12.66,3.41-12.66,7.63s5.67,7.63,12.66,7.63,12.15-2.33,12.15-7.63-5.16-7.63-12.15-7.63Z" fill="#e6e7e8" fill-rule="evenodd"/><path d="M453.99,73.76s1.01.3,1.59.6c.2.1.55.31.81.58.25.26.37.53.37.53l3.97,6.7h-6.42s-3-5.64-3-5.64c0,0-.61-1.06-.99-1.36-.32-.26-.45-.35-.76-.35h-1.53v7.34s-5.68,0-5.68,0v-18.76h11.41s5.2.09,5.2,5.04-4.97,5.31-4.97,5.31ZM451.52,67.48h-3.44s0,3.19,0,3.19h3.44s1.59,0,1.59-1.62-1.59-1.56-1.59-1.56Z" fill="#fff" fill-rule="evenodd"/><path d="M441.6,108.49v-9.52h1.75v9.52h-1.75ZM442.62,104.21v-.99h2.9c.75,0,1.29-.11,1.62-.34s.5-.58.5-1.04-.16-.8-.49-1.01c-.33-.22-.87-.33-1.64-.33h-2.9v-1.51h2.98c1.3,0,2.27.23,2.93.7.65.47.98,1.14.98,2.02,0,.6-.15,1.08-.46,1.45-.3.37-.75.64-1.32.81-.58.17-1.29.26-2.13.26h-2.98ZM447.57,108.49c-.11-.27-.18-.57-.22-.9-.03-.33-.06-.67-.08-1.01s-.08-.66-.17-.95c-.09-.28-.24-.52-.46-.69-.22-.18-.55-.27-.99-.27h-2.69v-.91h3.47c.61-.01,1.08.05,1.43.19.35.14.61.33.78.57s.28.53.34.84.1.65.13,1,.07.71.13,1.08.17.71.33,1.05h-2Z" fill="#231f20"/><rect x="405.14" y="9.46" width="213.07" height="107.8" fill="none" stroke="#d0d2d3" stroke-width="4.13"/><rect x="403.96" y="9.03" width="214.25" height="27.68" fill="#d0d2d3"/><path d="M496.19,27.44c-1.43,0-2.63-.26-3.61-.77-.98-.52-1.71-1.24-2.21-2.16s-.74-2-.74-3.22.24-2.31.72-3.29c.48-.98,1.2-1.77,2.15-2.35.95-.58,2.13-.87,3.52-.87.88,0,1.69.12,2.45.37s1.34.61,1.76,1.09c.19.22.34.45.43.69.1.25.14.51.14.8,0,.52-.15.92-.45,1.21s-.69.43-1.17.43c-.35,0-.64-.07-.88-.21-.24-.14-.47-.29-.68-.47-.22-.17-.46-.33-.73-.47-.27-.14-.61-.21-1.02-.21-.53,0-.98.13-1.35.4-.37.26-.65.62-.84,1.07-.19.45-.28.96-.28,1.54,0,.67.13,1.25.4,1.73.26.48.65.84,1.16,1.09.51.25,1.14.37,1.9.37.56,0,1.13-.07,1.71-.21.58-.14,1.18-.32,1.82-.55v3.01c-.54.28-1.15.51-1.83.7-.68.19-1.47.29-2.38.29Z" fill="#fff"/><path d="M501.54,22.76c0-.96.2-1.79.6-2.5.4-.71.98-1.26,1.73-1.66.75-.4,1.65-.59,2.69-.59s1.9.19,2.65.57,1.33.92,1.75,1.61c.42.7.63,1.54.63,2.52s-.2,1.76-.59,2.47c-.4.71-.97,1.27-1.72,1.67-.75.4-1.65.59-2.71.59-1,0-1.87-.19-2.63-.57s-1.34-.92-1.76-1.62-.63-1.53-.63-2.49ZM505.05,22.74c0,.38.06.71.19.99.13.28.3.49.53.63.23.14.48.22.76.22.3,0,.56-.07.79-.22.23-.15.41-.36.55-.64s.21-.62.21-1.03c0-.38-.06-.71-.19-.98-.13-.27-.3-.48-.53-.62-.23-.14-.49-.22-.77-.22s-.55.07-.78.22c-.23.15-.42.36-.55.64-.13.28-.2.61-.2,1.01Z" fill="#fff"/><path d="M519.59,25.24c-.25.71-.64,1.25-1.17,1.63s-1.15.57-1.85.57-1.31-.19-1.89-.56-1.03-.91-1.36-1.61c-.33-.7-.5-1.55-.5-2.55s.17-1.79.5-2.49c.33-.7.79-1.25,1.37-1.64s1.26-.58,2.03-.58,1.34.17,1.82.51c.48.34.8.82.97,1.43l-.27,2.38c0-.31-.06-.58-.18-.81-.12-.23-.28-.41-.49-.54-.21-.13-.44-.2-.72-.2-.3,0-.56.08-.79.23-.23.16-.4.38-.53.66s-.19.62-.19,1,.06.71.19.99c.13.28.3.49.52.64s.48.22.78.22c.42,0,.76-.15,1.02-.44s.39-.68.39-1.14l.36,2.3ZM522.54,14.26v12.96h-3.31v-12.96h3.31Z" fill="#fff"/><path d="M529.08,27.44c-1.67,0-2.94-.4-3.81-1.19-.87-.79-1.31-1.91-1.31-3.35,0-1.01.2-1.88.61-2.61.41-.73.99-1.3,1.74-1.69.75-.4,1.64-.59,2.67-.59.96,0,1.76.15,2.4.46.64.31,1.12.71,1.45,1.22.32.51.49,1.06.49,1.65s-.14,1.03-.41,1.4c-.28.37-.65.65-1.13.84-.48.19-1.02.3-1.61.33-.59.04-1.21,0-1.86-.08-.65-.09-1.28-.23-1.91-.42v-1.94c.6.17,1.12.28,1.57.34.44.06.82.07,1.12.04s.52-.11.67-.23c.15-.12.23-.28.23-.47,0-.22-.09-.4-.27-.56-.18-.16-.43-.23-.76-.23s-.59.08-.83.23c-.24.16-.43.41-.57.76-.14.35-.21.83-.21,1.43,0,.54.07.98.22,1.31.14.34.38.58.72.73.34.15.8.23,1.39.23s1.16-.06,1.71-.18c.55-.12,1.07-.3,1.55-.54v2.21c-.46.28-1.02.49-1.69.66-.67.16-1.39.24-2.16.24Z" fill="#fff"/></g></svg>