<?xml version="1.0" encoding="UTF-8"?><svg id="b" xmlns="http://www.w3.org/2000/svg" viewBox="0 0 403.99 235.35"><line x1="157.67" y1="102.69" x2="213.5" y2="102.69" fill="none" stroke="#d1d3d4" stroke-miterlimit="10" stroke-width="3"/><path d="M231.6,102.69c-8.52,3.16-19.09,8.55-25.64,14.27l5.16-14.27-5.16-14.26c6.55,5.71,17.12,11.11,25.64,14.26Z" fill="#d1d3d4"/><path d="M398.27,199.68h-16.29V13.57C381.97,6.08,375.9,0,368.4,0H35.59c-7.49,0-13.56,6.08-13.57,13.57v186.11H5.73C2.56,199.68,0,202.24,0,205.4c0,0,0,.01,0,.02v12.11c.47,10.25,9.11,18.2,19.36,17.81h365.27c10.26.39,18.9-7.58,19.36-17.83v-12.09c0-3.16-2.55-5.73-5.71-5.74,0,0-.01,0-.02,0ZM184.19,11.45h35.66v4.64h-35.66v-4.64ZM33.45,13.57c.03-1.16.96-2.1,2.12-2.12h137.14v10.36c0,3.16,2.56,5.73,5.73,5.73h47.12c3.16,0,5.73-2.56,5.73-5.73h0v-10.36h137.12c1.16.03,2.1.96,2.12,2.12v186.11H33.45V13.57ZM392.53,217.51c-.52,3.89-3.99,6.7-7.91,6.39H19.36c-3.92.31-7.39-2.49-7.91-6.39v-6.38h381.09l-.02,6.38ZM271.84,18.53c0,3.16-2.55,5.73-5.71,5.74,0,0-.01,0-.02,0h-12.13c-3.16,0-5.72-2.57-5.72-5.73,0-3.16,2.56-5.72,5.72-5.72h12.13c3.16,0,5.72,2.55,5.73,5.71Z" fill="#ff8e5e"/><path d="M255.15,60.27c-3.32,0-6.01,2.69-6.01,6.01s2.69,6.01,6.01,6.01,6.01-2.69,6.01-6.01-2.69-6.01-6.01-6.01ZM255.15,68.28c-1.11,0-2-.9-2-2s.9-2,2-2,2,.9,2,2-.9,2-2,2Z" fill="#d7433b"/><path d="M273.17,60.27c-3.32,0-6.01,2.69-6.01,6.01s2.69,6.01,6.01,6.01,6.01-2.69,6.01-6.01-2.69-6.01-6.01-6.01ZM273.17,68.28c-1.11,0-2-.9-2-2s.9-2,2-2,2,.9,2,2-.9,2-2,2Z" fill="#d7433b"/><path d="M291.2,60.27c-3.32,0-6.01,2.69-6.01,6.01s2.69,6.01,6.01,6.01,6.01-2.69,6.01-6.01-2.69-6.01-6.01-6.01ZM291.2,68.28c-1.11,0-2-.9-2-2s.9-2,2-2,2,.9,2,2-.9,2-2,2Z" fill="#d7433b"/><path d="M347.28,52.26h-100.14c-5.53,0-10.01,4.48-10.01,10.01v80.11c0,5.53,4.48,10.01,10.01,10.01h100.14c5.53,0,10.01-4.48,10.01-10.01V62.27c0-5.53-4.48-10.01-10.01-10.01ZM241.13,62.27c0-3.32,2.69-6.01,6.01-6.01h100.14c3.32,0,6.01,2.69,6.01,6.01v14.02h-112.16v-14.02ZM347.28,148.39h-100.14c-3.32,0-6.01-2.69-6.01-6.01v-62.09h112.16v62.09c0,3.32-2.69,6.01-6.01,6.01Z" fill="#d7433b"/><path d="M323.24,114.35c0-4.46-1.15-8.85-3.34-12.74-.07-.17-.17-.33-.28-.48-7.33-12.37-23.3-16.46-35.67-9.13-3.76,2.23-6.9,5.37-9.13,9.13-.12.15-.21.31-.28.48-4.46,7.9-4.46,17.56,0,25.46.08.17.18.34.3.48,7.34,12.37,23.31,16.44,35.68,9.11,3.75-2.22,6.88-5.36,9.11-9.11.12-.15.22-.31.3-.48,2.19-3.88,3.33-8.26,3.32-12.72ZM297.21,136.38c-2.14,0-4.45-3.06-6.01-8.01h12.02c-1.56,4.95-3.87,8.01-6.01,8.01ZM290.16,124.36c-.54-2.64-.86-5.32-.96-8.01h16.02c-.09,2.69-.4,5.37-.92,8.01h-14.14ZM277.6,104.33h8.45c-.48,2.65-.77,5.32-.86,8.01h-10.01c.28-2.8,1.11-5.52,2.42-8.01ZM297.21,92.31c2.14,0,4.45,3.06,6.01,8.01h-12.02c1.56-4.95,3.87-8.01,6.01-8.01ZM304.26,104.33c.54,2.64.86,5.32.96,8.01h-16.02c.09-2.69.4-5.37.92-8.01h14.14ZM319.14,112.34h-9.91c-.08-2.69-.35-5.36-.82-8.01h8.45c1.27,2.5,2.04,5.22,2.28,8.01ZM275.27,116.35h10.01c.08,2.69.35,5.36.82,8.01h-8.51c-1.28-2.5-2.07-5.22-2.32-8.01ZM309.22,116.35h10.01c-.25,2.79-1.04,5.51-2.32,8.01h-8.55c.48-2.65.77-5.32.86-8.01ZM314.23,100.33h-6.79c-.63-2.34-1.57-4.59-2.78-6.69,3.72,1.33,7.01,3.64,9.53,6.69h.04ZM289.77,93.64c-1.22,2.1-2.17,4.35-2.8,6.69h-6.75c2.53-3.05,5.83-5.36,9.55-6.69ZM280.22,128.36h6.75c.63,2.34,1.57,4.59,2.78,6.69-3.72-1.33-7.01-3.64-9.53-6.69ZM304.64,135.05c1.22-2.1,2.17-4.35,2.8-6.69h6.75c-2.53,3.05-5.83,5.36-9.55,6.69Z" fill="#d7433b"/><path d="M158.83,111.33h-14.08l-1.41-2.4c-.64-1.08-1.49-1.94-2.49-2.55v-32.97c0-.63-.26-1.24-.71-1.68l-19.2-18.67c-.44-.43-1.02-.66-1.63-.66h-40.29c-1.29,0-2.35,1.05-2.35,2.35v74.12c0,1.29,1.05,2.35,2.35,2.35h31.82v13.84c0,4.06,3.3,7.35,7.35,7.35h40.64c4.06,0,7.35-3.3,7.35-7.35v-26.36c0-4.07-3.3-7.36-7.35-7.36ZM143.42,116.01h15.41c1.47,0,2.67,1.2,2.67,2.67v2.9h-45.97v-8.91c0-1.47,1.2-2.67,2.67-2.67h18.81c.99,0,1.79.46,2.29,1.31l2.09,3.55c.43.7,1.2,1.14,2.03,1.14ZM121.66,60.28l11.08,10.78h-11.08v-10.78ZM81.36,126.51V57.07h35.61v16.33c0,1.29,1.05,2.35,2.35,2.35h16.85v29.56h-17.98c-4.06,0-7.35,3.3-7.35,7.35v13.85h-29.47ZM158.83,147.71h-40.65c-1.47,0-2.67-1.2-2.67-2.67v-18.78h45.97v18.78c.01,1.47-1.18,2.67-2.66,2.67ZM91.58,71.06c0-1.29,1.05-2.35,2.35-2.35h12.75c1.29,0,2.35,1.05,2.35,2.35s-1.05,2.35-2.35,2.35h-12.76c-1.29,0-2.34-1.05-2.34-2.35ZM91.58,85.45c0-1.29,1.05-2.35,2.35-2.35h29.68c1.29,0,2.35,1.05,2.35,2.35s-1.05,2.35-2.35,2.35h-29.69c-1.29,0-2.34-1.05-2.34-2.35ZM123.61,101.5h-29.69c-1.29,0-2.35-1.05-2.35-2.35s1.05-2.35,2.35-2.35h29.68c1.29,0,2.35,1.05,2.35,2.35s-1.05,2.35-2.34,2.35Z" fill="#6d6e71"/></svg>