<?xml version="1.0" encoding="UTF-8"?><svg xmlns="http://www.w3.org/2000/svg" viewBox="0 0 1600 900"><g id="a"><rect x="1" width="1600" height="900" fill="none"/></g><g id="b"><path d="M602.68,767.22c41.06,44.22,99.7,71.9,164.8,71.9,49.35,0,94.99-15.9,132.07-42.86" fill="none" stroke="#d1d3d4" stroke-miterlimit="10" stroke-width="7"/><path d="M931.25,768.33c-10.21,18.58-20.63,44.24-23.47,64.32l-12.68-33.05-30.88-17.29c20.28.08,47.17-6.54,67.02-13.98Z" fill="#d1d3d4"/><path d="M600.74,682.54h-16.29v-186.11c0-7.49-6.08-13.56-13.57-13.57H238.06c-7.49,0-13.56,6.08-13.57,13.57v186.11h-16.29c-3.16,0-5.73,2.56-5.73,5.73,0,0,0,.01,0,.02v12.11c.47,10.25,9.11,18.2,19.36,17.81h365.27c10.26.39,18.9-7.58,19.36-17.83v-12.09c0-3.16-2.55-5.73-5.71-5.74,0,0-.01,0-.02,0ZM386.66,494.31h35.66v4.64h-35.66v-4.64ZM235.92,496.43c.03-1.16.96-2.1,2.12-2.12h137.14v10.36c0,3.16,2.56,5.73,5.73,5.73h47.12c3.16,0,5.73-2.56,5.73-5.73h0v-10.36h137.12c1.16.03,2.1.96,2.12,2.12v186.11H235.92v-186.11ZM595,700.37c-.52,3.89-3.99,6.7-7.91,6.39H221.83c-3.92.31-7.39-2.49-7.91-6.39v-6.38h381.09l-.02,6.38ZM474.31,501.39c0,3.16-2.55,5.73-5.71,5.74,0,0-.01,0-.02,0h-12.13c-3.16,0-5.72-2.57-5.72-5.73,0-3.16,2.56-5.72,5.72-5.72h12.13c3.16,0,5.72,2.55,5.73,5.71Z" fill="#ff8e5e"/><path d="M1053.08,531.85h-12.09c-3.55-12.52-16.57-19.79-29.08-16.24-12.52,3.55-19.79,16.57-16.24,29.08,3.55,12.52,16.57,19.79,29.08,16.24,7.87-2.23,14.01-8.38,16.24-16.24h12.09c3.55.1,6.5-2.7,6.6-6.24s-2.7-6.5-6.24-6.6c-.12,0-.24,0-.35,0ZM1018.35,548.98c-5.92,0-10.72-4.8-10.72-10.72,0-5.92,4.8-10.72,10.72-10.72s10.72,4.8,10.72,10.72c0,5.92-4.8,10.72-10.72,10.72h0,0ZM1096.85,538.26c.01,3.55-2.86,6.43-6.4,6.44,0,0-.02,0-.03,0h-17.6c-3.55-.1-6.34-3.05-6.24-6.6.09-3.41,2.83-6.15,6.24-6.24h17.6c3.54,0,6.41,2.87,6.42,6.41h0ZM1134.21,538.26c.01,3.55-2.86,6.43-6.4,6.44,0,0-.02,0-.03,0h-17.6c-3.55.1-6.5-2.7-6.6-6.24-.1-3.55,2.7-6.5,6.24-6.6.12,0,.24,0,.35,0h17.6c3.54,0,6.41,2.87,6.42,6.41h0ZM1190.73,517.31c0-3.55,2.88-6.42,6.42-6.42h43.15c3.55,0,6.42,2.87,6.42,6.42,0,3.55-2.87,6.42-6.42,6.42h-43.18c-3.54,0-6.41-2.86-6.42-6.4l.03-.02ZM1190.73,538.26c0-3.54,2.88-6.42,6.42-6.42h43.15c3.55-.1,6.5,2.7,6.6,6.24s-2.7,6.5-6.24,6.6c-.12,0-.24,0-.35,0h-43.18c-3.54,0-6.42-2.87-6.42-6.42h.03ZM1197.12,565.65c-3.55,0-6.42-2.88-6.42-6.42s2.88-6.42,6.42-6.42h43.15c3.55,0,6.42,2.88,6.42,6.42s-2.88,6.42-6.42,6.42h-43.15ZM1053.08,655.25h-12.09c-3.55-12.52-16.57-19.79-29.08-16.24-12.52,3.55-19.79,16.57-16.24,29.08,3.55,12.52,16.57,19.79,29.08,16.24,7.86-2.23,14.01-8.38,16.24-16.24h12.09c3.55,0,6.42-2.88,6.42-6.42s-2.88-6.42-6.42-6.42ZM1018.35,672.39c-5.92,0-10.72-4.8-10.72-10.72,0-5.92,4.8-10.72,10.72-10.72s10.72,4.8,10.72,10.72c0,5.92-4.8,10.72-10.72,10.72h0,0ZM1096.85,661.67c0,3.55-2.88,6.42-6.42,6.42h-17.61c-3.55,0-6.42-2.88-6.42-6.42s2.88-6.42,6.42-6.42h17.6c3.55,0,6.42,2.88,6.42,6.42,0,0,0,0,0,0h0ZM1393.59,649.66c.28-1.9.42-3.82.42-5.73-.04-21.62-17.61-39.11-39.22-39.07-.84,0-1.68.03-2.52.09.08-25.63-20.64-46.48-46.28-46.55-10.5-.03-20.7,3.5-28.93,10.01,0-.38.03-.76.03-1.14v-57.98c-.02-14.59-11.84-26.41-26.43-26.43h-259.83c-14.59.02-26.41,11.84-26.43,26.43v57.95c.02,14.59,11.84,26.41,26.43,26.43h11.63v12.6h-11.63c-14.59.02-26.41,11.84-26.43,26.43v57.95c.02,14.59,11.84,26.41,26.43,26.43h123.3c7.43,6.63,17.04,10.3,26.99,10.29h235.76c22.45,0,40.64-18.19,40.64-40.64,0-15.99-9.38-30.5-23.96-37.06h.01ZM977.25,567.24v-57.95c0-7.5,6.08-13.58,13.58-13.59h259.82c7.5.01,13.58,6.09,13.58,13.59v57.95c0,3-1.01,5.92-2.87,8.28-18.02-6.13-37.81-4.19-54.31,5.31h-216.22c-7.5-.01-13.58-6.09-13.58-13.59ZM1182.3,606.27h-129.68v-12.6h138.57c-3.45,3.84-6.43,8.07-8.89,12.6ZM1015.3,593.67h24.49v12.6h-24.49v-12.6ZM977.25,690.65v-57.95c.01-7.5,6.09-13.57,13.58-13.58h157.75l-.35.23c-9.34,6.48-15.47,16.63-16.87,27.91-21.79,5.39-35.09,27.43-29.7,49.22.66,2.67,1.59,5.28,2.78,7.76h-113.62c-7.5-.01-13.57-6.09-13.58-13.58ZM1376.89,714.53h-235.76c-15.36,0-27.8-12.46-27.8-27.82,0-14.2,10.7-26.11,24.82-27.64,3.27-.36,5.75-3.13,5.73-6.42-.04-15.36,12.35-27.86,27.7-27.95,3.25,0,6.48.58,9.53,1.7,3.34,1.21,7.02-.51,8.23-3.85.04-.1.07-.2.1-.3,8.59-27.97,38.23-43.67,66.2-35.08,3.96,1.22,7.76,2.89,11.33,5,3.05,1.8,6.99.79,8.79-2.27.07-.11.13-.23.19-.35,8.45-16.49,28.67-23.01,45.17-14.56,13.4,6.86,20.58,21.81,17.58,36.56-.71,3.47,1.52,6.87,5,7.58,1.08.22,2.19.16,3.24-.17,13.8-4.4,28.56,3.23,32.96,17.03,1.64,5.15,1.65,10.68.03,15.83-1.07,3.38.81,6.99,4.19,8.06.06.02.13.04.19.06,14.79,4.12,23.45,19.45,19.33,34.24-3.35,12.02-14.3,20.35-26.78,20.35h0Z" fill="#008d98"/><path d="M702.81,79.4c-7.67,0-13.88,6.22-13.88,13.88s6.22,13.88,13.88,13.88,13.88-6.22,13.88-13.88-6.22-13.88-13.88-13.88ZM702.81,97.91c-2.56,0-4.63-2.07-4.63-4.63s2.07-4.63,4.63-4.63,4.63,2.07,4.63,4.63-2.07,4.63-4.63,4.63Z" fill="#d7433b"/><path d="M744.46,79.4c-7.67,0-13.88,6.22-13.88,13.88s6.22,13.88,13.88,13.88,13.88-6.22,13.88-13.88-6.22-13.88-13.88-13.88ZM744.46,97.91c-2.56,0-4.63-2.07-4.63-4.63s2.07-4.63,4.63-4.63,4.63,2.07,4.63,4.63-2.07,4.63-4.63,4.63Z" fill="#d7433b"/><path d="M786.12,79.4c-7.67,0-13.88,6.22-13.88,13.88s6.22,13.88,13.88,13.88,13.88-6.22,13.88-13.88-6.22-13.88-13.88-13.88ZM786.12,97.91c-2.56,0-4.63-2.07-4.63-4.63s2.07-4.63,4.63-4.63,4.63,2.07,4.63,4.63-2.07,4.63-4.63,4.63Z" fill="#d7433b"/><path d="M915.7,60.89h-231.41c-12.78,0-23.14,10.36-23.14,23.14v185.12c0,12.78,10.36,23.14,23.14,23.14h231.41c12.78,0,23.14-10.36,23.14-23.14V84.03c0-12.78-10.36-23.14-23.14-23.14ZM670.41,84.03c0-7.67,6.22-13.88,13.88-13.88h231.41c7.67,0,13.88,6.22,13.88,13.88v32.4h-259.17v-32.4ZM915.7,283.04h-231.41c-7.67,0-13.88-6.22-13.88-13.88V125.68h259.17v143.47c0,7.67-6.22,13.88-13.88,13.88Z" fill="#d7433b"/><path d="M860.17,204.36c0-10.31-2.66-20.45-7.73-29.43-.16-.4-.38-.77-.65-1.11-16.93-28.59-53.84-38.04-82.43-21.1-8.69,5.15-15.95,12.41-21.1,21.1-.27.34-.48.71-.65,1.11-10.31,18.25-10.31,40.57,0,58.82.18.4.41.78.69,1.11,16.96,28.58,53.87,38,82.44,21.04,8.66-5.14,15.9-12.38,21.04-21.04.28-.34.52-.71.69-1.11,5.05-8.97,7.7-19.09,7.68-29.39ZM800,255.27c-4.95,0-10.27-7.08-13.88-18.51h27.77c-3.61,11.43-8.93,18.51-13.88,18.51ZM783.71,227.5c-1.24-6.1-1.98-12.29-2.22-18.51h37.02c-.21,6.22-.92,12.41-2.13,18.51h-32.67ZM754.69,181.22h19.53c-1.12,6.11-1.78,12.3-1.99,18.51h-23.14c.66-6.47,2.56-12.76,5.6-18.51ZM800,153.45c4.95,0,10.27,7.08,13.88,18.51h-27.77c3.61-11.43,8.93-18.51,13.88-18.51ZM816.29,181.22c1.24,6.1,1.98,12.29,2.22,18.51h-37.02c.21-6.22.92-12.41,2.13-18.51h32.67ZM850.68,199.73h-22.91c-.18-6.21-.81-12.4-1.9-18.51h19.53c2.93,5.77,4.72,12.06,5.28,18.51ZM749.32,208.99h23.14c.18,6.21.81,12.4,1.9,18.51h-19.67c-2.96-5.77-4.79-12.05-5.37-18.51ZM827.77,208.99h23.14c-.58,6.46-2.41,12.74-5.37,18.51h-19.76c1.12-6.11,1.78-12.3,1.99-18.51ZM839.34,171.96h-15.69c-1.46-5.41-3.62-10.61-6.43-15.46,8.6,3.08,16.21,8.42,22.03,15.46h.09ZM782.83,156.5c-2.83,4.85-5.01,10.04-6.48,15.46h-15.6c5.84-7.04,13.46-12.38,22.08-15.46ZM760.75,236.75h15.6c1.46,5.41,3.62,10.61,6.43,15.46-8.6-3.08-16.21-8.42-22.03-15.46ZM817.17,252.21c2.83-4.85,5.01-10.04,6.48-15.46h15.6c-5.84,7.04-13.46,12.38-22.08,15.46Z" fill="#d7433b"/><path d="M412.14,381.48c.41-5.84,1.11-11.7,2.1-17.57,13.79-82.02,80.9-144.37,169.17-168.92" fill="none" stroke="#d1d3d4" stroke-miterlimit="10" stroke-width="7"/><path d="M413.99,423.69c6.72-20.11,18.49-45.17,31.31-60.89l-32.88,13.13-33.66-10.94c13.83,14.84,27.21,39.08,35.23,58.71Z" fill="#d1d3d4"/><path d="M1034.92,211.42c5.57,1.83,11.08,3.93,16.52,6.32,76.17,33.4,120.25,113.69,122.51,205.29" fill="none" stroke="#d1d3d4" stroke-miterlimit="10" stroke-width="7"/><path d="M993.54,202.9c17.86,11.43,39.29,28.96,51.41,45.23l-4.71-35.09,18.83-29.97c-17.77,9.78-44.54,16.85-65.53,19.83Z" fill="#d1d3d4"/></g></svg>