<?xml version="1.0" encoding="UTF-8"?><svg xmlns="http://www.w3.org/2000/svg" xmlns:xlink="http://www.w3.org/1999/xlink" viewBox="0 0 1600 900"><defs><clipPath id="c"><rect x="-1830.93" y="1041.04" width="1600" height="900" fill="none"/></clipPath></defs><g isolation="isolate"><g id="b"><rect x="1" width="1600" height="900" fill="none"/><path d="M1292.95,468.24h-9.18c-2.69-9.5-12.58-15.02-22.08-12.33-9.5,2.69-15.02,12.58-12.33,22.08,2.69,9.5,12.58,15.02,22.08,12.33,5.97-1.69,10.64-6.36,12.33-12.33h9.18c2.69.07,4.93-2.05,5.01-4.74s-2.05-4.93-4.74-5.01c-.09,0-.18,0-.27,0ZM1266.58,481.25c-4.49,0-8.14-3.64-8.14-8.14,0-4.49,3.64-8.14,8.14-8.14s8.14,3.64,8.14,8.14c0,4.49-3.64,8.14-8.14,8.14h0,0ZM1326.19,473.11c0,2.69-2.17,4.88-4.86,4.89,0,0-.01,0-.02,0h-13.37c-2.69-.07-4.81-2.32-4.74-5.01.07-2.59,2.15-4.67,4.74-4.74h13.37c2.69,0,4.87,2.18,4.88,4.86h0ZM1354.55,473.11c0,2.69-2.17,4.88-4.86,4.89,0,0-.01,0-.02,0h-13.36c-2.69.07-4.93-2.05-5.01-4.74s2.05-4.93,4.74-5.01c.09,0,.18,0,.27,0h13.36c2.69,0,4.87,2.18,4.88,4.86h0ZM1397.46,457.21c0-2.69,2.18-4.88,4.88-4.88h32.76c2.69,0,4.88,2.18,4.88,4.87,0,2.69-2.18,4.88-4.87,4.88h-32.79c-2.69,0-4.87-2.17-4.88-4.86h.02ZM1397.46,473.11c0-2.69,2.18-4.87,4.88-4.87h32.76c2.69-.07,4.93,2.05,5.01,4.74s-2.05,4.93-4.74,5.01c-.09,0-.18,0-.27,0h-32.78c-2.69,0-4.87-2.18-4.88-4.87h.02ZM1402.31,493.91c-2.69,0-4.88-2.18-4.88-4.88s2.18-4.88,4.88-4.88h32.76c2.69,0,4.88,2.18,4.88,4.88s-2.18,4.88-4.88,4.88h-32.76ZM1292.95,561.94h-9.18c-2.69-9.5-12.58-15.02-22.08-12.33-9.5,2.69-15.02,12.58-12.33,22.08s12.58,15.02,22.08,12.33c5.97-1.69,10.64-6.36,12.33-12.33h9.18c2.69,0,4.88-2.18,4.88-4.88s-2.18-4.88-4.88-4.88ZM1266.58,574.95c-4.49,0-8.14-3.64-8.14-8.14,0-4.49,3.64-8.14,8.14-8.14s8.14,3.64,8.14,8.14c0,4.49-3.64,8.14-8.14,8.14h0,0ZM1326.19,566.81c0,2.69-2.18,4.88-4.88,4.88h-13.37c-2.69,0-4.88-2.18-4.88-4.88s2.18-4.88,4.88-4.88h13.37c2.69,0,4.88,2.18,4.88,4.88,0,0,0,0,0,0h0ZM1551.47,557.69c.21-1.44.32-2.9.32-4.35-.03-16.41-13.37-29.69-29.78-29.66-.64,0-1.28.02-1.91.07.06-19.46-15.67-35.29-35.13-35.34-7.97-.02-15.71,2.66-21.96,7.6,0-.29.03-.57.03-.86v-44.02c-.01-11.08-8.99-20.05-20.06-20.06h-197.27c-11.08.01-20.05,8.99-20.06,20.06v44c.01,11.08,8.99,20.05,20.06,20.06h8.83v9.57h-8.83c-11.08.01-20.05,8.99-20.06,20.06v44c.01,11.08,8.99,20.05,20.06,20.06h93.61c5.64,5.04,12.93,7.82,20.49,7.81h179c17.04,0,30.86-13.81,30.86-30.85,0-12.14-7.12-23.15-18.19-28.14h.01ZM1235.38,495.12v-44c0-5.69,4.62-10.31,10.31-10.32h197.26c5.69,0,10.31,4.62,10.31,10.32v44c0,2.28-.77,4.49-2.18,6.29-13.68-4.65-28.71-3.18-41.24,4.03h-164.16c-5.69,0-10.31-4.62-10.31-10.32ZM1391.06,524.75h-98.45v-9.57h105.2c-2.62,2.91-4.88,6.13-6.75,9.57ZM1264.27,515.18h18.59v9.57h-18.59v-9.57ZM1235.38,588.81v-44c0-5.69,4.62-10.31,10.31-10.31h119.77l-.26.17c-7.09,4.92-11.75,12.63-12.81,21.19-16.54,4.09-26.64,20.82-22.55,37.37.5,2.03,1.21,4.01,2.11,5.89h-86.26c-5.69,0-10.31-4.62-10.31-10.31ZM1538.79,606.94h-179c-11.66,0-21.11-9.46-21.1-21.12,0-10.78,8.13-19.83,18.84-20.98,2.49-.27,4.36-2.38,4.35-4.88-.03-11.66,9.37-21.15,21.03-21.22,2.47,0,4.92.44,7.24,1.29,2.53.92,5.33-.39,6.25-2.92.03-.08.05-.15.08-.23,6.52-21.23,29.02-33.16,50.26-26.63,3.01.92,5.89,2.2,8.6,3.79,2.32,1.37,5.31.6,6.68-1.72.05-.09.1-.17.14-.26,6.42-12.52,21.77-17.47,34.29-11.06,10.17,5.21,15.63,16.56,13.35,27.76-.54,2.64,1.16,5.22,3.8,5.76.82.17,1.66.12,2.46-.13,10.48-3.34,21.68,2.45,25.02,12.93,1.24,3.91,1.25,8.11.02,12.02-.81,2.57.62,5.31,3.18,6.12.05.02.1.03.15.04,11.23,3.13,17.8,14.77,14.68,26-2.54,9.13-10.85,15.45-20.33,15.45h0Z" fill="#008d98"/><path d="M348.21,646.94c31.17,33.58,75.69,54.59,125.12,54.59,33.8,0,65.3-9.82,91.82-26.77" fill="none" stroke="#d1d3d4" stroke-miterlimit="10" stroke-width="7"/><path d="M597.67,647.79c-10.82,18.24-22.08,43.53-25.58,63.51l-11.57-33.46-30.29-18.31c20.27.75,47.36-4.98,67.45-11.75Z" fill="#d1d3d4"/><path d="M324.17,787.88c-4.98,0-8.77-1.24-11.39-3.7-2.62-2.47-3.93-5.95-3.93-10.44,0-3.11.62-5.8,1.85-8.08,1.23-2.28,2.98-4.05,5.25-5.3,2.26-1.25,4.91-1.88,7.94-1.88,2.73,0,5.03.46,6.9,1.37,1.87.92,3.29,2.12,4.26,3.62.97,1.5,1.46,3.12,1.46,4.88s-.42,3.09-1.26,4.21-1.99,1.98-3.45,2.58c-1.46.6-3.11.96-4.97,1.09-1.85.13-3.81.07-5.86-.2-2.06-.26-4.1-.69-6.12-1.29v-5.05c1.94.49,3.71.82,5.3,1.01s2.97.21,4.15.06c1.18-.15,2.08-.47,2.72-.95.64-.49.95-1.14.95-1.96,0-.9-.37-1.66-1.09-2.3-.73-.64-1.77-.95-3.11-.95-1.2,0-2.27.31-3.23.93-.95.62-1.71,1.57-2.27,2.86-.56,1.29-.84,2.95-.84,4.97,0,1.87.28,3.42.84,4.66.56,1.23,1.42,2.14,2.58,2.72,1.16.58,2.71.87,4.66.87,1.76,0,3.47-.2,5.13-.59,1.66-.39,3.26-.96,4.8-1.71v5.84c-1.35.79-2.98,1.44-4.91,1.96s-4.05.79-6.37.79Z" fill="#ff8e5e"/><path d="M337.92,759.14h9.26l6.57,10.55h-2.36l6.57-10.55h8.98l-10.16,16.27.06-4.27,10.04,16.05h-9.32l-6.34-10.33h2.19l-6.4,10.33h-9.04l10.04-16.05.11,4.27-10.21-16.27Z" fill="#ff8e5e"/><path d="M377.37,787.88c-2.81,0-5.01-.75-6.62-2.25-1.61-1.5-2.41-3.48-2.41-5.95,0-2.32.75-4.14,2.24-5.47,1.5-1.33,3.7-2.22,6.62-2.67l5.72-.9c1.27-.22,2.12-.49,2.55-.79.43-.3.65-.77.65-1.4v5.56c-.22.19-.51.37-.87.53s-.93.35-1.71.53l-2.86.56c-1.01.19-1.82.52-2.44.98-.62.47-.93,1.19-.93,2.16s.31,1.73.93,2.27c.62.54,1.45.81,2.5.81s1.92-.24,2.72-.73,1.45-1.18,1.94-2.08c.49-.9.73-1.93.73-3.09l1.01,5.28c-.82,2.21-2.1,3.86-3.82,4.97-1.72,1.1-3.7,1.66-5.95,1.66ZM395.72,787.2h-8.53c-.26-.52-.46-1.29-.59-2.3s-.2-2.19-.2-3.54l-.28-1.63v-11.33c0-1.16-.37-1.96-1.09-2.41-.73-.45-1.73-.67-3-.67s-2.39.16-3.25.48c-.86.32-1.61.69-2.24,1.12-.64.43-1.25.79-1.82,1.09-.58.3-1.26.45-2.05.45-1.09,0-1.95-.29-2.58-.87-.64-.58-.95-1.37-.95-2.38,0-.71.17-1.39.51-2.05.34-.65.92-1.26,1.74-1.82,2.36-1.91,5.89-2.86,10.61-2.86,2.77,0,5.09.36,6.96,1.07,1.87.71,3.27,1.88,4.21,3.51.93,1.63,1.4,3.81,1.4,6.54v8.47c0,2.06.11,3.84.34,5.36.22,1.52.5,2.78.84,3.79Z" fill="#ff8e5e"/><path d="M400.32,787.2v-28.06h8.42v28.06h-8.42ZM418.28,787.2v-15.38c0-1.95-.42-3.33-1.26-4.15s-1.86-1.24-3.06-1.24c-.86,0-1.69.22-2.5.65-.8.43-1.46,1.09-1.96,1.96-.5.88-.76,1.99-.76,3.34l-1.18-6.85c.56-1.61,1.33-2.94,2.3-3.98.97-1.05,2.08-1.82,3.34-2.33,1.25-.5,2.61-.76,4.07-.76,1.83,0,3.46.4,4.88,1.21,1.42.8,2.53,2.03,3.34,3.68.8,1.65,1.21,3.78,1.21,6.4v17.45h-8.42ZM436.24,787.2v-15.38c0-1.95-.42-3.33-1.26-4.15s-1.86-1.24-3.06-1.24c-.86,0-1.69.22-2.5.65-.8.43-1.46,1.09-1.96,1.96-.5.88-.76,1.99-.76,3.34l-2.47-6.85c.75-1.61,1.7-2.94,2.86-3.98,1.16-1.05,2.43-1.82,3.82-2.33,1.38-.5,2.79-.76,4.21-.76,1.8,0,3.41.4,4.85,1.21,1.44.8,2.58,2.06,3.42,3.76.84,1.7,1.26,3.9,1.26,6.59v17.17h-8.42Z" fill="#ff8e5e"/><path d="M450.21,798.43v-39.28h8.42v39.28h-8.42ZM457.45,765.54c.86-2.28,2.14-4.03,3.84-5.25,1.7-1.21,3.69-1.82,5.98-1.82s4.33.59,6.15,1.77c1.81,1.18,3.25,2.85,4.32,5.02,1.07,2.17,1.6,4.79,1.6,7.86s-.52,5.55-1.57,7.77c-1.05,2.23-2.51,3.95-4.38,5.16-1.87,1.21-4.04,1.82-6.51,1.82-2.32,0-4.26-.56-5.81-1.68-1.55-1.12-2.63-2.66-3.23-4.6l.79-6.85c0,1.16.24,2.2.73,3.11.49.92,1.15,1.63,1.99,2.13s1.8.76,2.89.76c1.23,0,2.31-.32,3.23-.95.92-.64,1.64-1.52,2.16-2.64.52-1.12.79-2.43.79-3.93s-.25-2.79-.76-3.87c-.51-1.08-1.23-1.93-2.16-2.53-.94-.6-2.02-.9-3.25-.9-1.65,0-2.99.55-4.04,1.66-1.05,1.1-1.57,2.57-1.57,4.41l-1.18-6.45Z" fill="#ff8e5e"/><path d="M491.96,746.8v30.36c0,1.23.18,2.09.53,2.55.35.47.96.7,1.82.7.34,0,.68-.04,1.04-.11.36-.07.7-.15,1.04-.22v6.68c-1.54.75-3.22,1.12-5.05,1.12-2.84,0-4.85-.81-6.03-2.44-1.18-1.63-1.77-3.84-1.77-6.65v-31.99h8.42Z" fill="#ff8e5e"/><path d="M513.45,787.88c-4.98,0-8.77-1.24-11.39-3.7-2.62-2.47-3.93-5.95-3.93-10.44,0-3.11.62-5.8,1.85-8.08,1.23-2.28,2.98-4.05,5.25-5.3,2.26-1.25,4.91-1.88,7.94-1.88,2.73,0,5.03.46,6.9,1.37,1.87.92,3.29,2.12,4.26,3.62.97,1.5,1.46,3.12,1.46,4.88s-.42,3.09-1.26,4.21-1.99,1.98-3.45,2.58c-1.46.6-3.11.96-4.97,1.09-1.85.13-3.81.07-5.86-.2-2.06-.26-4.1-.69-6.12-1.29v-5.05c1.94.49,3.71.82,5.3,1.01s2.97.21,4.15.06c1.18-.15,2.08-.47,2.72-.95.64-.49.95-1.14.95-1.96,0-.9-.37-1.66-1.09-2.3-.73-.64-1.77-.95-3.11-.95-1.2,0-2.27.31-3.23.93-.95.62-1.71,1.57-2.27,2.86-.56,1.29-.84,2.95-.84,4.97,0,1.87.28,3.42.84,4.66.56,1.23,1.42,2.14,2.58,2.72,1.16.58,2.71.87,4.66.87,1.76,0,3.47-.2,5.13-.59,1.66-.39,3.26-.96,4.8-1.71v5.84c-1.35.79-2.98,1.44-4.91,1.96s-4.05.79-6.37.79Z" fill="#ff8e5e"/><path d="M534.78,787.82c-1.54,0-2.73-.42-3.59-1.26-.86-.84-1.29-1.94-1.29-3.28,0-1.42.43-2.53,1.29-3.34.86-.8,2.06-1.21,3.59-1.21s2.68.4,3.56,1.21c.88.81,1.32,1.92,1.32,3.34,0,1.35-.44,2.44-1.32,3.28-.88.84-2.07,1.26-3.56,1.26Z" fill="#ff8e5e"/><path d="M569.68,765.65c0,1.2-.36,2.12-1.07,2.78-.71.66-1.63.98-2.75.98-.9,0-1.64-.2-2.22-.59-.58-.39-1.11-.85-1.6-1.38-.49-.52-1.04-.98-1.66-1.38-.62-.39-1.43-.59-2.44-.59-1.76,0-3.15.65-4.18,1.96-1.03,1.31-1.54,3.09-1.54,5.33,0,1.5.27,2.83.81,3.98.54,1.16,1.38,2.06,2.53,2.69,1.14.64,2.67.95,4.57.95,1.31,0,2.66-.16,4.04-.48,1.38-.32,2.86-.81,4.43-1.49v6.79c-1.2.71-2.61,1.33-4.24,1.85-1.63.52-3.56.79-5.81.79-4.83,0-8.61-1.29-11.34-3.87-2.73-2.58-4.1-6.14-4.1-10.66,0-2.99.6-5.6,1.8-7.83,1.2-2.23,2.92-3.96,5.16-5.19,2.24-1.23,4.96-1.85,8.14-1.85,2.09,0,3.98.29,5.67.87,1.68.58,3.03,1.39,4.04,2.44,1.16,1.16,1.74,2.45,1.74,3.87Z" fill="#ff8e5e"/><path d="M571.82,773.34c0-2.99.61-5.6,1.82-7.83,1.21-2.23,2.95-3.96,5.19-5.19,2.25-1.23,4.94-1.85,8.08-1.85s5.6.59,7.83,1.77c2.23,1.18,3.96,2.85,5.22,5.02,1.25,2.17,1.88,4.75,1.88,7.74s-.61,5.56-1.82,7.8c-1.22,2.25-2.95,3.98-5.19,5.22-2.25,1.23-4.92,1.85-8.03,1.85s-5.61-.59-7.86-1.77c-2.24-1.18-3.99-2.85-5.25-5.02-1.25-2.17-1.88-4.75-1.88-7.74ZM580.68,773.29c0,1.53.26,2.84.79,3.93.52,1.09,1.24,1.92,2.16,2.5s1.96.87,3.12.87,2.22-.3,3.17-.9c.95-.6,1.7-1.46,2.25-2.58.54-1.12.81-2.47.81-4.04s-.26-2.84-.79-3.93c-.52-1.08-1.24-1.92-2.16-2.5s-1.96-.87-3.11-.87-2.26.3-3.2.9c-.94.6-1.67,1.46-2.22,2.58-.54,1.12-.81,2.47-.81,4.04Z" fill="#ff8e5e"/><path d="M606.05,787.2v-28.06h8.42v28.06h-8.42ZM624,787.2v-15.38c0-1.95-.42-3.33-1.26-4.15s-1.86-1.24-3.06-1.24c-.86,0-1.69.22-2.5.65-.8.43-1.46,1.09-1.96,1.96-.5.88-.76,1.99-.76,3.34l-1.18-6.85c.56-1.61,1.33-2.94,2.3-3.98.97-1.05,2.08-1.82,3.34-2.33,1.25-.5,2.61-.76,4.07-.76,1.83,0,3.46.4,4.88,1.21,1.42.8,2.53,2.03,3.34,3.68.8,1.65,1.21,3.78,1.21,6.4v17.45h-8.42ZM641.96,787.2v-15.38c0-1.95-.42-3.33-1.26-4.15s-1.86-1.24-3.06-1.24c-.86,0-1.69.22-2.5.65-.8.43-1.46,1.09-1.96,1.96-.5.88-.76,1.99-.76,3.34l-2.47-6.85c.75-1.61,1.7-2.94,2.86-3.98,1.16-1.05,2.43-1.82,3.82-2.33,1.38-.5,2.79-.76,4.21-.76,1.8,0,3.41.4,4.85,1.21,1.44.8,2.58,2.06,3.42,3.76.84,1.7,1.26,3.9,1.26,6.59v17.17h-8.42Z" fill="#ff8e5e"/><path d="M346.74,582.65h-12.37v-141.3c0-5.69-4.62-10.3-10.3-10.3H71.39c-5.69,0-10.3,4.62-10.3,10.3v141.3h-12.37c-2.4,0-4.35,1.95-4.35,4.35,0,0,0,0,0,.01v9.19c.36,7.78,6.92,13.81,14.7,13.52h277.32c7.79.29,14.35-5.75,14.7-13.54v-9.18c0-2.4-1.93-4.35-4.33-4.36,0,0,0,0-.01,0ZM184.2,439.75h27.08v3.52h-27.08v-3.52ZM69.76,441.36c.02-.88.73-1.59,1.61-1.61h104.12v7.86c0,2.4,1.95,4.35,4.35,4.35h35.77c2.4,0,4.35-1.95,4.35-4.35h0v-7.86h104.11c.88.02,1.59.73,1.61,1.61v141.3H69.76v-141.3ZM342.38,596.19c-.39,2.96-3.03,5.09-6.01,4.85H59.07c-2.97.24-5.61-1.89-6.01-4.85v-4.84h289.33v4.84ZM250.76,445.12c0,2.4-1.93,4.35-4.33,4.36,0,0,0,0-.01,0h-9.21c-2.4,0-4.35-1.95-4.35-4.35,0-2.4,1.95-4.34,4.35-4.35h9.21c2.4,0,4.34,1.94,4.35,4.33Z" fill="#ff8e5e"/><path d="M692.71,468.24h-9.18c-2.69-9.5-12.58-15.02-22.08-12.33-9.5,2.69-15.02,12.58-12.33,22.08,2.69,9.5,12.58,15.02,22.08,12.33,5.97-1.69,10.64-6.36,12.33-12.33h9.18c2.69.07,4.93-2.05,5.01-4.74s-2.05-4.93-4.74-5.01c-.09,0-.18,0-.27,0ZM666.34,481.25c-4.49,0-8.14-3.64-8.14-8.14,0-4.49,3.64-8.14,8.14-8.14s8.14,3.64,8.14,8.14c0,4.49-3.64,8.14-8.14,8.14h0,0ZM725.94,473.11c0,2.69-2.17,4.88-4.86,4.89,0,0-.01,0-.02,0h-13.37c-2.69-.07-4.81-2.32-4.74-5.01.07-2.59,2.15-4.67,4.74-4.74h13.37c2.69,0,4.87,2.18,4.88,4.86h0ZM754.3,473.11c0,2.69-2.17,4.88-4.86,4.89,0,0-.01,0-.02,0h-13.36c-2.69.07-4.93-2.05-5.01-4.74s2.05-4.93,4.74-5.01c.09,0,.18,0,.27,0h13.36c2.69,0,4.87,2.18,4.88,4.86h0ZM797.21,457.21c0-2.69,2.18-4.88,4.88-4.88h32.76c2.69,0,4.88,2.18,4.88,4.87,0,2.69-2.18,4.88-4.87,4.88h-32.79c-2.69,0-4.87-2.17-4.88-4.86h.02ZM797.21,473.11c0-2.69,2.18-4.87,4.88-4.87h32.76c2.69-.07,4.93,2.05,5.01,4.74s-2.05,4.93-4.74,5.01c-.09,0-.18,0-.27,0h-32.78c-2.69,0-4.87-2.18-4.88-4.87h.02ZM802.07,493.91c-2.69,0-4.88-2.18-4.88-4.88s2.18-4.88,4.88-4.88h32.76c2.69,0,4.88,2.18,4.88,4.88s-2.18,4.88-4.88,4.88h-32.76ZM692.71,561.94h-9.18c-2.69-9.5-12.58-15.02-22.08-12.33-9.5,2.69-15.02,12.58-12.33,22.08,2.69,9.5,12.58,15.02,22.08,12.33,5.97-1.69,10.64-6.36,12.33-12.33h9.18c2.69,0,4.88-2.18,4.88-4.88s-2.18-4.88-4.88-4.88ZM666.34,574.95c-4.49,0-8.14-3.64-8.14-8.14,0-4.49,3.64-8.14,8.14-8.14s8.14,3.64,8.14,8.14c0,4.49-3.64,8.14-8.14,8.14h0,0ZM725.94,566.81c0,2.69-2.18,4.88-4.88,4.88h-13.37c-2.69,0-4.88-2.18-4.88-4.88s2.18-4.88,4.88-4.88h13.37c2.69,0,4.88,2.18,4.88,4.88,0,0,0,0,0,0h0ZM951.23,557.69c.21-1.44.32-2.9.32-4.35-.03-16.41-13.37-29.69-29.78-29.66-.64,0-1.28.02-1.91.07.06-19.46-15.67-35.29-35.13-35.34-7.97-.02-15.71,2.66-21.96,7.6,0-.29.03-.57.03-.86v-44.02c-.01-11.08-8.99-20.05-20.06-20.06h-197.27c-11.08.01-20.05,8.99-20.06,20.06v44c.01,11.08,8.99,20.05,20.06,20.06h8.83v9.57h-8.83c-11.08.01-20.05,8.99-20.06,20.06v44c.01,11.08,8.99,20.05,20.06,20.06h93.61c5.64,5.04,12.93,7.82,20.49,7.81h179c17.04,0,30.86-13.81,30.86-30.85,0-12.14-7.12-23.15-18.19-28.14h.01ZM635.13,495.12v-44c0-5.69,4.62-10.31,10.31-10.32h197.26c5.69,0,10.31,4.62,10.31,10.32v44c0,2.28-.77,4.49-2.18,6.29-13.68-4.65-28.71-3.18-41.24,4.03h-164.16c-5.69,0-10.31-4.62-10.31-10.32ZM790.81,524.75h-98.45v-9.57h105.2c-2.62,2.91-4.88,6.13-6.75,9.57ZM664.02,515.18h18.59v9.57h-18.59v-9.57ZM635.13,588.81v-44c0-5.69,4.62-10.31,10.31-10.31h119.77l-.26.17c-7.09,4.92-11.75,12.63-12.81,21.19-16.54,4.09-26.64,20.82-22.55,37.37.5,2.03,1.21,4.01,2.11,5.89h-86.26c-5.69,0-10.31-4.62-10.31-10.31ZM938.55,606.94h-179c-11.66,0-21.11-9.46-21.1-21.12,0-10.78,8.13-19.83,18.84-20.98,2.49-.27,4.36-2.38,4.35-4.88-.03-11.66,9.37-21.15,21.03-21.22,2.47,0,4.92.44,7.24,1.29,2.53.92,5.33-.39,6.25-2.92.03-.08.05-.15.08-.23,6.52-21.23,29.02-33.16,50.26-26.63,3.01.92,5.89,2.2,8.6,3.79,2.32,1.37,5.31.6,6.68-1.72.05-.09.1-.17.14-.26,6.42-12.52,21.77-17.47,34.29-11.06,10.17,5.21,15.63,16.56,13.35,27.76-.54,2.64,1.16,5.22,3.8,5.76.82.17,1.66.12,2.46-.13,10.48-3.34,21.68,2.45,25.02,12.93,1.24,3.91,1.25,8.11.02,12.02-.81,2.57.62,5.31,3.18,6.12.05.02.1.03.15.04,11.23,3.13,17.8,14.77,14.68,26-2.54,9.13-10.85,15.45-20.33,15.45h0Z" fill="#95caa6"/><path d="M966.18,646.94c31.17,33.58,75.69,54.59,125.12,54.59,33.8,0,65.3-9.82,91.82-26.77" fill="none" stroke="#d1d3d4" stroke-miterlimit="10" stroke-width="7"/><path d="M1215.64,647.79c-10.82,18.24-22.08,43.53-25.58,63.51l-11.57-33.46-30.29-18.31c20.27.75,47.36-4.98,67.45-11.75Z" fill="#d1d3d4"/><path d="M929.51,760.77c-.9.67-1.82,1.09-2.75,1.26-.94.17-1.81.1-2.61-.2-.8-.3-1.46-.79-1.96-1.46-.5-.67-.76-1.53-.76-2.58s.3-1.94.9-2.67,1.53-1.43,2.81-2.1l7.8-3.98h8.64l-2.86,5.11-9.2,6.62ZM932.43,787.2v-32.49l9.15-5.67v38.16h-9.15Z" fill="#95caa6"/><path d="M954.54,787.2c0-3.67.27-7,.81-9.99.54-2.99,1.38-5.75,2.5-8.28,1.12-2.53,2.58-4.88,4.38-7.07,1.79-2.19,3.93-4.29,6.4-6.31l1.29,1.68h-23.4v-8.19h24.58c1.16,0,2.21.19,3.14.56.93.38,1.68.94,2.24,1.68.56.75.84,1.7.84,2.86,0,1.23-.33,2.36-.98,3.37-.66,1.01-1.5,2.06-2.53,3.14-1.03,1.08-2.11,2.33-3.25,3.73-1.14,1.4-2.22,3.11-3.23,5.13-1.01,2.02-1.82,4.46-2.44,7.32s-.89,6.31-.81,10.35h-9.54Z" fill="#95caa6"/><path d="M988.15,787.2c-1.87,0-3.39-.3-4.54-.9-1.16-.6-1.98-1.44-2.47-2.53s-.73-2.28-.73-3.59c0-2.06.37-3.81,1.09-5.25.73-1.44,1.7-2.67,2.92-3.68,1.22-1.01,2.55-1.87,4.01-2.58,1.46-.71,2.91-1.36,4.35-1.94,1.44-.58,2.77-1.15,3.98-1.71,1.22-.56,2.19-1.22,2.92-1.96s1.09-1.68,1.09-2.81c0-.75-.18-1.44-.53-2.08-.36-.64-.9-1.16-1.63-1.57-.73-.41-1.67-.62-2.83-.62-1.35,0-2.49.23-3.42.7-.94.47-1.78,1.02-2.53,1.66s-1.5,1.18-2.24,1.63c-.75.45-1.61.67-2.58.67-1.23,0-2.21-.37-2.92-1.09s-1.07-1.66-1.07-2.78c0-.97.25-1.84.76-2.61s1.15-1.45,1.94-2.05c1.16-.97,2.7-1.84,4.63-2.61,1.93-.77,4.33-1.15,7.21-1.15,4.6,0,8.21,1.03,10.83,3.09,2.62,2.06,3.93,4.98,3.93,8.75,0,2.02-.37,3.73-1.09,5.13-.73,1.4-1.68,2.58-2.86,3.54-1.18.95-2.49,1.75-3.93,2.38-1.44.64-2.87,1.21-4.29,1.71-1.42.5-2.72,1.02-3.9,1.54-1.18.52-2.11,1.13-2.81,1.82-.69.69-1.02,1.56-.98,2.61h20.2v8.25h-22.5Z" fill="#95caa6"/><path d="M1020.81,787.82c-1.54,0-2.73-.42-3.59-1.26-.86-.84-1.29-1.94-1.29-3.28,0-1.42.43-2.53,1.29-3.34.86-.8,2.06-1.21,3.59-1.21s2.68.4,3.56,1.21c.88.81,1.32,1.92,1.32,3.34,0,1.35-.44,2.44-1.32,3.28-.88.84-2.07,1.26-3.56,1.26Z" fill="#95caa6"/><path d="M1043.6,787.88c-2.51,0-4.8-.21-6.87-.62-2.08-.41-3.88-.93-5.42-1.57v-7.69c2.02.71,4.01,1.28,5.98,1.71,1.96.43,3.96.64,5.98.64,2.47,0,4.34-.37,5.61-1.12,1.27-.75,1.91-1.76,1.91-3.03,0-1.12-.44-1.99-1.32-2.61s-2.09-1.05-3.62-1.29c-1.53-.24-3.31-.36-5.33-.36h-2.81v-7.24h2.81c1.76,0,3.35-.14,4.77-.42s2.56-.76,3.42-1.43c.86-.67,1.29-1.59,1.29-2.75,0-1.23-.48-2.23-1.43-2.97-.95-.75-2.25-1.12-3.9-1.12-1.31,0-2.43.22-3.37.67-.94.45-1.77.95-2.5,1.51-.73.56-1.46,1.07-2.19,1.52-.73.45-1.56.67-2.5.67-1.23,0-2.21-.35-2.92-1.07-.71-.71-1.07-1.63-1.07-2.75,0-.93.24-1.78.73-2.53.49-.75,1.1-1.4,1.85-1.96,1.16-.97,2.72-1.83,4.69-2.58,1.96-.75,4.37-1.12,7.21-1.12,3.1,0,5.77.45,8,1.35,2.23.9,3.93,2.18,5.11,3.84,1.18,1.67,1.77,3.66,1.77,5.98s-.74,4.33-2.22,5.81-3.83,2.54-7.04,3.17l-.28-1.91c2.47.34,4.49.94,6.06,1.8s2.73,1.96,3.48,3.31c.75,1.35,1.12,2.94,1.12,4.77,0,2.54-.71,4.67-2.13,6.37s-3.4,2.96-5.95,3.79c-2.54.82-5.52,1.24-8.92,1.24Z" fill="#95caa6"/><path d="M1071.38,760.77c-.9.67-1.82,1.09-2.75,1.26-.94.17-1.81.1-2.61-.2-.8-.3-1.46-.79-1.96-1.46-.5-.67-.76-1.53-.76-2.58s.3-1.94.9-2.67,1.53-1.43,2.81-2.1l7.8-3.98h8.64l-2.86,5.11-9.2,6.62ZM1074.29,787.2v-32.49l9.15-5.67v38.16h-9.15Z" fill="#95caa6"/><path d="M1094.27,787.82c-1.54,0-2.73-.42-3.59-1.26-.86-.84-1.29-1.94-1.29-3.28,0-1.42.43-2.53,1.29-3.34.86-.8,2.06-1.21,3.59-1.21s2.68.4,3.56,1.21c.88.81,1.32,1.92,1.32,3.34,0,1.35-.44,2.44-1.32,3.28-.88.84-2.07,1.26-3.56,1.26Z" fill="#95caa6"/><path d="M1104.32,760.77c-.9.67-1.82,1.09-2.75,1.26-.94.17-1.81.1-2.61-.2-.8-.3-1.46-.79-1.96-1.46-.5-.67-.76-1.53-.76-2.58s.3-1.94.9-2.67,1.53-1.43,2.81-2.1l7.8-3.98h8.64l-2.86,5.11-9.2,6.62ZM1107.23,787.2v-32.49l9.15-5.67v38.16h-9.15Z" fill="#95caa6"/><path d="M1138.38,787.88c-3.55,0-6.55-.8-8.98-2.41-2.43-1.61-4.28-3.88-5.56-6.82-1.27-2.94-1.91-6.43-1.91-10.47s.64-7.59,1.91-10.55c1.27-2.96,3.15-5.24,5.64-6.85,2.49-1.61,5.51-2.41,9.06-2.41s6.52.79,8.89,2.38c2.38,1.59,4.16,3.85,5.36,6.79,1.2,2.94,1.8,6.45,1.8,10.52s-.61,7.65-1.82,10.61-3.03,5.23-5.44,6.82c-2.41,1.59-5.4,2.39-8.95,2.39ZM1138.21,779.68c1.5,0,2.75-.46,3.76-1.38,1.01-.92,1.78-2.25,2.3-3.98.52-1.74.79-3.82.79-6.26s-.25-4.4-.76-6.12c-.5-1.72-1.24-3.05-2.22-3.98-.97-.93-2.23-1.4-3.76-1.4s-2.69.46-3.7,1.38-1.78,2.24-2.3,3.98c-.52,1.74-.79,3.83-.79,6.26s.24,4.4.73,6.12c.49,1.72,1.24,3.05,2.25,3.98,1.01.94,2.24,1.4,3.7,1.4Z" fill="#95caa6"/><path d="M1171.21,787.88c-2.43,0-4.7-.21-6.79-.62-2.1-.41-3.91-.93-5.44-1.57v-7.91c2.02.71,4.01,1.28,5.98,1.71,1.96.43,3.88.65,5.75.65,2.39,0,4.31-.41,5.75-1.24,1.44-.82,2.16-1.96,2.16-3.42,0-1.31-.53-2.32-1.6-3.03-1.07-.71-2.74-1.07-5.02-1.07-1.09,0-2.23.06-3.42.17-1.2.11-2.25.17-3.14.17-2.47,0-4.14-.61-5.02-1.82-.88-1.21-1.17-3.08-.87-5.58l1.74-15.26h8.19l-1.91,16.78-1.01-1.74c4.19-.67,7.7-.84,10.52-.5,2.82.34,5.07,1.06,6.73,2.16,1.66,1.1,2.86,2.46,3.59,4.07.73,1.61,1.09,3.37,1.09,5.28,0,2.84-.71,5.22-2.13,7.13-1.42,1.91-3.43,3.33-6.03,4.26s-5.64,1.4-9.12,1.4ZM1161.27,756.9v-7.86h25.48v7.86h-25.48Z" fill="#95caa6"/><path d="M1197.58,787.82c-1.54,0-2.73-.42-3.59-1.26-.86-.84-1.29-1.94-1.29-3.28,0-1.42.43-2.53,1.29-3.34.86-.8,2.06-1.21,3.59-1.21s2.68.4,3.56,1.21c.88.81,1.32,1.92,1.32,3.34,0,1.35-.44,2.44-1.32,3.28-.88.84-2.07,1.26-3.56,1.26Z" fill="#95caa6"/><path d="M1215.26,787.2c-1.87,0-3.39-.3-4.54-.9-1.16-.6-1.98-1.44-2.47-2.53s-.73-2.28-.73-3.59c0-2.06.37-3.81,1.09-5.25.73-1.44,1.7-2.67,2.92-3.68,1.22-1.01,2.55-1.87,4.01-2.58,1.46-.71,2.91-1.36,4.35-1.94,1.44-.58,2.77-1.15,3.98-1.71,1.22-.56,2.19-1.22,2.92-1.96s1.09-1.68,1.09-2.81c0-.75-.18-1.44-.53-2.08-.36-.64-.9-1.16-1.63-1.57-.73-.41-1.67-.62-2.83-.62-1.35,0-2.49.23-3.42.7-.94.47-1.78,1.02-2.53,1.66s-1.5,1.18-2.24,1.63c-.75.45-1.61.67-2.58.67-1.23,0-2.21-.37-2.92-1.09s-1.07-1.66-1.07-2.78c0-.97.25-1.84.76-2.61s1.15-1.45,1.94-2.05c1.16-.97,2.7-1.84,4.63-2.61,1.93-.77,4.33-1.15,7.21-1.15,4.6,0,8.21,1.03,10.83,3.09,2.62,2.06,3.93,4.98,3.93,8.75,0,2.02-.37,3.73-1.09,5.13-.73,1.4-1.68,2.58-2.86,3.54-1.18.95-2.49,1.75-3.93,2.38-1.44.64-2.87,1.21-4.29,1.71-1.42.5-2.72,1.02-3.9,1.54-1.18.52-2.11,1.13-2.81,1.82-.69.69-1.02,1.56-.98,2.61h20.2v8.25h-22.5Z" fill="#95caa6"/><path d="M1255.55,787.88c-2.51,0-4.8-.21-6.87-.62-2.08-.41-3.88-.93-5.42-1.57v-7.69c2.02.71,4.01,1.28,5.98,1.71,1.96.43,3.96.64,5.98.64,2.47,0,4.34-.37,5.61-1.12,1.27-.75,1.91-1.76,1.91-3.03,0-1.12-.44-1.99-1.32-2.61s-2.09-1.05-3.62-1.29c-1.53-.24-3.31-.36-5.33-.36h-2.81v-7.24h2.81c1.76,0,3.35-.14,4.77-.42s2.56-.76,3.42-1.43c.86-.67,1.29-1.59,1.29-2.75,0-1.23-.48-2.23-1.43-2.97-.95-.75-2.25-1.12-3.9-1.12-1.31,0-2.43.22-3.37.67-.94.45-1.77.95-2.5,1.51-.73.56-1.46,1.07-2.19,1.52-.73.45-1.56.67-2.5.67-1.23,0-2.21-.35-2.92-1.07-.71-.71-1.07-1.63-1.07-2.75,0-.93.24-1.78.73-2.53.49-.75,1.1-1.4,1.85-1.96,1.16-.97,2.72-1.83,4.69-2.58,1.96-.75,4.37-1.12,7.21-1.12,3.1,0,5.77.45,8,1.35,2.23.9,3.93,2.18,5.11,3.84,1.18,1.67,1.77,3.66,1.77,5.98s-.74,4.33-2.22,5.81-3.83,2.54-7.04,3.17l-.28-1.91c2.47.34,4.49.94,6.06,1.8s2.73,1.96,3.48,3.31c.75,1.35,1.12,2.94,1.12,4.77,0,2.54-.71,4.67-2.13,6.37s-3.4,2.96-5.95,3.79c-2.54.82-5.52,1.24-8.92,1.24Z" fill="#95caa6"/><path d="M727.21,121.22c-5.82,0-10.54,4.72-10.54,10.54s4.72,10.54,10.54,10.54,10.54-4.72,10.54-10.54-4.72-10.54-10.54-10.54ZM727.21,135.28c-1.94,0-3.51-1.57-3.51-3.51s1.57-3.51,3.51-3.51,3.51,1.57,3.51,3.51-1.57,3.51-3.51,3.51Z" fill="#d7433b"/><path d="M758.83,121.22c-5.82,0-10.54,4.72-10.54,10.54s4.72,10.54,10.54,10.54,10.54-4.72,10.54-10.54-4.72-10.54-10.54-10.54ZM758.83,135.28c-1.94,0-3.51-1.57-3.51-3.51s1.57-3.51,3.51-3.51,3.51,1.57,3.51,3.51-1.57,3.51-3.51,3.51Z" fill="#d7433b"/><path d="M790.46,121.22c-5.82,0-10.54,4.72-10.54,10.54s4.72,10.54,10.54,10.54,10.54-4.72,10.54-10.54-4.72-10.54-10.54-10.54ZM790.46,135.28c-1.94,0-3.51-1.57-3.51-3.51s1.57-3.51,3.51-3.51,3.51,1.57,3.51,3.51-1.57,3.51-3.51,3.51Z" fill="#d7433b"/><path d="M888.84,107.17h-175.69c-9.7,0-17.57,7.87-17.57,17.57v140.55c0,9.7,7.87,17.57,17.57,17.57h175.69c9.7,0,17.57-7.87,17.57-17.57V124.74c0-9.7-7.87-17.57-17.57-17.57ZM702.61,124.74c0-5.82,4.72-10.54,10.54-10.54h175.69c5.82,0,10.54,4.72,10.54,10.54v24.6h-196.77v-24.6ZM888.84,275.83h-175.69c-5.82,0-10.54-4.72-10.54-10.54v-108.93h196.77v108.93c0,5.82-4.72,10.54-10.54,10.54Z" fill="#d7433b"/><path d="M846.68,216.09c0-7.83-2.02-15.53-5.87-22.35-.12-.3-.29-.59-.49-.84-12.86-21.71-40.88-28.88-62.58-16.02-6.6,3.91-12.11,9.42-16.02,16.02-.2.26-.37.54-.49.84-7.83,13.86-7.83,30.8,0,44.66.13.3.31.59.53.84,12.87,21.7,40.9,28.85,62.59,15.97,6.58-3.9,12.07-9.4,15.97-15.97.21-.25.39-.54.53-.84,3.83-6.81,5.84-14.5,5.83-22.31ZM801,254.75c-3.76,0-7.8-5.38-10.54-14.06h21.08c-2.74,8.68-6.78,14.06-10.54,14.06ZM788.63,233.66c-.94-4.63-1.51-9.33-1.69-14.06h28.11c-.16,4.72-.7,9.42-1.62,14.06h-24.81ZM766.6,198.53h14.83c-.85,4.64-1.35,9.34-1.51,14.06h-17.57c.5-4.92,1.94-9.69,4.25-14.06ZM801,177.44c3.76,0,7.8,5.38,10.54,14.06h-21.08c2.74-8.68,6.78-14.06,10.54-14.06ZM813.37,198.53c.94,4.63,1.51,9.33,1.69,14.06h-28.11c.16-4.72.7-9.42,1.62-14.06h24.81ZM839.48,212.58h-17.39c-.14-4.71-.62-9.41-1.44-14.06h14.83c2.22,4.38,3.58,9.16,4.01,14.06ZM762.52,219.61h17.57c.14,4.71.62,9.41,1.44,14.06h-14.93c-2.25-4.38-3.63-9.15-4.08-14.06ZM822.08,219.61h17.57c-.44,4.9-1.83,9.68-4.08,14.06h-15c.85-4.64,1.35-9.34,1.51-14.06ZM830.87,191.5h-11.91c-1.11-4.11-2.75-8.05-4.88-11.74,6.53,2.34,12.3,6.39,16.73,11.74h.07ZM787.96,179.76c-2.15,3.68-3.8,7.63-4.92,11.74h-11.84c4.43-5.35,10.22-9.4,16.76-11.74ZM771.2,240.69h11.84c1.11,4.11,2.75,8.05,4.88,11.74-6.53-2.34-12.3-6.39-16.73-11.74ZM814.04,252.43c2.15-3.68,3.8-7.63,4.92-11.74h11.84c-4.43,5.35-10.22,9.4-16.76,11.74Z" fill="#d7433b"/><path d="M1014.76,212.07c15.98,6.15,32.16,12.8,48.45,19.95,122.07,53.53,219.52,121.09,262.97,177.04" fill="none" stroke="#d1d3d4" stroke-miterlimit="10" stroke-width="7"/><path d="M975.05,197.65c16.14,13.74,35,34.02,44.79,51.79l.1-35.4,22.72-27.14c-18.93,7.28-46.42,10.65-67.62,10.75Z" fill="#d1d3d4"/><path d="M291.28,373.31c12.64-11.18,25.91-22.17,39.76-32.88,104.43-80.73,215.7-125.24,294.34-124.33" fill="none" stroke="#d1d3d4" stroke-miterlimit="10" stroke-width="7"/><path d="M260.45,402.19c19.57-8.16,46.2-15.76,66.47-16.44l-31.51-16.15-13.88-32.56c-2.1,20.18-11.56,46.2-21.08,65.14Z" fill="#d1d3d4"/></g></g></svg>