<?xml version="1.0" encoding="UTF-8"?><svg xmlns="http://www.w3.org/2000/svg" xmlns:xlink="http://www.w3.org/1999/xlink" viewBox="0 0 1600 900"><defs><clipPath id="c"><rect y="0" width="1600" height="900" fill="none"/></clipPath></defs><g isolation="isolate"><g id="b"><g clip-path="url(#c)"><g mix-blend-mode="soft-light"><polygon points="103.24 -38.14 18.73 -38.14 -23.52 35.04 18.73 108.23 103.24 108.23 145.49 35.04 103.24 -38.14" fill="none" stroke="#fff" stroke-miterlimit="10"/><polygon points="103.24 108.23 18.73 108.23 -23.52 181.41 18.73 254.6 103.24 254.6 145.49 181.41 103.24 108.23" fill="none" stroke="#fff" stroke-miterlimit="10"/><polygon points="103.24 254.6 18.73 254.6 -23.52 327.78 18.73 400.97 103.24 400.97 145.49 327.78 103.24 254.6" fill="none" stroke="#fff" stroke-miterlimit="10"/><polygon points="103.24 400.97 18.73 400.97 -23.52 474.15 18.73 547.34 103.24 547.34 145.49 474.15 103.24 400.97" fill="none" stroke="#fff" stroke-miterlimit="10"/><polygon points="103.24 547.34 18.73 547.34 -23.52 620.52 18.73 693.7 103.24 693.7 145.49 620.52 103.24 547.34" fill="none" stroke="#fff" stroke-miterlimit="10"/><polygon points="103.24 693.7 18.73 693.7 -23.52 766.89 18.73 840.07 103.24 840.07 145.49 766.89 103.24 693.7" fill="none" stroke="#fff" stroke-miterlimit="10"/><polygon points="103.24 840.07 18.73 840.07 -23.52 913.26 18.73 986.44 103.24 986.44 145.49 913.26 103.24 840.07" fill="none" stroke="#fff" stroke-miterlimit="10"/><polygon points="229.77 35.04 145.26 35.04 103.01 108.23 145.26 181.41 229.77 181.41 272.02 108.23 229.77 35.04" fill="none" stroke="#fff" stroke-miterlimit="10"/><polygon points="229.77 181.41 145.26 181.41 103.01 254.6 145.26 327.78 229.77 327.78 272.02 254.6 229.77 181.41" fill="none" stroke="#fff" stroke-miterlimit="10"/><polygon points="229.77 327.78 145.26 327.78 103.01 400.97 145.26 474.15 229.77 474.15 272.02 400.97 229.77 327.78" fill="none" stroke="#fff" stroke-miterlimit="10"/><polygon points="229.77 474.15 145.26 474.15 103.01 547.34 145.26 620.52 229.77 620.52 272.02 547.34 229.77 474.15" fill="none" stroke="#fff" stroke-miterlimit="10"/><polygon points="229.77 620.52 145.26 620.52 103.01 693.7 145.26 766.89 229.77 766.89 272.02 693.7 229.77 620.52" fill="none" stroke="#fff" stroke-miterlimit="10"/><polygon points="229.77 766.89 145.26 766.89 103.01 840.07 145.26 913.26 229.77 913.26 272.02 840.07 229.77 766.89" fill="none" stroke="#fff" stroke-miterlimit="10"/><polygon points="356.27 -38.14 271.77 -38.14 229.51 35.04 271.77 108.23 356.27 108.23 398.52 35.04 356.27 -38.14" fill="none" stroke="#fff" stroke-miterlimit="10"/><polygon points="356.27 108.23 271.77 108.23 229.51 181.41 271.77 254.6 356.27 254.6 398.52 181.41 356.27 108.23" fill="none" stroke="#fff" stroke-miterlimit="10"/><polygon points="356.27 254.6 271.77 254.6 229.51 327.78 271.77 400.97 356.27 400.97 398.52 327.78 356.27 254.6" fill="none" stroke="#fff" stroke-miterlimit="10"/><polygon points="356.27 400.97 271.77 400.97 229.51 474.15 271.77 547.34 356.27 547.34 398.52 474.15 356.27 400.97" fill="none" stroke="#fff" stroke-miterlimit="10"/><polygon points="356.27 547.34 271.77 547.34 229.51 620.52 271.77 693.7 356.27 693.7 398.52 620.52 356.27 547.34" fill="none" stroke="#fff" stroke-miterlimit="10"/><polygon points="356.27 693.7 271.77 693.7 229.51 766.89 271.77 840.07 356.27 840.07 398.52 766.89 356.27 693.7" fill="none" stroke="#fff" stroke-miterlimit="10"/><polygon points="356.27 840.07 271.77 840.07 229.51 913.26 271.77 986.44 356.27 986.44 398.52 913.26 356.27 840.07" fill="none" stroke="#fff" stroke-miterlimit="10"/><polygon points="482.8 35.04 398.29 35.04 356.04 108.23 398.29 181.41 482.8 181.41 525.05 108.23 482.8 35.04" fill="none" stroke="#fff" stroke-miterlimit="10"/><polygon points="482.8 181.41 398.29 181.41 356.04 254.6 398.29 327.78 482.8 327.78 525.05 254.6 482.8 181.41" fill="none" stroke="#fff" stroke-miterlimit="10"/><polygon points="482.8 327.78 398.29 327.78 356.04 400.97 398.29 474.15 482.8 474.15 525.05 400.97 482.8 327.78" fill="none" stroke="#fff" stroke-miterlimit="10"/><polygon points="482.8 474.15 398.29 474.15 356.04 547.34 398.29 620.52 482.8 620.52 525.05 547.34 482.8 474.15" fill="none" stroke="#fff" stroke-miterlimit="10"/><polygon points="482.8 620.52 398.29 620.52 356.04 693.7 398.29 766.89 482.8 766.89 525.05 693.7 482.8 620.52" fill="none" stroke="#fff" stroke-miterlimit="10"/><polygon points="482.8 766.89 398.29 766.89 356.04 840.07 398.29 913.26 482.8 913.26 525.05 840.07 482.8 766.89" fill="none" stroke="#fff" stroke-miterlimit="10"/><polygon points="609.31 -38.14 524.8 -38.14 482.55 35.04 524.8 108.23 609.31 108.23 651.56 35.04 609.31 -38.14" fill="none" stroke="#fff" stroke-miterlimit="10"/><polygon points="609.31 108.23 524.8 108.23 482.55 181.41 524.8 254.6 609.31 254.6 651.56 181.41 609.31 108.23" fill="none" stroke="#fff" stroke-miterlimit="10"/><polygon points="609.31 254.6 524.8 254.6 482.55 327.78 524.8 400.97 609.31 400.97 651.56 327.78 609.31 254.6" fill="none" stroke="#fff" stroke-miterlimit="10"/><polygon points="609.31 400.97 524.8 400.97 482.55 474.15 524.8 547.34 609.31 547.34 651.56 474.15 609.31 400.97" fill="none" stroke="#fff" stroke-miterlimit="10"/><polygon points="609.31 547.34 524.8 547.34 482.55 620.52 524.8 693.7 609.31 693.7 651.56 620.52 609.31 547.34" fill="none" stroke="#fff" stroke-miterlimit="10"/><polygon points="609.31 693.7 524.8 693.7 482.55 766.89 524.8 840.07 609.31 840.07 651.56 766.89 609.31 693.7" fill="none" stroke="#fff" stroke-miterlimit="10"/><polygon points="609.31 840.07 524.8 840.07 482.55 913.26 524.8 986.44 609.31 986.44 651.56 913.26 609.31 840.07" fill="none" stroke="#fff" stroke-miterlimit="10"/><polygon points="735.83 35.04 651.33 35.04 609.07 108.23 651.33 181.41 735.83 181.41 778.09 108.23 735.83 35.04" fill="none" stroke="#fff" stroke-miterlimit="10"/><polygon points="735.83 181.41 651.33 181.41 609.07 254.6 651.33 327.78 735.83 327.78 778.09 254.6 735.83 181.41" fill="none" stroke="#fff" stroke-miterlimit="10"/><polygon points="735.83 327.78 651.33 327.78 609.07 400.97 651.33 474.15 735.83 474.15 778.09 400.97 735.83 327.78" fill="none" stroke="#fff" stroke-miterlimit="10"/><polygon points="735.83 474.15 651.33 474.15 609.07 547.34 651.33 620.52 735.83 620.52 778.09 547.34 735.83 474.15" fill="none" stroke="#fff" stroke-miterlimit="10"/><polygon points="735.83 620.52 651.33 620.52 609.07 693.7 651.33 766.89 735.83 766.89 778.09 693.7 735.83 620.52" fill="none" stroke="#fff" stroke-miterlimit="10"/><polygon points="735.83 766.89 651.33 766.89 609.07 840.07 651.33 913.26 735.83 913.26 778.09 840.07 735.83 766.89" fill="none" stroke="#fff" stroke-miterlimit="10"/><polygon points="862.34 -38.14 777.83 -38.14 735.58 35.04 777.83 108.23 862.34 108.23 904.59 35.04 862.34 -38.14" fill="none" stroke="#fff" stroke-miterlimit="10"/><polygon points="862.34 108.23 777.83 108.23 735.58 181.41 777.83 254.6 862.34 254.6 904.59 181.41 862.34 108.23" fill="none" stroke="#fff" stroke-miterlimit="10"/><polygon points="862.34 254.6 777.83 254.6 735.58 327.78 777.83 400.97 862.34 400.97 904.59 327.78 862.34 254.6" fill="none" stroke="#fff" stroke-miterlimit="10"/><polygon points="862.34 400.97 777.83 400.97 735.58 474.15 777.83 547.34 862.34 547.34 904.59 474.15 862.34 400.97" fill="none" stroke="#fff" stroke-miterlimit="10"/><polygon points="862.34 547.34 777.83 547.34 735.58 620.52 777.83 693.7 862.34 693.7 904.59 620.52 862.34 547.34" fill="none" stroke="#fff" stroke-miterlimit="10"/><polygon points="862.34 693.7 777.83 693.7 735.58 766.89 777.83 840.07 862.34 840.07 904.59 766.89 862.34 693.7" fill="none" stroke="#fff" stroke-miterlimit="10"/><polygon points="862.34 840.07 777.83 840.07 735.58 913.26 777.83 986.44 862.34 986.44 904.59 913.26 862.34 840.07" fill="none" stroke="#fff" stroke-miterlimit="10"/><polygon points="988.87 35.04 904.36 35.04 862.11 108.23 904.36 181.41 988.87 181.41 1031.12 108.23 988.87 35.04" fill="none" stroke="#fff" stroke-miterlimit="10"/><polygon points="988.87 181.41 904.36 181.41 862.11 254.6 904.36 327.78 988.87 327.78 1031.12 254.6 988.87 181.41" fill="none" stroke="#fff" stroke-miterlimit="10"/><polygon points="988.87 327.78 904.36 327.78 862.11 400.97 904.36 474.15 988.87 474.15 1031.12 400.97 988.87 327.78" fill="none" stroke="#fff" stroke-miterlimit="10"/><polygon points="988.87 474.15 904.36 474.15 862.11 547.34 904.36 620.52 988.87 620.52 1031.12 547.34 988.87 474.15" fill="none" stroke="#fff" stroke-miterlimit="10"/><polygon points="988.87 620.52 904.36 620.52 862.11 693.7 904.36 766.89 988.87 766.89 1031.12 693.7 988.87 620.52" fill="none" stroke="#fff" stroke-miterlimit="10"/><polygon points="988.87 766.89 904.36 766.89 862.11 840.07 904.36 913.26 988.87 913.26 1031.12 840.07 988.87 766.89" fill="none" stroke="#fff" stroke-miterlimit="10"/><polygon points="1115.37 -38.14 1030.87 -38.14 988.61 35.04 1030.87 108.23 1115.37 108.23 1157.62 35.04 1115.37 -38.14" fill="none" stroke="#fff" stroke-miterlimit="10"/><polygon points="1115.37 108.23 1030.87 108.23 988.61 181.41 1030.87 254.6 1115.37 254.6 1157.62 181.41 1115.37 108.23" fill="none" stroke="#fff" stroke-miterlimit="10"/><polygon points="1115.37 254.6 1030.87 254.6 988.61 327.78 1030.87 400.97 1115.37 400.97 1157.62 327.78 1115.37 254.6" fill="none" stroke="#fff" stroke-miterlimit="10"/><polygon points="1115.37 400.97 1030.87 400.97 988.61 474.15 1030.87 547.34 1115.37 547.34 1157.62 474.15 1115.37 400.97" fill="none" stroke="#fff" stroke-miterlimit="10"/><polygon points="1115.37 547.34 1030.87 547.34 988.61 620.52 1030.87 693.7 1115.37 693.7 1157.62 620.52 1115.37 547.34" fill="none" stroke="#fff" stroke-miterlimit="10"/><polygon points="1115.37 693.7 1030.87 693.7 988.61 766.89 1030.87 840.07 1115.37 840.07 1157.62 766.89 1115.37 693.7" fill="none" stroke="#fff" stroke-miterlimit="10"/><polygon points="1115.37 840.07 1030.87 840.07 988.61 913.26 1030.87 986.44 1115.37 986.44 1157.62 913.26 1115.37 840.07" fill="none" stroke="#fff" stroke-miterlimit="10"/><polygon points="1241.9 35.04 1157.39 35.04 1115.14 108.23 1157.39 181.41 1241.9 181.41 1284.15 108.23 1241.9 35.04" fill="none" stroke="#fff" stroke-miterlimit="10"/><polygon points="1241.9 181.41 1157.39 181.41 1115.14 254.6 1157.39 327.78 1241.9 327.78 1284.15 254.6 1241.9 181.41" fill="none" stroke="#fff" stroke-miterlimit="10"/><polygon points="1241.9 327.78 1157.39 327.78 1115.14 400.97 1157.39 474.15 1241.9 474.15 1284.15 400.97 1241.9 327.78" fill="none" stroke="#fff" stroke-miterlimit="10"/><polygon points="1241.9 474.15 1157.39 474.15 1115.14 547.34 1157.39 620.52 1241.9 620.52 1284.15 547.34 1241.9 474.15" fill="none" stroke="#fff" stroke-miterlimit="10"/><polygon points="1241.9 620.52 1157.39 620.52 1115.14 693.7 1157.39 766.89 1241.9 766.89 1284.15 693.7 1241.9 620.52" fill="none" stroke="#fff" stroke-miterlimit="10"/><polygon points="1241.9 766.89 1157.39 766.89 1115.14 840.07 1157.39 913.26 1241.9 913.26 1284.15 840.07 1241.9 766.89" fill="none" stroke="#fff" stroke-miterlimit="10"/><polygon points="1368.4 -38.14 1283.9 -38.14 1241.65 35.04 1283.9 108.23 1368.4 108.23 1410.66 35.04 1368.4 -38.14" fill="none" stroke="#fff" stroke-miterlimit="10"/><polygon points="1368.4 108.23 1283.9 108.23 1241.65 181.41 1283.9 254.6 1368.4 254.6 1410.66 181.41 1368.4 108.23" fill="none" stroke="#fff" stroke-miterlimit="10"/><polygon points="1368.4 254.6 1283.9 254.6 1241.65 327.78 1283.9 400.97 1368.4 400.97 1410.66 327.78 1368.4 254.6" fill="none" stroke="#fff" stroke-miterlimit="10"/><polygon points="1368.4 400.97 1283.9 400.97 1241.65 474.15 1283.9 547.34 1368.4 547.34 1410.66 474.15 1368.4 400.97" fill="none" stroke="#fff" stroke-miterlimit="10"/><polygon points="1368.4 547.34 1283.9 547.34 1241.65 620.52 1283.9 693.7 1368.4 693.7 1410.66 620.52 1368.4 547.34" fill="none" stroke="#fff" stroke-miterlimit="10"/><polygon points="1368.4 693.7 1283.9 693.7 1241.65 766.89 1283.9 840.07 1368.4 840.07 1410.66 766.89 1368.4 693.7" fill="none" stroke="#fff" stroke-miterlimit="10"/><polygon points="1368.4 840.07 1283.9 840.07 1241.65 913.26 1283.9 986.44 1368.4 986.44 1410.66 913.26 1368.4 840.07" fill="none" stroke="#fff" stroke-miterlimit="10"/><polygon points="1494.93 35.04 1410.43 35.04 1368.17 108.23 1410.43 181.41 1494.93 181.41 1537.18 108.23 1494.93 35.04" fill="none" stroke="#fff" stroke-miterlimit="10"/><polygon points="1494.93 181.41 1410.43 181.41 1368.17 254.6 1410.43 327.78 1494.93 327.78 1537.18 254.6 1494.93 181.41" fill="none" stroke="#fff" stroke-miterlimit="10"/><polygon points="1494.93 327.78 1410.43 327.78 1368.17 400.97 1410.43 474.15 1494.93 474.15 1537.18 400.97 1494.93 327.78" fill="none" stroke="#fff" stroke-miterlimit="10"/><polygon points="1494.93 474.15 1410.43 474.15 1368.17 547.34 1410.43 620.52 1494.93 620.52 1537.18 547.34 1494.93 474.15" fill="none" stroke="#fff" stroke-miterlimit="10"/><polygon points="1494.93 620.52 1410.43 620.52 1368.17 693.7 1410.43 766.89 1494.93 766.89 1537.18 693.7 1494.93 620.52" fill="none" stroke="#fff" stroke-miterlimit="10"/><polygon points="1494.93 766.89 1410.43 766.89 1368.17 840.07 1410.43 913.26 1494.93 913.26 1537.18 840.07 1494.93 766.89" fill="none" stroke="#fff" stroke-miterlimit="10"/><polygon points="1621.44 -38.14 1536.93 -38.14 1494.68 35.04 1536.93 108.23 1621.44 108.23 1663.69 35.04 1621.44 -38.14" fill="none" stroke="#fff" stroke-miterlimit="10"/><polygon points="1621.44 108.23 1536.93 108.23 1494.68 181.41 1536.93 254.6 1621.44 254.6 1663.69 181.41 1621.44 108.23" fill="none" stroke="#fff" stroke-miterlimit="10"/><polygon points="1621.44 254.6 1536.93 254.6 1494.68 327.78 1536.93 400.97 1621.44 400.97 1663.69 327.78 1621.44 254.6" fill="none" stroke="#fff" stroke-miterlimit="10"/><polygon points="1621.44 400.97 1536.93 400.97 1494.68 474.15 1536.93 547.34 1621.44 547.34 1663.69 474.15 1621.44 400.97" fill="none" stroke="#fff" stroke-miterlimit="10"/><polygon points="1621.44 547.34 1536.93 547.34 1494.68 620.52 1536.93 693.7 1621.44 693.7 1663.69 620.52 1621.44 547.34" fill="none" stroke="#fff" stroke-miterlimit="10"/><polygon points="1621.44 693.7 1536.93 693.7 1494.68 766.89 1536.93 840.07 1621.44 840.07 1663.69 766.89 1621.44 693.7" fill="none" stroke="#fff" stroke-miterlimit="10"/><polygon points="1621.44 840.07 1536.93 840.07 1494.68 913.26 1536.93 986.44 1621.44 986.44 1663.69 913.26 1621.44 840.07" fill="none" stroke="#fff" stroke-miterlimit="10"/><g opacity=".6"><polygon points="103.24 -38.14 18.73 -38.14 -23.52 35.04 18.73 108.23 103.24 108.23 145.49 35.04 103.24 -38.14" fill="#fff" opacity=".9"/><polygon points="103.24 108.23 18.73 108.23 -23.52 181.41 18.73 254.6 103.24 254.6 145.49 181.41 103.24 108.23" fill="#fff"/><polygon points="103.24 254.6 18.73 254.6 -23.52 327.78 18.73 400.97 103.24 400.97 145.49 327.78 103.24 254.6" fill="#fff" opacity=".5"/><polygon points="103.24 400.97 18.73 400.97 -23.52 474.15 18.73 547.34 103.24 547.34 145.49 474.15 103.24 400.97" fill="#fff"/><polygon points="103.24 547.34 18.73 547.34 -23.52 620.52 18.73 693.7 103.24 693.7 145.49 620.52 103.24 547.34" fill="#fff" opacity=".9"/><polygon points="103.24 693.7 18.73 693.7 -23.52 766.89 18.73 840.07 103.24 840.07 145.49 766.89 103.24 693.7" fill="#fff" opacity=".5"/><polygon points="103.24 840.07 18.73 840.07 -23.52 913.26 18.73 986.44 103.24 986.44 145.49 913.26 103.24 840.07" fill="#fff"/><polygon points="229.77 35.04 145.26 35.04 103.01 108.23 145.26 181.41 229.77 181.41 272.02 108.23 229.77 35.04" fill="#fff" opacity=".5"/><polygon points="229.77 181.41 145.26 181.41 103.01 254.6 145.26 327.78 229.77 327.78 272.02 254.6 229.77 181.41" fill="#fff"/><polygon points="229.77 327.78 145.26 327.78 103.01 400.97 145.26 474.15 229.77 474.15 272.02 400.97 229.77 327.78" fill="#fff"/><polygon points="229.77 474.15 145.26 474.15 103.01 547.34 145.26 620.52 229.77 620.52 272.02 547.34 229.77 474.15" fill="#fff" opacity=".5"/><polygon points="229.77 620.52 145.26 620.52 103.01 693.7 145.26 766.89 229.77 766.89 272.02 693.7 229.77 620.52" fill="#fff"/><polygon points="229.77 766.89 145.26 766.89 103.01 840.07 145.26 913.26 229.77 913.26 272.02 840.07 229.77 766.89" fill="#fff" opacity=".8"/><polygon points="356.27 -38.14 271.77 -38.14 229.51 35.04 271.77 108.23 356.27 108.23 398.52 35.04 356.27 -38.14" fill="#fff"/><polygon points="356.27 108.23 271.77 108.23 229.51 181.41 271.77 254.6 356.27 254.6 398.52 181.41 356.27 108.23" fill="#fff"/><polygon points="356.27 254.6 271.77 254.6 229.51 327.78 271.77 400.97 356.27 400.97 398.52 327.78 356.27 254.6" fill="#fff" opacity=".8"/><polygon points="356.27 400.97 271.77 400.97 229.51 474.15 271.77 547.34 356.27 547.34 398.52 474.15 356.27 400.97" fill="#fff"/><polygon points="356.27 547.34 271.77 547.34 229.51 620.52 271.77 693.7 356.27 693.7 398.52 620.52 356.27 547.34" fill="#fff" opacity=".9"/><polygon points="356.27 693.7 271.77 693.7 229.51 766.89 271.77 840.07 356.27 840.07 398.52 766.89 356.27 693.7" fill="#fff"/><polygon points="356.27 840.07 271.77 840.07 229.51 913.26 271.77 986.44 356.27 986.44 398.52 913.26 356.27 840.07" fill="#fff"/><polygon points="482.8 35.04 398.29 35.04 356.04 108.23 398.29 181.41 482.8 181.41 525.05 108.23 482.8 35.04" fill="#fff" opacity=".9"/><polygon points="482.8 181.41 398.29 181.41 356.04 254.6 398.29 327.78 482.8 327.78 525.05 254.6 482.8 181.41" fill="#fff" opacity=".5"/><polygon points="482.8 327.78 398.29 327.78 356.04 400.97 398.29 474.15 482.8 474.15 525.05 400.97 482.8 327.78" fill="#fff" opacity=".9"/><polygon points="482.8 474.15 398.29 474.15 356.04 547.34 398.29 620.52 482.8 620.52 525.05 547.34 482.8 474.15" fill="#fff" opacity=".8"/><polygon points="482.8 620.52 398.29 620.52 356.04 693.7 398.29 766.89 482.8 766.89 525.05 693.7 482.8 620.52" fill="#fff" opacity=".5"/><polygon points="482.8 766.89 398.29 766.89 356.04 840.07 398.29 913.26 482.8 913.26 525.05 840.07 482.8 766.89" fill="#fff" opacity=".9"/><polygon points="609.31 -38.14 524.8 -38.14 482.55 35.04 524.8 108.23 609.31 108.23 651.56 35.04 609.31 -38.14" fill="#fff"/><polygon points="609.31 108.23 524.8 108.23 482.55 181.41 524.8 254.6 609.31 254.6 651.56 181.41 609.31 108.23" fill="#fff" opacity=".5"/><polygon points="609.31 254.6 524.8 254.6 482.55 327.78 524.8 400.97 609.31 400.97 651.56 327.78 609.31 254.6" fill="#fff"/><polygon points="609.31 400.97 524.8 400.97 482.55 474.15 524.8 547.34 609.31 547.34 651.56 474.15 609.31 400.97" fill="#fff"/><polygon points="609.31 547.34 524.8 547.34 482.55 620.52 524.8 693.7 609.31 693.7 651.56 620.52 609.31 547.34" fill="#fff"/><polygon points="609.31 693.7 524.8 693.7 482.55 766.89 524.8 840.07 609.31 840.07 651.56 766.89 609.31 693.7" fill="#fff"/><polygon points="609.31 840.07 524.8 840.07 482.55 913.26 524.8 986.44 609.31 986.44 651.56 913.26 609.31 840.07" fill="#fff"/><polygon points="735.83 35.04 651.33 35.04 609.07 108.23 651.33 181.41 735.83 181.41 778.09 108.23 735.83 35.04" fill="#fff"/><polygon points="735.83 181.41 651.33 181.41 609.07 254.6 651.33 327.78 735.83 327.78 778.09 254.6 735.83 181.41" fill="#fff"/><polygon points="735.83 327.78 651.33 327.78 609.07 400.97 651.33 474.15 735.83 474.15 778.09 400.97 735.83 327.78" fill="#fff" opacity=".9"/><polygon points="735.83 474.15 651.33 474.15 609.07 547.34 651.33 620.52 735.83 620.52 778.09 547.34 735.83 474.15" fill="#fff" opacity=".5"/><polygon points="735.83 620.52 651.33 620.52 609.07 693.7 651.33 766.89 735.83 766.89 778.09 693.7 735.83 620.52" fill="#fff"/><polygon points="735.83 766.89 651.33 766.89 609.07 840.07 651.33 913.26 735.83 913.26 778.09 840.07 735.83 766.89" fill="#fff" opacity=".8"/><polygon points="862.34 -38.14 777.83 -38.14 735.58 35.04 777.83 108.23 862.34 108.23 904.59 35.04 862.34 -38.14" fill="#fff" opacity=".9"/><polygon points="862.34 108.23 777.83 108.23 735.58 181.41 777.83 254.6 862.34 254.6 904.59 181.41 862.34 108.23" fill="#fff" opacity=".8"/><polygon points="862.34 254.6 777.83 254.6 735.58 327.78 777.83 400.97 862.34 400.97 904.59 327.78 862.34 254.6" fill="#fff"/><polygon points="862.34 400.97 777.83 400.97 735.58 474.15 777.83 547.34 862.34 547.34 904.59 474.15 862.34 400.97" fill="#fff"/><polygon points="862.34 547.34 777.83 547.34 735.58 620.52 777.83 693.7 862.34 693.7 904.59 620.52 862.34 547.34" fill="#fff" opacity=".8"/><polygon points="862.34 693.7 777.83 693.7 735.58 766.89 777.83 840.07 862.34 840.07 904.59 766.89 862.34 693.7" fill="#fff"/><polygon points="862.34 840.07 777.83 840.07 735.58 913.26 777.83 986.44 862.34 986.44 904.59 913.26 862.34 840.07" fill="#fff"/><polygon points="988.87 35.04 904.36 35.04 862.11 108.23 904.36 181.41 988.87 181.41 1031.12 108.23 988.87 35.04" fill="#fff"/><polygon points="988.87 181.41 904.36 181.41 862.11 254.6 904.36 327.78 988.87 327.78 1031.12 254.6 988.87 181.41" fill="#fff" opacity=".5"/><polygon points="988.87 327.78 904.36 327.78 862.11 400.97 904.36 474.15 988.87 474.15 1031.12 400.97 988.87 327.78" fill="#fff"/><polygon points="988.87 474.15 904.36 474.15 862.11 547.34 904.36 620.52 988.87 620.52 1031.12 547.34 988.87 474.15" fill="#fff"/><polygon points="988.87 620.52 904.36 620.52 862.11 693.7 904.36 766.89 988.87 766.89 1031.12 693.7 988.87 620.52" fill="#fff"/><polygon points="988.87 766.89 904.36 766.89 862.11 840.07 904.36 913.26 988.87 913.26 1031.12 840.07 988.87 766.89" fill="#fff" opacity=".9"/><polygon points="1115.37 -38.14 1030.87 -38.14 988.61 35.04 1030.87 108.23 1115.37 108.23 1157.62 35.04 1115.37 -38.14" fill="#fff" opacity=".8"/><polygon points="1115.37 108.23 1030.87 108.23 988.61 181.41 1030.87 254.6 1115.37 254.6 1157.62 181.41 1115.37 108.23" fill="#fff"/><polygon points="1115.37 254.6 1030.87 254.6 988.61 327.78 1030.87 400.97 1115.37 400.97 1157.62 327.78 1115.37 254.6" fill="#fff"/><polygon points="1115.37 400.97 1030.87 400.97 988.61 474.15 1030.87 547.34 1115.37 547.34 1157.62 474.15 1115.37 400.97" fill="#fff" opacity=".8"/><polygon points="1115.37 547.34 1030.87 547.34 988.61 620.52 1030.87 693.7 1115.37 693.7 1157.62 620.52 1115.37 547.34" fill="#fff" opacity=".5"/><polygon points="1115.37 693.7 1030.87 693.7 988.61 766.89 1030.87 840.07 1115.37 840.07 1157.62 766.89 1115.37 693.7" fill="#fff" opacity=".8"/><polygon points="1115.37 840.07 1030.87 840.07 988.61 913.26 1030.87 986.44 1115.37 986.44 1157.62 913.26 1115.37 840.07" fill="#fff"/><polygon points="1241.9 35.04 1157.39 35.04 1115.14 108.23 1157.39 181.41 1241.9 181.41 1284.15 108.23 1241.9 35.04" fill="#fff"/><polygon points="1241.9 181.41 1157.39 181.41 1115.14 254.6 1157.39 327.78 1241.9 327.78 1284.15 254.6 1241.9 181.41" fill="#fff" opacity=".9"/><polygon points="1241.9 327.78 1157.39 327.78 1115.14 400.97 1157.39 474.15 1241.9 474.15 1284.15 400.97 1241.9 327.78" fill="#fff"/><polygon points="1241.9 474.15 1157.39 474.15 1115.14 547.34 1157.39 620.52 1241.9 620.52 1284.15 547.34 1241.9 474.15" fill="#fff"/><polygon points="1241.9 620.52 1157.39 620.52 1115.14 693.7 1157.39 766.89 1241.9 766.89 1284.15 693.7 1241.9 620.52" fill="#fff"/><polygon points="1241.9 766.89 1157.39 766.89 1115.14 840.07 1157.39 913.26 1241.9 913.26 1284.15 840.07 1241.9 766.89" fill="#fff"/><polygon points="1368.4 -38.14 1283.9 -38.14 1241.65 35.04 1283.9 108.23 1368.4 108.23 1410.66 35.04 1368.4 -38.14" fill="#fff" opacity=".5"/><polygon points="1368.4 108.23 1283.9 108.23 1241.65 181.41 1283.9 254.6 1368.4 254.6 1410.66 181.41 1368.4 108.23" fill="#fff" opacity=".8"/><polygon points="1368.4 254.6 1283.9 254.6 1241.65 327.78 1283.9 400.97 1368.4 400.97 1410.66 327.78 1368.4 254.6" fill="#fff"/><polygon points="1368.4 400.97 1283.9 400.97 1241.65 474.15 1283.9 547.34 1368.4 547.34 1410.66 474.15 1368.4 400.97" fill="#fff" opacity=".5"/><polygon points="1368.4 547.34 1283.9 547.34 1241.65 620.52 1283.9 693.7 1368.4 693.7 1410.66 620.52 1368.4 547.34" fill="#fff" opacity=".9"/><polygon points="1368.4 693.7 1283.9 693.7 1241.65 766.89 1283.9 840.07 1368.4 840.07 1410.66 766.89 1368.4 693.7" fill="#fff" opacity=".5"/><polygon points="1368.4 840.07 1283.9 840.07 1241.65 913.26 1283.9 986.44 1368.4 986.44 1410.66 913.26 1368.4 840.07" fill="#fff"/><polygon points="1494.93 35.04 1410.43 35.04 1368.17 108.23 1410.43 181.41 1494.93 181.41 1537.18 108.23 1494.93 35.04" fill="#fff"/><polygon points="1494.93 181.41 1410.43 181.41 1368.17 254.6 1410.43 327.78 1494.93 327.78 1537.18 254.6 1494.93 181.41" fill="#fff"/><polygon points="1494.93 327.78 1410.43 327.78 1368.17 400.97 1410.43 474.15 1494.93 474.15 1537.18 400.97 1494.93 327.78" fill="#fff" opacity=".8"/><polygon points="1494.93 474.15 1410.43 474.15 1368.17 547.34 1410.43 620.52 1494.93 620.52 1537.18 547.34 1494.93 474.15" fill="#fff"/><polygon points="1494.93 620.52 1410.43 620.52 1368.17 693.7 1410.43 766.89 1494.93 766.89 1537.18 693.7 1494.93 620.52" fill="#fff"/><polygon points="1494.93 766.89 1410.43 766.89 1368.17 840.07 1410.43 913.26 1494.93 913.26 1537.18 840.07 1494.93 766.89" fill="#fff"/><polygon points="1621.44 -38.14 1536.93 -38.14 1494.68 35.04 1536.93 108.23 1621.44 108.23 1663.69 35.04 1621.44 -38.14" fill="#fff" opacity=".9"/><polygon points="1621.44 108.23 1536.93 108.23 1494.68 181.41 1536.93 254.6 1621.44 254.6 1663.69 181.41 1621.44 108.23" fill="#fff" opacity=".8"/><polygon points="1621.44 254.6 1536.93 254.6 1494.68 327.78 1536.93 400.97 1621.44 400.97 1663.69 327.78 1621.44 254.6" fill="#fff"/><polygon points="1621.44 400.97 1536.93 400.97 1494.68 474.15 1536.93 547.34 1621.44 547.34 1663.69 474.15 1621.44 400.97" fill="#fff" opacity=".9"/><polygon points="1621.44 547.34 1536.93 547.34 1494.68 620.52 1536.93 693.7 1621.44 693.7 1663.69 620.52 1621.44 547.34" fill="#fff"/><polygon points="1621.44 693.7 1536.93 693.7 1494.68 766.89 1536.93 840.07 1621.44 840.07 1663.69 766.89 1621.44 693.7" fill="#fff" opacity=".9"/><polygon points="1621.44 840.07 1536.93 840.07 1494.68 913.26 1536.93 986.44 1621.44 986.44 1663.69 913.26 1621.44 840.07" fill="#fff" opacity=".8"/></g></g><g mix-blend-mode="soft-light"><polygon points="1642.5 782.73 1746.58 765.99 1784.13 667.49 1717.59 585.73 1613.52 602.46 1575.97 700.96 1642.5 782.73" fill="none" stroke="#fff" stroke-miterlimit="10"/><polygon points="1613.52 602.46 1717.59 585.73 1755.14 487.23 1688.61 405.46 1584.53 422.19 1546.99 520.69 1613.52 602.46" fill="none" stroke="#fff" stroke-miterlimit="10"/><polygon points="1584.53 422.19 1688.61 405.46 1726.16 306.96 1659.63 225.19 1555.55 241.92 1518 340.42 1584.53 422.19" fill="none" stroke="#fff" stroke-miterlimit="10"/><polygon points="1555.55 241.92 1659.63 225.19 1697.17 126.69 1630.64 44.92 1526.57 61.66 1489.02 160.16 1555.55 241.92" fill="none" stroke="#fff" stroke-miterlimit="10"/><polygon points="1526.57 61.66 1630.64 44.92 1668.19 -53.58 1601.66 -135.34 1497.58 -118.61 1460.04 -20.11 1526.57 61.66" fill="none" stroke="#fff" stroke-miterlimit="10"/><polygon points="1530.17 1078.18 1634.25 1061.45 1671.8 962.94 1605.27 881.18 1501.19 897.91 1463.64 996.41 1530.17 1078.18" fill="none" stroke="#fff" stroke-miterlimit="10"/><polygon points="1501.19 897.91 1605.27 881.18 1642.81 782.68 1576.28 700.91 1472.2 717.64 1434.66 816.14 1501.19 897.91" fill="none" stroke="#fff" stroke-miterlimit="10"/><polygon points="1472.2 717.64 1576.28 700.91 1613.83 602.41 1547.3 520.64 1443.22 537.38 1405.67 635.88 1472.2 717.64" fill="none" stroke="#fff" stroke-miterlimit="10"/><polygon points="1443.22 537.38 1547.3 520.64 1584.85 422.14 1518.31 340.37 1414.24 357.11 1376.69 455.61 1443.22 537.38" fill="none" stroke="#fff" stroke-miterlimit="10"/><polygon points="1414.24 357.11 1518.31 340.37 1555.86 241.87 1489.33 160.11 1385.25 176.84 1347.71 275.34 1414.24 357.11" fill="none" stroke="#fff" stroke-miterlimit="10"/><polygon points="1385.25 176.84 1489.33 160.11 1526.88 61.61 1460.35 -20.16 1356.27 -3.43 1318.72 95.07 1385.25 176.84" fill="none" stroke="#fff" stroke-miterlimit="10"/><polygon points="1359.85 1013.1 1463.93 996.37 1501.47 897.87 1434.94 816.1 1330.87 832.83 1293.32 931.33 1359.85 1013.1" fill="none" stroke="#fff" stroke-miterlimit="10"/><polygon points="1330.87 832.83 1434.94 816.1 1472.49 717.6 1405.96 635.83 1301.88 652.56 1264.33 751.07 1330.87 832.83" fill="none" stroke="#fff" stroke-miterlimit="10"/><polygon points="1301.88 652.56 1405.96 635.83 1443.51 537.33 1376.98 455.56 1272.9 472.3 1235.35 570.8 1301.88 652.56" fill="none" stroke="#fff" stroke-miterlimit="10"/><polygon points="1272.9 472.3 1376.98 455.56 1414.52 357.06 1347.99 275.3 1243.91 292.03 1206.37 390.53 1272.9 472.3" fill="none" stroke="#fff" stroke-miterlimit="10"/><polygon points="1243.91 292.03 1347.99 275.3 1385.54 176.79 1319.01 95.03 1214.93 111.76 1177.38 210.26 1243.91 292.03" fill="none" stroke="#fff" stroke-miterlimit="10"/><polygon points="1214.93 111.76 1319.01 95.03 1356.56 -3.47 1290.03 -85.24 1185.95 -68.51 1148.4 29.99 1214.93 111.76" fill="none" stroke="#fff" stroke-miterlimit="10"/><polygon points="1189.55 948.02 1293.63 931.28 1331.18 832.78 1264.65 751.02 1160.57 767.75 1123.02 866.25 1189.55 948.02" fill="none" stroke="#fff" stroke-miterlimit="10"/><polygon points="1160.57 767.75 1264.65 751.02 1302.19 652.51 1235.66 570.75 1131.59 587.48 1094.04 685.98 1160.57 767.75" fill="none" stroke="#fff" stroke-miterlimit="10"/><polygon points="1131.59 587.48 1235.66 570.75 1273.21 472.25 1206.68 390.48 1102.6 407.21 1065.05 505.71 1131.59 587.48" fill="none" stroke="#fff" stroke-miterlimit="10"/><polygon points="1102.6 407.21 1206.68 390.48 1244.23 291.98 1177.7 210.21 1073.62 226.95 1036.07 325.45 1102.6 407.21" fill="none" stroke="#fff" stroke-miterlimit="10"/><polygon points="1073.62 226.95 1177.7 210.21 1215.24 111.71 1148.71 29.94 1044.63 46.68 1007.09 145.18 1073.62 226.95" fill="none" stroke="#fff" stroke-miterlimit="10"/><polygon points="1044.63 46.68 1148.71 29.94 1186.26 -68.56 1119.73 -150.32 1015.65 -133.59 978.1 -35.09 1044.63 46.68" fill="none" stroke="#fff" stroke-miterlimit="10"/><polygon points="1048.21 1063.21 1152.29 1046.47 1189.84 947.97 1123.31 866.2 1019.23 882.94 981.68 981.44 1048.21 1063.21" fill="none" stroke="#fff" stroke-miterlimit="10"/><polygon points="1019.23 882.94 1123.31 866.2 1160.85 767.7 1094.32 685.94 990.25 702.67 952.7 801.17 1019.23 882.94" fill="none" stroke="#fff" stroke-miterlimit="10"/><polygon points="990.25 702.67 1094.32 685.94 1131.87 587.44 1065.34 505.67 961.26 522.4 923.72 620.9 990.25 702.67" fill="none" stroke="#fff" stroke-miterlimit="10"/><polygon points="961.26 522.4 1065.34 505.67 1102.89 407.17 1036.36 325.4 932.28 342.13 894.73 440.63 961.26 522.4" fill="none" stroke="#fff" stroke-miterlimit="10"/><polygon points="932.28 342.13 1036.36 325.4 1073.9 226.9 1007.37 145.13 903.3 161.87 865.75 260.37 932.28 342.13" fill="none" stroke="#fff" stroke-miterlimit="10"/><polygon points="903.3 161.87 1007.37 145.13 1044.92 46.63 978.39 -35.13 874.31 -18.4 836.77 80.1 903.3 161.87" fill="none" stroke="#fff" stroke-miterlimit="10"/><polygon points="877.92 998.12 982 981.39 1019.54 882.89 953.01 801.12 848.93 817.85 811.39 916.35 877.92 998.12" fill="none" stroke="#fff" stroke-miterlimit="10"/><polygon points="848.93 817.85 953.01 801.12 990.56 702.62 924.03 620.85 819.95 637.59 782.4 736.09 848.93 817.85" fill="none" stroke="#fff" stroke-miterlimit="10"/><polygon points="819.95 637.59 924.03 620.85 961.57 522.35 895.04 440.58 790.97 457.32 753.42 555.82 819.95 637.59" fill="none" stroke="#fff" stroke-miterlimit="10"/><polygon points="790.97 457.32 895.04 440.58 932.59 342.08 866.06 260.32 761.98 277.05 724.44 375.55 790.97 457.32" fill="none" stroke="#fff" stroke-miterlimit="10"/><polygon points="761.98 277.05 866.06 260.32 903.61 161.82 837.08 80.05 733 96.78 695.45 195.28 761.98 277.05" fill="none" stroke="#fff" stroke-miterlimit="10"/><polygon points="733 96.78 837.08 80.05 874.62 -18.45 808.09 -100.22 704.02 -83.48 666.47 15.02 733 96.78" fill="none" stroke="#fff" stroke-miterlimit="10"/><polygon points="707.6 933.04 811.67 916.31 849.22 817.81 782.69 736.04 678.61 752.77 641.06 851.28 707.6 933.04" fill="none" stroke="#fff" stroke-miterlimit="10"/><polygon points="678.61 752.77 782.69 736.04 820.24 637.54 753.71 555.77 649.63 572.51 612.08 671.01 678.61 752.77" fill="none" stroke="#fff" stroke-miterlimit="10"/><polygon points="649.63 572.51 753.71 555.77 791.25 457.27 724.72 375.51 620.64 392.24 583.1 490.74 649.63 572.51" fill="none" stroke="#fff" stroke-miterlimit="10"/><polygon points="620.64 392.24 724.72 375.51 762.27 277 695.74 195.24 591.66 211.97 554.11 310.47 620.64 392.24" fill="none" stroke="#fff" stroke-miterlimit="10"/><polygon points="591.66 211.97 695.74 195.24 733.29 96.74 666.75 14.97 562.68 31.7 525.13 130.2 591.66 211.97" fill="none" stroke="#fff" stroke-miterlimit="10"/><polygon points="562.68 31.7 666.75 14.97 704.3 -83.53 637.77 -165.3 533.69 -148.56 496.15 -50.06 562.68 31.7" fill="none" stroke="#fff" stroke-miterlimit="10"/><polygon points="566.28 1048.23 670.36 1031.49 707.91 932.99 641.38 851.23 537.3 867.96 499.75 966.46 566.28 1048.23" fill="none" stroke="#fff" stroke-miterlimit="10"/><polygon points="537.3 867.96 641.38 851.23 678.92 752.72 612.39 670.96 508.32 687.69 470.77 786.19 537.3 867.96" fill="none" stroke="#fff" stroke-miterlimit="10"/><polygon points="508.32 687.69 612.39 670.96 649.94 572.46 583.41 490.69 479.33 507.42 441.78 605.92 508.32 687.69" fill="none" stroke="#fff" stroke-miterlimit="10"/><polygon points="479.33 507.42 583.41 490.69 620.96 392.19 554.43 310.42 450.35 327.16 412.8 425.66 479.33 507.42" fill="none" stroke="#fff" stroke-miterlimit="10"/><polygon points="450.35 327.16 554.43 310.42 591.97 211.92 525.44 130.15 421.36 146.89 383.82 245.39 450.35 327.16" fill="none" stroke="#fff" stroke-miterlimit="10"/><polygon points="421.36 146.89 525.44 130.15 562.99 31.65 496.46 -50.11 392.38 -33.38 354.83 65.12 421.36 146.89" fill="none" stroke="#fff" stroke-miterlimit="10"/><polygon points="395.96 983.15 500.04 966.41 537.58 867.91 471.05 786.15 366.98 802.88 329.43 901.38 395.96 983.15" fill="none" stroke="#fff" stroke-miterlimit="10"/><polygon points="366.98 802.88 471.05 786.15 508.6 687.65 442.07 605.88 337.99 622.61 300.45 721.11 366.98 802.88" fill="none" stroke="#fff" stroke-miterlimit="10"/><polygon points="337.99 622.61 442.07 605.88 479.62 507.38 413.09 425.61 309.01 442.34 271.46 540.84 337.99 622.61" fill="none" stroke="#fff" stroke-miterlimit="10"/><polygon points="309.01 442.34 413.09 425.61 450.63 327.11 384.1 245.34 280.03 262.08 242.48 360.58 309.01 442.34" fill="none" stroke="#fff" stroke-miterlimit="10"/><polygon points="280.03 262.08 384.1 245.34 421.65 146.84 355.12 65.08 251.04 81.81 213.5 180.31 280.03 262.08" fill="none" stroke="#fff" stroke-miterlimit="10"/><polygon points="251.04 81.81 355.12 65.08 392.67 -33.43 326.14 -115.19 222.06 -98.46 184.51 .04 251.04 81.81" fill="none" stroke="#fff" stroke-miterlimit="10"/><polygon points="225.66 918.06 329.74 901.33 367.29 802.83 300.76 721.06 196.68 737.8 159.13 836.3 225.66 918.06" fill="none" stroke="#fff" stroke-miterlimit="10"/><polygon points="196.68 737.8 300.76 721.06 338.3 622.56 271.77 540.79 167.7 557.53 130.15 656.03 196.68 737.8" fill="none" stroke="#fff" stroke-miterlimit="10"/><polygon points="167.7 557.53 271.77 540.79 309.32 442.29 242.79 360.53 138.71 377.26 101.17 475.76 167.7 557.53" fill="none" stroke="#fff" stroke-miterlimit="10"/><polygon points="138.71 377.26 242.79 360.53 280.34 262.03 213.81 180.26 109.73 196.99 72.18 295.49 138.71 377.26" fill="none" stroke="#fff" stroke-miterlimit="10"/><polygon points="109.73 196.99 213.81 180.26 251.35 81.76 184.82 0 80.75 16.73 43.2 115.23 109.73 196.99" fill="none" stroke="#fff" stroke-miterlimit="10"/><polygon points="84.32 1033.25 188.4 1016.52 225.95 918.02 159.42 836.25 55.34 852.98 17.79 951.49 84.32 1033.25" fill="none" stroke="#fff" stroke-miterlimit="10"/><polygon points="55.34 852.98 159.42 836.25 196.97 737.75 130.44 655.98 26.36 672.72 -11.19 771.22 55.34 852.98" fill="none" stroke="#fff" stroke-miterlimit="10"/><polygon points="26.36 672.72 130.44 655.98 167.98 557.48 101.45 475.72 -2.63 492.45 -40.17 590.95 26.36 672.72" fill="none" stroke="#fff" stroke-miterlimit="10"/><polygon points="-2.63 492.45 101.45 475.72 139 377.21 72.47 295.45 -31.61 312.18 -69.16 410.68 -2.63 492.45" fill="none" stroke="#fff" stroke-miterlimit="10"/><polygon points="-31.61 312.18 72.47 295.45 110.02 196.95 43.48 115.18 -60.59 131.91 -98.14 230.41 -31.61 312.18" fill="none" stroke="#fff" stroke-miterlimit="10"/><polygon points="-60.59 131.91 43.48 115.18 81.03 16.68 14.5 -65.09 -89.58 -48.35 -127.12 50.15 -60.59 131.91" fill="none" stroke="#fff" stroke-miterlimit="10"/><polygon points="-85.97 968.17 18.11 951.44 55.65 852.93 -10.88 771.17 -114.96 787.9 -152.5 886.4 -85.97 968.17" fill="none" stroke="#fff" stroke-miterlimit="10"/><polygon points="-114.96 787.9 -10.88 771.17 26.67 672.67 -39.86 590.9 -143.94 607.63 -181.49 706.13 -114.96 787.9" fill="none" stroke="#fff" stroke-miterlimit="10"/><g opacity=".6"><polygon points="1642.5 782.73 1746.58 765.99 1784.13 667.49 1717.59 585.73 1613.52 602.46 1575.97 700.96 1642.5 782.73" fill="#fff"/><polygon points="1613.52 602.46 1717.59 585.73 1755.14 487.23 1688.61 405.46 1584.53 422.19 1546.99 520.69 1613.52 602.46" fill="#fff"/><polygon points="1584.53 422.19 1688.61 405.46 1726.16 306.96 1659.63 225.19 1555.55 241.92 1518 340.42 1584.53 422.19" fill="#fff" opacity=".5"/><polygon points="1555.55 241.92 1659.63 225.19 1697.17 126.69 1630.64 44.92 1526.57 61.66 1489.02 160.16 1555.55 241.92" fill="#fff"/><polygon points="1526.57 61.66 1630.64 44.92 1668.19 -53.58 1601.66 -135.34 1497.58 -118.61 1460.04 -20.11 1526.57 61.66" fill="#fff" opacity=".8"/><polygon points="1530.17 1078.18 1634.25 1061.45 1671.8 962.94 1605.27 881.18 1501.19 897.91 1463.64 996.41 1530.17 1078.18" fill="#fff"/><polygon points="1501.19 897.91 1605.27 881.18 1642.81 782.68 1576.28 700.91 1472.2 717.64 1434.66 816.14 1501.19 897.91" fill="#fff"/><polygon points="1472.2 717.64 1576.28 700.91 1613.83 602.41 1547.3 520.64 1443.22 537.38 1405.67 635.88 1472.2 717.64" fill="#fff" opacity=".8"/><polygon points="1443.22 537.38 1547.3 520.64 1584.85 422.14 1518.31 340.37 1414.24 357.11 1376.69 455.61 1443.22 537.38" fill="#fff"/><polygon points="1414.24 357.11 1518.31 340.37 1555.86 241.87 1489.33 160.11 1385.25 176.84 1347.71 275.34 1414.24 357.11" fill="#fff" opacity=".9"/><polygon points="1385.25 176.84 1489.33 160.11 1526.88 61.61 1460.35 -20.16 1356.27 -3.43 1318.72 95.07 1385.25 176.84" fill="#fff"/><polygon points="1359.85 1013.1 1463.93 996.37 1501.47 897.87 1434.94 816.1 1330.87 832.83 1293.32 931.33 1359.85 1013.1" fill="#fff" opacity=".9"/><polygon points="1330.87 832.83 1434.94 816.1 1472.49 717.6 1405.96 635.83 1301.88 652.56 1264.33 751.07 1330.87 832.83" fill="#fff" opacity=".5"/><polygon points="1301.88 652.56 1405.96 635.83 1443.51 537.33 1376.98 455.56 1272.9 472.3 1235.35 570.8 1301.88 652.56" fill="#fff" opacity=".9"/><polygon points="1272.9 472.3 1376.98 455.56 1414.52 357.06 1347.99 275.3 1243.91 292.03 1206.37 390.53 1272.9 472.3" fill="#fff" opacity=".8"/><polygon points="1243.91 292.03 1347.99 275.3 1385.54 176.79 1319.01 95.03 1214.93 111.76 1177.38 210.26 1243.91 292.03" fill="#fff" opacity=".5"/><polygon points="1214.93 111.76 1319.01 95.03 1356.56 -3.47 1290.03 -85.24 1185.95 -68.51 1148.4 29.99 1214.93 111.76" fill="#fff" opacity=".9"/><polygon points="1189.55 948.02 1293.63 931.28 1331.18 832.78 1264.65 751.02 1160.57 767.75 1123.02 866.25 1189.55 948.02" fill="#fff" opacity=".5"/><polygon points="1160.57 767.75 1264.65 751.02 1302.19 652.51 1235.66 570.75 1131.59 587.48 1094.04 685.98 1160.57 767.75" fill="#fff"/><polygon points="1131.59 587.48 1235.66 570.75 1273.21 472.25 1206.68 390.48 1102.6 407.21 1065.05 505.71 1131.59 587.48" fill="#fff"/><polygon points="1102.6 407.21 1206.68 390.48 1244.23 291.98 1177.7 210.21 1073.62 226.95 1036.07 325.45 1102.6 407.21" fill="#fff"/><polygon points="1073.62 226.95 1177.7 210.21 1215.24 111.71 1148.71 29.94 1044.63 46.68 1007.09 145.18 1073.62 226.95" fill="#fff"/><polygon points="1044.63 46.68 1148.71 29.94 1186.26 -68.56 1119.73 -150.32 1015.65 -133.59 978.1 -35.09 1044.63 46.68" fill="#fff"/><polygon points="1048.21 1063.21 1152.29 1046.47 1189.84 947.97 1123.31 866.2 1019.23 882.94 981.68 981.44 1048.21 1063.21" fill="#fff"/><polygon points="1019.23 882.94 1123.31 866.2 1160.85 767.7 1094.32 685.94 990.25 702.67 952.7 801.17 1019.23 882.94" fill="#fff"/><polygon points="990.25 702.67 1094.32 685.94 1131.87 587.44 1065.34 505.67 961.26 522.4 923.72 620.9 990.25 702.67" fill="#fff" opacity=".9"/><polygon points="961.26 522.4 1065.34 505.67 1102.89 407.17 1036.36 325.4 932.28 342.13 894.73 440.63 961.26 522.4" fill="#fff" opacity=".5"/><polygon points="932.28 342.13 1036.36 325.4 1073.9 226.9 1007.37 145.13 903.3 161.87 865.75 260.37 932.28 342.13" fill="#fff"/><polygon points="903.3 161.87 1007.37 145.13 1044.92 46.63 978.39 -35.13 874.31 -18.4 836.77 80.1 903.3 161.87" fill="#fff" opacity=".8"/><polygon points="877.92 998.12 982 981.39 1019.54 882.89 953.01 801.12 848.93 817.85 811.39 916.35 877.92 998.12" fill="#fff" opacity=".8"/><polygon points="848.93 817.85 953.01 801.12 990.56 702.62 924.03 620.85 819.95 637.59 782.4 736.09 848.93 817.85" fill="#fff"/><polygon points="819.95 637.59 924.03 620.85 961.57 522.35 895.04 440.58 790.97 457.32 753.42 555.82 819.95 637.59" fill="#fff"/><polygon points="790.97 457.32 895.04 440.58 932.59 342.08 866.06 260.32 761.98 277.05 724.44 375.55 790.97 457.32" fill="#fff" opacity=".8"/><polygon points="761.98 277.05 866.06 260.32 903.61 161.82 837.08 80.05 733 96.78 695.45 195.28 761.98 277.05" fill="#fff"/><polygon points="733 96.78 837.08 80.05 874.62 -18.45 808.09 -100.22 704.02 -83.48 666.47 15.02 733 96.78" fill="#fff"/><polygon points="707.6 933.04 811.67 916.31 849.22 817.81 782.69 736.04 678.61 752.77 641.06 851.28 707.6 933.04" fill="#fff" opacity=".5"/><polygon points="678.61 752.77 782.69 736.04 820.24 637.54 753.71 555.77 649.63 572.51 612.08 671.01 678.61 752.77" fill="#fff"/><polygon points="649.63 572.51 753.71 555.77 791.25 457.27 724.72 375.51 620.64 392.24 583.1 490.74 649.63 572.51" fill="#fff"/><polygon points="620.64 392.24 724.72 375.51 762.27 277 695.74 195.24 591.66 211.97 554.11 310.47 620.64 392.24" fill="#fff"/><polygon points="591.66 211.97 695.74 195.24 733.29 96.74 666.75 14.97 562.68 31.7 525.13 130.2 591.66 211.97" fill="#fff" opacity=".9"/><polygon points="562.68 31.7 666.75 14.97 704.3 -83.53 637.77 -165.3 533.69 -148.56 496.15 -50.06 562.68 31.7" fill="#fff"/><polygon points="566.28 1048.23 670.36 1031.49 707.91 932.99 641.38 851.23 537.3 867.96 499.75 966.46 566.28 1048.23" fill="#fff"/><polygon points="537.3 867.96 641.38 851.23 678.92 752.72 612.39 670.96 508.32 687.69 470.77 786.19 537.3 867.96" fill="#fff"/><polygon points="508.32 687.69 612.39 670.96 649.94 572.46 583.41 490.69 479.33 507.42 441.78 605.92 508.32 687.69" fill="#fff" opacity=".8"/><polygon points="479.33 507.42 583.41 490.69 620.96 392.19 554.43 310.42 450.35 327.16 412.8 425.66 479.33 507.42" fill="#fff" opacity=".5"/><polygon points="450.35 327.16 554.43 310.42 591.97 211.92 525.44 130.15 421.36 146.89 383.82 245.39 450.35 327.16" fill="#fff" opacity=".8"/><polygon points="421.36 146.89 525.44 130.15 562.99 31.65 496.46 -50.11 392.38 -33.38 354.83 65.12 421.36 146.89" fill="#fff"/><polygon points="395.96 983.15 500.04 966.41 537.58 867.91 471.05 786.15 366.98 802.88 329.43 901.38 395.96 983.15" fill="#fff" opacity=".9"/><polygon points="366.98 802.88 471.05 786.15 508.6 687.65 442.07 605.88 337.99 622.61 300.45 721.11 366.98 802.88" fill="#fff"/><polygon points="337.99 622.61 442.07 605.88 479.62 507.38 413.09 425.61 309.01 442.34 271.46 540.84 337.99 622.61" fill="#fff"/><polygon points="309.01 442.34 413.09 425.61 450.63 327.11 384.1 245.34 280.03 262.08 242.48 360.58 309.01 442.34" fill="#fff"/><polygon points="280.03 262.08 384.1 245.34 421.65 146.84 355.12 65.08 251.04 81.81 213.5 180.31 280.03 262.08" fill="#fff"/><polygon points="251.04 81.81 355.12 65.08 392.67 -33.43 326.14 -115.19 222.06 -98.46 184.51 .04 251.04 81.81" fill="#fff"/><polygon points="225.66 918.06 329.74 901.33 367.29 802.83 300.76 721.06 196.68 737.8 159.13 836.3 225.66 918.06" fill="#fff"/><polygon points="196.68 737.8 300.76 721.06 338.3 622.56 271.77 540.79 167.7 557.53 130.15 656.03 196.68 737.8" fill="#fff" opacity=".5"/><polygon points="167.7 557.53 271.77 540.79 309.32 442.29 242.79 360.53 138.71 377.26 101.17 475.76 167.7 557.53" fill="#fff" opacity=".9"/><polygon points="138.71 377.26 242.79 360.53 280.34 262.03 213.81 180.26 109.73 196.99 72.18 295.49 138.71 377.26" fill="#fff" opacity=".5"/><polygon points="109.73 196.99 213.81 180.26 251.35 81.76 184.82 0 80.75 16.73 43.2 115.23 109.73 196.99" fill="#fff"/><polygon points="84.32 1033.25 188.4 1016.52 225.95 918.02 159.42 836.25 55.34 852.98 17.79 951.49 84.32 1033.25" fill="#fff"/><polygon points="55.34 852.98 159.42 836.25 196.97 737.75 130.44 655.98 26.36 672.72 -11.19 771.22 55.34 852.98" fill="#fff" opacity=".8"/><polygon points="26.36 672.72 130.44 655.98 167.98 557.48 101.45 475.72 -2.63 492.45 -40.17 590.95 26.36 672.72" fill="#fff"/><polygon points="-2.63 492.45 101.45 475.72 139 377.21 72.47 295.45 -31.61 312.18 -69.16 410.68 -2.63 492.45" fill="#fff"/><polygon points="-31.61 312.18 72.47 295.45 110.02 196.95 43.48 115.18 -60.59 131.91 -98.14 230.41 -31.61 312.18" fill="#fff"/><polygon points="-60.59 131.91 43.48 115.18 81.03 16.68 14.5 -65.09 -89.58 -48.35 -127.12 50.15 -60.59 131.91" fill="#fff"/><polygon points="-85.97 968.17 18.11 951.44 55.65 852.93 -10.88 771.17 -114.96 787.9 -152.5 886.4 -85.97 968.17" fill="#fff"/><polygon points="-114.96 787.9 -10.88 771.17 26.67 672.67 -39.86 590.9 -143.94 607.63 -181.49 706.13 -114.96 787.9" fill="#fff" opacity=".9"/></g></g></g></g></g></svg>